<svg xmlns="http://www.w3.org/2000/svg" viewBox="0 0 128.85 45.16"><defs><style>.cls-1{fill:#00D4FF;}.cls-2{fill:#ECEEE3;}</style></defs><title>Asset 11</title><g id="Layer_2" data-name="Layer 2"><g id="Layer_4" data-name="Layer 4"><path class="cls-1" d="M2.56,26.18a.61.61,0,0,1-.26.59,1.38,1.38,0,0,1-.7.22,2.28,2.28,0,0,1-.82-.09,1,1,0,0,1-.56-.35A2.35,2.35,0,0,1,0,25.62a5,5,0,0,1,.07-1,6.07,6.07,0,0,1,.4-1.4,11.51,11.51,0,0,1,.69-1.41A10.51,10.51,0,0,1,2,20.58a9,9,0,0,1,.79-.92A17.22,17.22,0,0,1,6.28,17a26.69,26.69,0,0,1,3.82-1.82c.57-1,1.16-1.89,1.77-2.81s1.21-1.83,1.82-2.75c.3-.49.6-1,.91-1.42s.62-.91.91-1.36c-1.06.2-2.1.44-3.14.7A24.56,24.56,0,0,0,10,8.4a19.34,19.34,0,0,0-2.7,1.42A12.37,12.37,0,0,0,5,11.61a3.82,3.82,0,0,0-1.16,2A2.66,2.66,0,0,0,4,15a3.77,3.77,0,0,0,1.09,1.46l.1.29a.76.76,0,0,1-.37.75,1.89,1.89,0,0,1-1.13.32,5.08,5.08,0,0,1-1.45-.25A2.22,2.22,0,0,1,1,16.69,9.75,9.75,0,0,1,.63,15.3a3.66,3.66,0,0,1,0-1.36,6.42,6.42,0,0,1,.25-1c.11-.35.26-.76.45-1.21A10.43,10.43,0,0,1,3.93,8.11,17.44,17.44,0,0,1,7.84,5.43,29.28,29.28,0,0,1,12.6,3.56c1.7-.5,3.4-.92,5.12-1.25s3.39-.59,5-.79L27.21,1c1.2-.14,2.25-.28,3.15-.41A10,10,0,0,0,32.7,0a3.71,3.71,0,0,1-.12,1.34A12,12,0,0,1,32.07,3a8.58,8.58,0,0,1-.67,1.39c-.25.4-.45.62-.63.65l-3.56.31c-1.51.14-3.05.29-4.63.46s-3.15.37-4.73.61a5.45,5.45,0,0,1,.83,1.11c.23.39.29.68.19.87-.49.9-1,1.79-1.58,2.66s-1.15,1.76-1.75,2.64c.76-.16,1.52-.3,2.27-.43l2.3-.4,2.2-.39L24.48,12c.1,0,.15.15.13.35a3.2,3.2,0,0,1-.18.73A7.64,7.64,0,0,1,24,14c-.16.33-.32.64-.48.91a4.84,4.84,0,0,1-.5.71.85.85,0,0,1-.4.31L21.39,16c-1.18.08-2.49.21-3.92.37a40.69,40.69,0,0,0-4.4.77q-1.46,2.13-2.69,4.37a19.41,19.41,0,0,0-1.89,4.89,1.38,1.38,0,0,0,0,.83,1,1,0,0,0,.41.54,2,2,0,0,0,.76.3,5.16,5.16,0,0,0,1,.09A10.38,10.38,0,0,0,12.57,28a19.11,19.11,0,0,0,2.08-.51c.7-.21,1.35-.44,2-.69a16.84,16.84,0,0,0,1.61-.74c.45-.27.76-.24.92.09a2.38,2.38,0,0,1,.07,1.47,6.61,6.61,0,0,1-.18.81,5.51,5.51,0,0,1-.31.78,5.29,5.29,0,0,1-.41.66,1.46,1.46,0,0,1-.48.43,13.14,13.14,0,0,1-1.47.6,16,16,0,0,1-1.73.49,18,18,0,0,1-1.86.33,14.67,14.67,0,0,1-1.85.11,10.64,10.64,0,0,1-2.45-.26,5.3,5.3,0,0,1-2-.85,3.46,3.46,0,0,1-1.2-1.55,4.29,4.29,0,0,1-.12-2.35,23.48,23.48,0,0,1,1.12-4,43.37,43.37,0,0,1,1.75-4,15.06,15.06,0,0,0-4.19,2.7,5.68,5.68,0,0,0-.47.54c-.17.21-.34.46-.51.72a5.83,5.83,0,0,0-.42.87,4.27,4.27,0,0,0-.26.94,3,3,0,0,0,0,.73,1.23,1.23,0,0,0,.28.65Z"/><path class="cls-1" d="M34.49,22.49A11.67,11.67,0,0,0,33.75,24a7.13,7.13,0,0,0-.4,1.3c0,.15-.08.25-.13.28h.26A4.69,4.69,0,0,0,35,24.73a13.89,13.89,0,0,0,1.41-1.37c.46-.51.9-1.06,1.33-1.64l1.21-1.67a2.24,2.24,0,0,0,.31-.37,3.37,3.37,0,0,0,.21-.34q.1-.12.39-.06a1.47,1.47,0,0,1,.54.25,1.32,1.32,0,0,1,.42.43.33.33,0,0,1,0,.42l-.75,1v0c-.75,1-1.53,2-2.33,3A18,18,0,0,1,35,27.17a7.26,7.26,0,0,1-.59.46,5.73,5.73,0,0,1-.78.46,5,5,0,0,1-.92.37,3.14,3.14,0,0,1-1,.11A2.16,2.16,0,0,1,30,27.69a2.92,2.92,0,0,1-.38-2,18.78,18.78,0,0,1-2.36,1.89,4.36,4.36,0,0,1-2.29.81,2.88,2.88,0,0,1-1.57-.56,3,3,0,0,1-.88-1.07,3.81,3.81,0,0,1-.32-1.34,7.31,7.31,0,0,1,0-1.34,7.62,7.62,0,0,1,.23-.94,10.84,10.84,0,0,1,.86-2.1,18.35,18.35,0,0,1,1.43-2.29,25.22,25.22,0,0,1,1.83-2.21,17.08,17.08,0,0,1,2.12-1.9A11.64,11.64,0,0,1,31,13.36a6,6,0,0,1,2.3-.49,4.62,4.62,0,0,1,.65.05c.21,0,.43.09.68.16a2,2,0,0,1,1.06.86l.24-.34,1-1.51c.44-.64.86-1.31,1.26-2s.79-1.38,1.15-2,.67-1.31,1-1.93S40.78,5,41,4.45a1.11,1.11,0,0,1,1,0,3.14,3.14,0,0,1,1,.67,3,3,0,0,1,.71,1.08,1.47,1.47,0,0,1-.06,1.2c-.1.21-.29.55-.57,1s-.6,1-1,1.64-.77,1.24-1.2,1.91-.83,1.29-1.21,1.88l-.91,1.43,0,0c-.73,1.09-1.46,2.23-2.19,3.4s-1.42,2.45-2.08,3.8Zm-7.41,2.7a2.93,2.93,0,0,0,1-.58,12.75,12.75,0,0,0,1.25-1.15c.43-.44.86-.9,1.29-1.4s.79-.94,1.1-1.34l.44-.88c.61-1.16,1.28-2.32,2-3.46a2,2,0,0,0-.22-.68.77.77,0,0,0-.62-.33,3.24,3.24,0,0,0-2,.69,10.16,10.16,0,0,0-1.95,1.8,18.9,18.9,0,0,0-1.7,2.34,17.15,17.15,0,0,0-1.21,2.26,4.86,4.86,0,0,0-.26.72A4.36,4.36,0,0,0,26,24a2.72,2.72,0,0,0-.06.55.78.78,0,0,0,.12.44.59.59,0,0,0,.35.24A1.59,1.59,0,0,0,27.08,25.19Z"/><path class="cls-1" d="M50.77,13.08a1.08,1.08,0,0,1,.92.05,2.76,2.76,0,0,1,1,.73A3,3,0,0,1,53.28,15a1.72,1.72,0,0,1-.07,1.22c-.07.14-.19.35-.36.65s-.37.62-.58,1l0-.06c-.33.58-.7,1.23-1.12,1.95s-.81,1.45-1.19,2.16-.71,1.38-1,2a6.9,6.9,0,0,0-.52,1.5l-.11.2h.26a4.75,4.75,0,0,0,1.5-.85,12.3,12.3,0,0,0,1.43-1.38c.46-.52.91-1.07,1.34-1.65s.84-1.14,1.22-1.68l.52-.75a.82.82,0,0,1,.6-.37.79.79,0,0,1,.58.17.9.9,0,0,1,.32.56,1.17,1.17,0,0,1-.25.83l-.73,1c-.73,1-1.5,2-2.31,3a18.33,18.33,0,0,1-2.65,2.7c-.16.14-.36.29-.6.46a7.76,7.76,0,0,1-.81.45,5.52,5.52,0,0,1-.94.35,3.27,3.27,0,0,1-1,.14,1.58,1.58,0,0,1-1.54-1,4,4,0,0,1-.18-2.23v0c-.31.35-.62.67-.94,1a12.54,12.54,0,0,1-1,.84,5.85,5.85,0,0,1-.59.46,7.76,7.76,0,0,1-.81.45,5.86,5.86,0,0,1-.94.35,3.38,3.38,0,0,1-1,.14,1.53,1.53,0,0,1-1.49-1,4.05,4.05,0,0,1-.17-2.21c0-.19.07-.4.12-.62a3.61,3.61,0,0,1,.17-.63c.14-.38.31-.82.52-1.31s.44-1,.7-1.53l.81-1.64c.27-.56.54-1.12.8-1.68.43-.88.84-1.73,1.22-2.53s.69-1.48.91-2l.32-.36a1.08,1.08,0,0,1,.92.05,2.85,2.85,0,0,1,1,.73A3,3,0,0,1,46.33,15a1.71,1.71,0,0,1-.06,1.22c-.09.15-.22.39-.39.7s-.38.67-.63,1.07l0,0c-.35.57-.72,1.21-1.13,1.91s-.79,1.4-1.16,2.09-.68,1.35-1,2a6.78,6.78,0,0,0-.48,1.47l-.1.2h.23a4.72,4.72,0,0,0,1.48-.84,11.67,11.67,0,0,0,1.41-1.33c.45-.49.88-1,1.3-1.58l1.2-1.65h0a1.51,1.51,0,0,1,.18-.26l.21-.26.75-1.51c.47-.92.91-1.8,1.32-2.63s.71-1.52.92-2.08Z"/><path class="cls-1" d="M67.35,21.27c-.55.78-1.22,1.64-2,2.59a26.6,26.6,0,0,1-2.69,2.74,8.93,8.93,0,0,1-3.25,1.73,6,6,0,0,1-1.26.23c-.38,0-.67,0-.87,0a3.46,3.46,0,0,1-2.93-1.17,4.22,4.22,0,0,1-.64-3.2,10.28,10.28,0,0,1,1.14-3.46,22.11,22.11,0,0,1,2.53-3.66,13.69,13.69,0,0,1,1.43-1.39,14.51,14.51,0,0,1,1.87-1.37,11.43,11.43,0,0,1,2.12-1A6.08,6.08,0,0,1,64.91,13a2,2,0,0,1,1.6.72,2.2,2.2,0,0,1,.32,1.81,4.62,4.62,0,0,1-.93,2.08,1.22,1.22,0,0,1-.64.4.69.69,0,0,1-.54-.09.86.86,0,0,1-.32-.5,1.28,1.28,0,0,1,.07-.78,1.64,1.64,0,0,0,.36-.83.18.18,0,0,0,0-.19c0-.05-.13-.05-.27,0a5,5,0,0,0-2.07,1,13.78,13.78,0,0,0-1.91,1.84A16.13,16.13,0,0,0,59,20.61a13.3,13.3,0,0,0-1,2l-.29,1a6.78,6.78,0,0,0,0,.77,2.58,2.58,0,0,0,.09.7,1.54,1.54,0,0,0,.29.57.89.89,0,0,0,.5.33l0,0a2.24,2.24,0,0,0,1.21-.07,6.39,6.39,0,0,0,1.56-.74A12.56,12.56,0,0,0,63,23.76a16.84,16.84,0,0,0,1.87-2c.33-.42.65-.85,1-1.29l.87-1.26a.94.94,0,0,1,.65-.37A1,1,0,0,1,68,19a.74.74,0,0,1,.31.53,1.12,1.12,0,0,1-.29.82Z"/><path class="cls-1" d="M79.31,17.47a.32.32,0,0,1-.19.25,1.45,1.45,0,0,1-.4.13,2.59,2.59,0,0,1-.48,0,1.1,1.1,0,0,1-.43-.08,4.35,4.35,0,0,1,.67.55A2.86,2.86,0,0,1,79,19a2.66,2.66,0,0,1,.28.77,1.33,1.33,0,0,1-.1.76c-.06.12-.14.25-.23.4l-.26.45c-.19.33-.39.69-.58,1.07s-.39.75-.56,1.12-.33.7-.46,1a4.49,4.49,0,0,0-.25.82.1.1,0,0,1,0,.08l-.07,0h.18a4.58,4.58,0,0,0,1.51-.85,13,13,0,0,0,1.42-1.37,19.7,19.7,0,0,0,1.32-1.64c.43-.58.83-1.14,1.21-1.67a2.24,2.24,0,0,0,.31-.37,3.37,3.37,0,0,0,.21-.34q.1-.12.39-.06a1.59,1.59,0,0,1,.55.25,1.4,1.4,0,0,1,.41.43.31.31,0,0,1,0,.42l-.75,1v0c-.75,1-1.52,2-2.33,3a17.54,17.54,0,0,1-2.69,2.69,6.93,6.93,0,0,1-.58.46,7.28,7.28,0,0,1-.78.46,5.46,5.46,0,0,1-.93.37,3.08,3.08,0,0,1-1,.11,2.14,2.14,0,0,1-1.75-.88,2.87,2.87,0,0,1-.38-2,18.16,18.16,0,0,1-2.37,1.89,4.36,4.36,0,0,1-2.29.81,2.92,2.92,0,0,1-1.57-.56A2.86,2.86,0,0,1,66,26.81a3.61,3.61,0,0,1-.32-1.34,7.35,7.35,0,0,1,0-1.34,6,6,0,0,1,.24-.94,10.24,10.24,0,0,1,.86-2.1,17.25,17.25,0,0,1,1.43-2.29A22.1,22.1,0,0,1,70,16.59a16.39,16.39,0,0,1,2.12-1.9,11.29,11.29,0,0,1,2.27-1.33,6,6,0,0,1,2.3-.49,4.4,4.4,0,0,1,.65.05c.21,0,.44.09.68.16a1.86,1.86,0,0,1,.95.66,2.63,2.63,0,0,1,.44,1.07,5,5,0,0,1,.08,1.3A7.83,7.83,0,0,1,79.31,17.47Zm-3,0a1,1,0,0,1,.61,0,2.42,2.42,0,0,1,.72.29.28.28,0,0,1-.08-.29.35.35,0,0,0,0-.18.5.5,0,0,1,0-.21c0-.17,0-.36,0-.55a1.55,1.55,0,0,0-.08-.53.78.78,0,0,0-.26-.4.75.75,0,0,0-.49-.18,3.26,3.26,0,0,0-2,.69,10.78,10.78,0,0,0-2,1.8,18.9,18.9,0,0,0-1.7,2.34,19.91,19.91,0,0,0-1.21,2.26c-.08.2-.17.43-.26.72a6.65,6.65,0,0,0-.18.84,3.62,3.62,0,0,0,0,.55.78.78,0,0,0,.12.44.53.53,0,0,0,.35.24,1.6,1.6,0,0,0,.65-.06,2.62,2.62,0,0,0,1-.59c.4-.33.82-.72,1.27-1.16s.87-.91,1.3-1.42.78-.95,1.07-1.35.5-1,.72-1.52a7,7,0,0,0,.45-1.26Z"/><path class="cls-1" d="M85.94,14.22a.91.91,0,0,1-.76,0,.68.68,0,0,1-.38-.45,1,1,0,0,1,.09-.67,1.69,1.69,0,0,1,.61-.65c.71-.45,1.41-.85,2.09-1.22s1.38-.69,2.07-1A49.6,49.6,0,0,0,92.6,4.45a1.16,1.16,0,0,1,1,0,2.94,2.94,0,0,1,1,.69,3.22,3.22,0,0,1,.69,1.08,1.6,1.6,0,0,1,0,1.18l-.76,1.33A19.41,19.41,0,0,1,98,8.42l.67,0,.68,0a2.08,2.08,0,0,1-.09.84,3.4,3.4,0,0,1-.41.86,3,3,0,0,1-.58.69,1,1,0,0,1-.64.28c-.17,0-.35,0-.54,0l-.58,0a15.63,15.63,0,0,0-1.79.11,17.85,17.85,0,0,0-1.85.31c-.24.41-.49.82-.74,1.22s-.5.78-.74,1.14l-.21.34c-.2.33-.49.78-.85,1.35s-.76,1.21-1.19,1.92-.86,1.43-1.31,2.21-.87,1.51-1.25,2.23-.7,1.38-1,2a6.1,6.1,0,0,0-.47,1.46.27.27,0,0,0,0,.13.08.08,0,0,1,0,.07h.19a5,5,0,0,0,1.48-.84,12.39,12.39,0,0,0,1.4-1.33,18.53,18.53,0,0,0,1.3-1.58l1.2-1.65h0c.11-.16.22-.31.34-.46l.34-.43c.07-.1.19-.13.36-.08a1.89,1.89,0,0,1,.51.26,1.75,1.75,0,0,1,.39.43.43.43,0,0,1,0,.43l-.86,1.17c-.71,1-1.48,2-2.3,3a18.92,18.92,0,0,1-2.61,2.67c-.16.14-.36.29-.6.46a6.14,6.14,0,0,1-.81.45,5.42,5.42,0,0,1-.93.35,3.38,3.38,0,0,1-1,.14,1.69,1.69,0,0,1-.94-.28A1.8,1.8,0,0,1,82,27.6a3,3,0,0,1-.23-1,5.27,5.27,0,0,1,.06-1.23c0-.19.08-.4.13-.61a5.14,5.14,0,0,1,.19-.59,22.09,22.09,0,0,1,1-2.65c.4-.89.83-1.76,1.3-2.63s1-1.72,1.47-2.57,1-1.68,1.55-2.5l.33-.52L86,14.2Z"/><path class="cls-1" d="M96.14,13.08a1.06,1.06,0,0,1,.91.06A2.73,2.73,0,0,1,98.5,15a1.62,1.62,0,0,1-.18,1.23s0,0,0,.11l-.29.41-.41.6q-.24.35-.42.63l-1,1.49L95,21.13c-.37.56-.72,1.11-1.06,1.65s-.62,1-.86,1.43-.4.75-.51,1-.1.37,0,.37h.19a5.51,5.51,0,0,0,1.63-.84,12.09,12.09,0,0,0,1.55-1.34c.5-.5,1-1,1.44-1.6l1.36-1.62.46-.63a.39.39,0,0,1,.42-.06,1.27,1.27,0,0,1,.48.31,1.41,1.41,0,0,1,.33.49.42.42,0,0,1-.06.46l0-.05c-.87,1.12-1.84,2.27-2.91,3.43a32.81,32.81,0,0,1-3.25,3.07l-.64.43a7,7,0,0,1-.82.45,5.75,5.75,0,0,1-.93.35,3.3,3.3,0,0,1-1,.14,1.38,1.38,0,0,1-1.36-.79,3.35,3.35,0,0,1-.17-1.91,8.67,8.67,0,0,1,.57-1.77l0,0a24.37,24.37,0,0,1,1.49-3c.65-1.14,1.32-2.29,2-3.43.45-.78.88-1.54,1.31-2.27s.78-1.41,1.08-2Zm4-8a1,1,0,0,1,.74.35,5.73,5.73,0,0,1,.8.94,6.23,6.23,0,0,1,.63,1.07,1.36,1.36,0,0,1,.19.76,7.86,7.86,0,0,1-.63,1.33l-.72,1.17L100.36,12a12.34,12.34,0,0,0-.74,1.46A1.74,1.74,0,0,1,99,13a3.83,3.83,0,0,1-.64-.69,3.61,3.61,0,0,1-.45-.81,1.18,1.18,0,0,1-.12-.7A10.2,10.2,0,0,1,98.1,9.7c.15-.42.31-.85.51-1.3S99,7.49,99.15,7a12.12,12.12,0,0,0,.42-1.35Z"/><path class="cls-1" d="M109.47,12.9a2.18,2.18,0,0,1,1.53,1,4,4,0,0,1,.53,1.82,2.33,2.33,0,0,1,.36.88,6,6,0,0,1,.11,1.17,2,2,0,0,0-.07.42c0,.14,0,.3-.06.49A10.68,10.68,0,0,1,111.2,21a15.29,15.29,0,0,1-1.15,2.24,17.7,17.7,0,0,1-1.54,2.05A12.81,12.81,0,0,1,106.72,27a9,9,0,0,1-1.91,1.13,4.76,4.76,0,0,1-1.89.42,3.85,3.85,0,0,1-2.78-1.12A4.75,4.75,0,0,1,99,24c0-.19,0-.4,0-.61s0-.45.08-.69a8.61,8.61,0,0,1,.73-2.3,14.35,14.35,0,0,1,1.32-2.3A15.42,15.42,0,0,1,102.93,16a13.15,13.15,0,0,1,2.1-1.7,9.51,9.51,0,0,1,2.22-1.09A5.4,5.4,0,0,1,109.47,12.9Zm-1.82,6.86a.44.44,0,0,1-.27-.36,3.16,3.16,0,0,1-.06-.64,4.91,4.91,0,0,1,.06-.74c0-.26.08-.49.12-.68a1.83,1.83,0,0,1,.32-.66,3.27,3.27,0,0,1,.54-.57,4.89,4.89,0,0,1,.55-.43c.19-.12.33-.21.43-.26a.7.7,0,0,0-.36-.05,3.53,3.53,0,0,0-1.33.45,7.53,7.53,0,0,0-1.43,1,12.09,12.09,0,0,0-1.3,1.45,13,13,0,0,0-1.08,1.65,12.36,12.36,0,0,0-.8,1.7,7.15,7.15,0,0,0-.43,1.57,3,3,0,0,0,.08,1.65,1.15,1.15,0,0,0,1.12.72,2.51,2.51,0,0,0,1.3-.33,5.91,5.91,0,0,0,1.32-.95,9.5,9.5,0,0,0,1.26-1.39,14.11,14.11,0,0,0,1.11-1.66,14.31,14.31,0,0,0,.83-1.73,7.36,7.36,0,0,0,.44-1.59l.05-.13a1,1,0,0,0-.48.17,3.89,3.89,0,0,0-.52.41,4.06,4.06,0,0,0-.44.49,1.79,1.79,0,0,0-.27.47Z"/><path class="cls-1" d="M127,22.85c-.33.45-.77,1-1.3,1.64a22.09,22.09,0,0,1-1.77,1.87,12.91,12.91,0,0,1-2,1.55,3.53,3.53,0,0,1-1.89.64,2.83,2.83,0,0,1-1-.2,1.74,1.74,0,0,1-.8-.61,2.36,2.36,0,0,1-.43-1.08,4.26,4.26,0,0,1,.06-1.57,11.7,11.7,0,0,1,.46-1.53A15.61,15.61,0,0,1,119,22c.27-.55.58-1.16.93-1.81s.74-1.38,1.19-2.19a8.48,8.48,0,0,0,.51-1,4,4,0,0,0,.25-.74l-1.25,1.07c-.73.6-1.4,1.21-2,1.82s-1.24,1.27-1.88,2a34.31,34.31,0,0,0-1.59,3.29A23.7,23.7,0,0,0,114,27.82c-.07.19-.25.28-.55.26a2.59,2.59,0,0,1-.92-.25,3.11,3.11,0,0,1-.86-.56.83.83,0,0,1-.35-.67,19.11,19.11,0,0,1,.61-2.28c.25-.73.53-1.46.85-2.18s.64-1.43,1-2.13.71-1.41,1.08-2.12.82-1.64,1.22-2.43.75-1.55,1.06-2.28a1,1,0,0,1,.77,0,3,3,0,0,1,.87.45,3.35,3.35,0,0,1,.73.77,2.23,2.23,0,0,1,.39.95,16.06,16.06,0,0,1,2.26-1.59,5.36,5.36,0,0,1,2.29-.72,1,1,0,0,1,.71.32,3.29,3.29,0,0,1,.62.79,3,3,0,0,1,.33,1,1.69,1.69,0,0,1-.1,1c-.45.88-.89,1.71-1.33,2.48l-1.11,2-.77,1.34c-.24.41-.44.81-.63,1.21s-.34.81-.49,1.22-.28.87-.4,1.35c0,0,.08-.08.18-.15h0a11.08,11.08,0,0,0,1.93-1.33,15.4,15.4,0,0,0,2.39-2.55l.64-.8.58-.78.5-.76c.07-.08.19-.1.39-.06a1.43,1.43,0,0,1,.53.25,1.45,1.45,0,0,1,.39.43.34.34,0,0,1,0,.42l0-.05L127,22.83Z"/><path class="cls-2" d="M.81,44.61S5.41,35.1,21.5,34.16c17-1,66.4,6.59,80,7,6.62.19,17-1.1,21-3-3.32,2.21-15,7-27,7-15.34,0-62.86-5-71-5C13.5,40.16,5.28,42.32.81,44.61Z"/></g></g></svg>