<svg xmlns="http://www.w3.org/2000/svg" viewBox="0 0 138.266 44.39">
  <title>Asset 15</title>
  <g id="Layer_2" data-name="Layer 2">
    <g id="Layer_4" data-name="Layer 4">
      <g>
        <path d="M3.757,13.894c-.053.192-.226.3-.521.326a2.9,2.9,0,0,1-.961-.091,4.476,4.476,0,0,1-.975-.365Q.844,13.532.767,13.3A14.669,14.669,0,0,1,1.846,9.579,13.411,13.411,0,0,1,3.588,6.693,12.789,12.789,0,0,1,5.772,4.535a18.13,18.13,0,0,1,2.4-1.573,17.594,17.594,0,0,1,2.4-1.092q1.183-.429,2.172-.715A19.85,19.85,0,0,1,16.327.439a33.586,33.586,0,0,1,3.55-.194q1.508,0,3.081.087t2.95.211q1.248.1,2.471.174t2.34.074A18.183,18.183,0,0,0,33.293.622,8.086,8.086,0,0,0,35.45.011c.139-.052.2.086.183.417A6.776,6.776,0,0,1,35.45,1.59a9.852,9.852,0,0,1-.389,1.283,1.607,1.607,0,0,1-.443.746,11.405,11.405,0,0,1-2.43.629,17.82,17.82,0,0,1-2.561.182,28.028,28.028,0,0,1-2.938-.155q-1.483-.156-3.016-.339-1.663-.181-3.328-.35a32.834,32.834,0,0,0-3.328-.169q-1.041,0-2.068.091t-2.119.3a12.034,12.034,0,0,0-2.82.95A9.685,9.685,0,0,0,7.409,6.6,11.942,11.942,0,0,0,5.252,9.579,16.787,16.787,0,0,0,3.757,13.894ZM17.251,3.573c.138-.139.39-.13.754.025a3.587,3.587,0,0,1,1.819,1.86A1.513,1.513,0,0,1,19.8,6.77q-1.587,1.743-3.2,3.771t-3.12,4.173q-1.509,2.144-2.886,4.329T8.1,23.281q-1.117,2.053-1.938,3.9a25.49,25.49,0,0,0-1.234,3.3q-.052.207-.391-.053a4.844,4.844,0,0,1-.715-.7,6.749,6.749,0,0,1-.663-.923,1.338,1.338,0,0,1-.259-.714,19.945,19.945,0,0,1,1.2-3.562q.858-2,2.041-4.212t2.612-4.524q1.43-2.314,2.912-4.525t2.926-4.185Q16.029,5.106,17.251,3.573Z" style="fill: #00d4ff"/>
        <path d="M25.83,17.3a15.31,15.31,0,0,1-8.216,6.213,3.577,3.577,0,0,0,.091,1.327.966.966,0,0,0,.768.754l-.052-.026a2.284,2.284,0,0,0,1.209-.078,6.3,6.3,0,0,0,1.56-.741,12.885,12.885,0,0,0,1.781-1.391,17.992,17.992,0,0,0,1.872-2.028q.494-.624.948-1.287t.871-1.261a.921.921,0,0,1,.638-.364.834.834,0,0,1,.6.169.869.869,0,0,1,.311.546,1.059,1.059,0,0,1-.246.793l-.65.936q-.832,1.169-2.015,2.587a25.292,25.292,0,0,1-2.691,2.743,8.729,8.729,0,0,1-1.716,1.131,9.248,9.248,0,0,1-1.534.6,6.458,6.458,0,0,1-1.261.234c-.373.025-.663.039-.871.039a3.456,3.456,0,0,1-2.925-1.17,4.209,4.209,0,0,1-.638-3.2,10.173,10.173,0,0,1,1.132-3.458A22.127,22.127,0,0,1,17.328,16.7a14.8,14.8,0,0,1,1.431-1.392,14.367,14.367,0,0,1,1.872-1.364,11.127,11.127,0,0,1,2.118-1.015,5.931,5.931,0,0,1,2.119-.363,2,2,0,0,1,1.613.715,2.241,2.241,0,0,1,.337,1.858,3.811,3.811,0,0,1-.325,1.054,6.6,6.6,0,0,1-.688,1.131Zm-1.351-2.132A4.715,4.715,0,0,0,22.633,16a10.87,10.87,0,0,0-1.717,1.534,16.45,16.45,0,0,0-1.481,1.885A16.868,16.868,0,0,0,18.317,21.3a13.468,13.468,0,0,0,3.431-2.041,12.275,12.275,0,0,0,2.7-3.081v.027a1.4,1.4,0,0,0,.222-.416c.043-.139.082-.26.116-.364Q24.843,15.064,24.479,15.169Z" style="fill: #00d4ff"/>
        <path d="M24.426,24.243a6.487,6.487,0,0,1,.832-2.132,5.564,5.564,0,0,1,1.481-1.664l.729-.936q.883-1.248,1.807-2.47t1.911-2.366a4.213,4.213,0,0,0,.364-.416q.154-.209.338-.416.546-.7,1.261-1.508a17.991,17.991,0,0,1,2.015-1.872,10.369,10.369,0,0,1,.884.585,4.226,4.226,0,0,1,.871.832,1.865,1.865,0,0,1,.4.949.955.955,0,0,1-.494.884l.078-.027a8.153,8.153,0,0,0-.74.69c-.147.165-.308.36-.481.585l-.416.519a7.158,7.158,0,0,0-1.028,1.925,13.785,13.785,0,0,0-.532,2q-.105.544-.156,1.105c-.035.373-.069.75-.1,1.13L33.266,23.2a6.675,6.675,0,0,1-.651,2.144A5.658,5.658,0,0,1,31.381,27a5.181,5.181,0,0,1-1.664,1.027,4.724,4.724,0,0,1-1.938.3,4.476,4.476,0,0,1-1.715-.442,3.145,3.145,0,0,1-1.105-.911,2.988,2.988,0,0,1-.533-1.248A4.231,4.231,0,0,1,24.426,24.243Zm5.8-4.811A3.7,3.7,0,0,1,30.3,19c.034-.148.069-.29.1-.429l-1.091,1.456-.027.025a5.807,5.807,0,0,1,.105.715,7.338,7.338,0,0,1,.026,1.067,5.932,5.932,0,0,1-.143,1.066,1.4,1.4,0,0,1-.377.74.678.678,0,0,0-.52-.48,1.245,1.245,0,0,0-.754.117,2.316,2.316,0,0,0-.7.507,1.449,1.449,0,0,0-.391.663,1.031,1.031,0,0,0,0,.325,2.544,2.544,0,0,0,.079.377,1.216,1.216,0,0,0,.545.61,2.22,2.22,0,0,0,.729.248,1.073,1.073,0,0,0,.7-.13,2,2,0,0,0,.559-.494,3,3,0,0,0,.416-.728,4.19,4.19,0,0,0,.247-.884q.1-.936.156-1.976c.034-.365.064-.745.091-1.144A8.775,8.775,0,0,1,30.224,19.432Z" style="fill: #00d4ff"/>
        <path d="M39.012,13.817a.973.973,0,0,1-.768,0,.7.7,0,0,1-.377-.455.979.979,0,0,1,.092-.663,1.6,1.6,0,0,1,.61-.65q1.066-.676,2.093-1.222t2.068-.988a49.649,49.649,0,0,0,2.938-5.8,1.161,1.161,0,0,1,.975.013,2.864,2.864,0,0,1,1.013.689,3.133,3.133,0,0,1,.69,1.079,1.553,1.553,0,0,1,0,1.183l-.754,1.326a19.437,19.437,0,0,1,3.432-.313c.172,0,.4,0,.675.014s.5.022.677.039a1.952,1.952,0,0,1-.092.845,3.44,3.44,0,0,1-.4.857,3.3,3.3,0,0,1-.585.69.979.979,0,0,1-.638.286c-.173-.018-.355-.03-.546-.039s-.38-.013-.571-.013a15.635,15.635,0,0,0-1.794.1,17.724,17.724,0,0,0-1.847.312q-.364.624-.741,1.222t-.74,1.143l-.208.339q-.312.494-.858,1.352T42.171,17.08q-.637,1.053-1.313,2.21T39.61,21.526q-.572,1.079-.962,1.988a6.2,6.2,0,0,0-.468,1.457.246.246,0,0,0-.052.129.112.112,0,0,1-.026.079h.181a4.981,4.981,0,0,0,1.483-.845,12.577,12.577,0,0,0,1.4-1.326,20.209,20.209,0,0,0,1.3-1.586q.624-.846,1.2-1.652H43.64c.1-.155.217-.306.338-.454s.234-.291.338-.429c.069-.1.19-.13.364-.079a1.7,1.7,0,0,1,.507.261,1.376,1.376,0,0,1,.389.429.41.41,0,0,1,.039.429L44.758,21.1q-1.067,1.484-2.3,3a19.047,19.047,0,0,1-2.613,2.665,5.724,5.724,0,0,1-.6.456,5.856,5.856,0,0,1-.8.455,6.506,6.506,0,0,1-.936.351,3.556,3.556,0,0,1-.988.143,1.731,1.731,0,0,1-.937-.286,1.7,1.7,0,0,1-.558-.689,2.874,2.874,0,0,1-.235-.988,5.624,5.624,0,0,1,.066-1.235c.034-.191.078-.394.13-.611a4.136,4.136,0,0,1,.181-.585,23.534,23.534,0,0,1,1.015-2.652q.6-1.326,1.3-2.626t1.468-2.574q.768-1.274,1.547-2.5l.339-.52-1.742.884Z" style="fill: #00d4ff"/>
        <path d="M49.2,12.673a1.039,1.039,0,0,1,.91.065,2.605,2.605,0,0,1,.911.728,2.81,2.81,0,0,1,.545,1.118,1.639,1.639,0,0,1-.181,1.235c.034-.035.016,0-.052.1s-.165.243-.286.416-.261.373-.416.6-.3.434-.416.624q-.47.678-1.027,1.5T48.072,20.72q-.56.845-1.065,1.651t-.858,1.43a9.537,9.537,0,0,0-.507,1c-.105.252-.105.377,0,.377h.181a5.7,5.7,0,0,0,1.639-.845A12.3,12.3,0,0,0,49.009,23q.741-.755,1.442-1.6T51.8,19.77l.468-.624a.372.372,0,0,1,.416-.064,1.289,1.289,0,0,1,.481.311,1.406,1.406,0,0,1,.324.5.421.421,0,0,1-.051.455l.026-.052q-1.3,1.69-2.912,3.431a31.06,31.06,0,0,1-3.25,3.069q-.261.181-.637.429a6.79,6.79,0,0,1-.819.455,6.519,6.519,0,0,1-.937.351,3.457,3.457,0,0,1-.962.143,1.4,1.4,0,0,1-1.364-.793,3.313,3.313,0,0,1-.169-1.911,8.784,8.784,0,0,1,.571-1.768l-.025.025a25.129,25.129,0,0,1,1.5-3.015q.975-1.718,2.015-3.432L47.786,15q.637-1.105,1.079-2.015Zm3.952-7.956a.952.952,0,0,1,.742.351A6.113,6.113,0,0,1,54.7,6a6.862,6.862,0,0,1,.624,1.066,1.409,1.409,0,0,1,.2.767,7.954,7.954,0,0,1-.637,1.326q-.351.572-.715,1.17t-.741,1.221a12.438,12.438,0,0,0-.741,1.457,1.694,1.694,0,0,1-.663-.377,3.992,3.992,0,0,1-.637-.689,3.679,3.679,0,0,1-.455-.807,1.268,1.268,0,0,1-.117-.7c.086-.345.2-.727.351-1.143s.316-.849.507-1.3.372-.91.546-1.378a12.259,12.259,0,0,0,.416-1.352Z" style="fill: #00d4ff"/>
        <path d="M72.785,22.449q-.493.675-1.3,1.638a24.09,24.09,0,0,1-1.754,1.872,12.407,12.407,0,0,1-1.963,1.547,3.621,3.621,0,0,1-1.9.636,2.8,2.8,0,0,1-1.04-.194,1.825,1.825,0,0,1-.8-.611,2.5,2.5,0,0,1-.43-1.079,4.338,4.338,0,0,1,.065-1.574,13.743,13.743,0,0,1,.455-1.533,16.987,16.987,0,0,1,.676-1.587q.4-.83.923-1.806t1.2-2.2a7.649,7.649,0,0,0,.521-.962,3.636,3.636,0,0,0,.26-.753c-.036.035-.148.138-.338.312s-.494.425-.91.754q-1.121.909-2.041,1.807t-1.86,1.989c-.173.295-.338.6-.494.91s-.312.633-.468.962v-.052q-.573,1.2-1.013,2.4a19.815,19.815,0,0,0-.729,2.484c-.052.208-.226.3-.519.286a2.734,2.734,0,0,1-.937-.247,3.6,3.6,0,0,1-.9-.572.861.861,0,0,1-.377-.689,20.95,20.95,0,0,1,1.39-4.264q.923-2.055,2.016-4.108c.224-.451.429-.85.61-1.2a4.726,4.726,0,0,1,.4-.676,9.915,9.915,0,0,0-1.377.962q-1.093.909-2.016,1.819t-1.885,2a34.819,34.819,0,0,0-1.586,3.288,24.67,24.67,0,0,0-1.143,3.394q-.1.285-.546.26a2.6,2.6,0,0,1-.924-.247,3.361,3.361,0,0,1-.857-.559.85.85,0,0,1-.352-.676,17.994,17.994,0,0,1,.611-2.275q.377-1.105.845-2.184t1-2.133q.532-1.052,1.079-2.118Q55,16.235,55.6,15.052t1.065-2.275a1.015,1.015,0,0,1,.768-.014,2.922,2.922,0,0,1,.87.456,3.231,3.231,0,0,1,.728.767,2.3,2.3,0,0,1,.39.948,15.31,15.31,0,0,1,2.263-1.586,5.353,5.353,0,0,1,2.288-.727,1.026,1.026,0,0,1,.585.208,2.355,2.355,0,0,1,.546.546,3.139,3.139,0,0,1,.4.754,2.822,2.822,0,0,1,.183.8,13.96,13.96,0,0,1,2.249-1.586,5.481,5.481,0,0,1,2.327-.727,1.076,1.076,0,0,1,.7.325,2.93,2.93,0,0,1,.624.806,3.037,3.037,0,0,1,.338,1.027,1.484,1.484,0,0,1-.155.962v-.026q-.678,1.43-1.287,2.522t-1.131,1.976q-.417.727-.754,1.351t-.624,1.223a12.055,12.055,0,0,0-.508,1.222c-.148.416-.281.858-.4,1.326l.129-.182a9.778,9.778,0,0,0,1.963-1.326,16.135,16.135,0,0,0,2.379-2.548c.242-.295.472-.6.69-.924s.445-.653.688-1l.416-.571a.921.921,0,0,1,.637-.364.837.837,0,0,1,.6.169.821.821,0,0,1,.3.546,1.118,1.118,0,0,1-.259.793q-.442.624-.9,1.248t-.9,1.248Z" style="fill: #00d4ff"/>
        <path d="M83.419,12.491a2.175,2.175,0,0,1,1.522,1.014,3.876,3.876,0,0,1,.532,1.82,2.244,2.244,0,0,1,.364.884,6.011,6.011,0,0,1,.1,1.17,2.21,2.21,0,0,0-.066.416,4.57,4.57,0,0,1-.064.494,10.243,10.243,0,0,1-.663,2.274A15.25,15.25,0,0,1,83.991,22.8a15.8,15.8,0,0,1-1.534,2.053,12.507,12.507,0,0,1-1.794,1.691,8.979,8.979,0,0,1-1.911,1.131,4.793,4.793,0,0,1-1.885.416,3.858,3.858,0,0,1-2.782-1.119,4.766,4.766,0,0,1-1.143-3.379c0-.191.007-.394.025-.612s.043-.445.078-.688a8.885,8.885,0,0,1,.729-2.3,14.826,14.826,0,0,1,1.326-2.3,15.068,15.068,0,0,1,1.78-2.106,13.537,13.537,0,0,1,2.093-1.7A9.6,9.6,0,0,1,81.2,12.79,5.687,5.687,0,0,1,83.419,12.491ZM81.6,19.354a.455.455,0,0,1-.274-.363,2.839,2.839,0,0,1-.065-.638,4.439,4.439,0,0,1,.065-.74c.043-.261.082-.485.117-.677a1.765,1.765,0,0,1,.326-.663A3.733,3.733,0,0,1,82.3,15.7a5.676,5.676,0,0,1,.559-.43,4.483,4.483,0,0,1,.429-.259.784.784,0,0,0-.364-.052,3.592,3.592,0,0,0-1.325.455,7.437,7.437,0,0,0-1.431,1,10.905,10.905,0,0,0-1.3,1.443,14.306,14.306,0,0,0-1.079,1.651,12.81,12.81,0,0,0-.805,1.7,7.257,7.257,0,0,0-.43,1.573,3.025,3.025,0,0,0,.078,1.65,1.154,1.154,0,0,0,1.118.716,2.592,2.592,0,0,0,1.3-.325,6.17,6.17,0,0,0,1.326-.949,11.027,11.027,0,0,0,1.261-1.391,14.2,14.2,0,0,0,1.1-1.664,13.675,13.675,0,0,0,.832-1.729,7.251,7.251,0,0,0,.443-1.586l.051-.13a.949.949,0,0,0-.481.169,3.257,3.257,0,0,0-.52.4,3.786,3.786,0,0,0-.442.494,1.9,1.9,0,0,0-.272.468Z" style="fill: #00d4ff"/>
        <path d="M100.943,22.449q-.495.675-1.3,1.638a22.349,22.349,0,0,1-1.768,1.872,13.177,13.177,0,0,1-1.963,1.547,3.553,3.553,0,0,1-1.885.636,2.809,2.809,0,0,1-1.04-.194,1.822,1.822,0,0,1-.806-.611,2.5,2.5,0,0,1-.429-1.079,4.275,4.275,0,0,1,.066-1.574,13.332,13.332,0,0,1,.455-1.533,16.449,16.449,0,0,1,.675-1.587q.4-.83.923-1.806t1.2-2.2a8.044,8.044,0,0,0,.506-.974,3.664,3.664,0,0,0,.247-.741l-1.248,1.066q-1.092.909-2.015,1.819t-1.885,2a34.819,34.819,0,0,0-1.586,3.288,24.676,24.676,0,0,0-1.144,3.394q-.1.285-.545.26a2.6,2.6,0,0,1-.924-.247,3.367,3.367,0,0,1-.858-.559.848.848,0,0,1-.351-.676,17.994,17.994,0,0,1,.611-2.275q.376-1.105.845-2.184t1-2.133q.533-1.052,1.079-2.118.624-1.248,1.223-2.431t1.065-2.275a1.015,1.015,0,0,1,.768-.014,2.934,2.934,0,0,1,.87.456,3.231,3.231,0,0,1,.728.767,2.3,2.3,0,0,1,.39.948,15.31,15.31,0,0,1,2.263-1.586,5.353,5.353,0,0,1,2.288-.727,1.053,1.053,0,0,1,.714.325,3.16,3.16,0,0,1,.611.793,2.9,2.9,0,0,1,.338,1.014,1.751,1.751,0,0,1-.1.962q-.676,1.324-1.326,2.483t-1.118,1.988q-.416.73-.767,1.34t-.624,1.209q-.272.6-.494,1.222t-.4,1.351a.6.6,0,0,1,.182-.155h-.026A11.106,11.106,0,0,0,97.3,23.827,15.746,15.746,0,0,0,99.7,21.279q.338-.416.637-.807c.2-.259.4-.519.585-.779l.494-.755c.07-.086.2-.107.39-.064a1.43,1.43,0,0,1,.533.247,1.4,1.4,0,0,1,.39.429.34.34,0,0,1-.013.428l.026-.051-1.768,2.5Z" style="fill: #00d4ff"/>
        <path d="M106.351,12.673a1.04,1.04,0,0,1,.91.065,2.6,2.6,0,0,1,.91.728,2.811,2.811,0,0,1,.546,1.118,1.639,1.639,0,0,1-.182,1.235c.034-.035.017,0-.051.1s-.166.243-.287.416-.26.373-.416.6-.3.434-.416.624q-.468.678-1.027,1.5T105.22,20.72q-.56.845-1.066,1.651T103.3,23.8a9.949,9.949,0,0,0-.507,1c-.1.252-.1.377,0,.377h.182a5.717,5.717,0,0,0,1.639-.845A12.3,12.3,0,0,0,106.156,23q.742-.755,1.443-1.6t1.352-1.625l.468-.624a.373.373,0,0,1,.416-.064,1.293,1.293,0,0,1,.482.311,1.434,1.434,0,0,1,.324.5.423.423,0,0,1-.052.455l.026-.052q-1.3,1.69-2.912,3.431a31.06,31.06,0,0,1-3.25,3.069c-.174.121-.385.264-.636.429a6.805,6.805,0,0,1-.82.455,6.506,6.506,0,0,1-.936.351,3.462,3.462,0,0,1-.962.143,1.4,1.4,0,0,1-1.364-.793,3.3,3.3,0,0,1-.169-1.911,8.721,8.721,0,0,1,.571-1.768l-.026.025a25,25,0,0,1,1.5-3.015q.974-1.718,2.014-3.432L104.934,15q.637-1.105,1.079-2.015ZM110.3,4.717a.949.949,0,0,1,.741.351A6.117,6.117,0,0,1,111.85,6a6.862,6.862,0,0,1,.624,1.066,1.405,1.405,0,0,1,.195.767,7.8,7.8,0,0,1-.637,1.326q-.351.572-.714,1.17t-.742,1.221a12.438,12.438,0,0,0-.741,1.457,1.694,1.694,0,0,1-.663-.377,4.072,4.072,0,0,1-.637-.689,3.763,3.763,0,0,1-.455-.807,1.286,1.286,0,0,1-.117-.7c.087-.345.2-.727.352-1.143s.315-.849.506-1.3.372-.91.546-1.378a12.048,12.048,0,0,0,.416-1.352Z" style="fill: #00d4ff"/>
        <path d="M122.184,17.067a.34.34,0,0,1-.2.246,1.259,1.259,0,0,1-.4.131,2.918,2.918,0,0,1-.481.039,1.081,1.081,0,0,1-.429-.078,4.033,4.033,0,0,1,.676.546,3.077,3.077,0,0,1,.52.688,2.41,2.41,0,0,1,.273.768,1.336,1.336,0,0,1-.091.754c-.069.121-.148.256-.235.4s-.172.3-.259.455q-.287.495-.585,1.067t-.559,1.118q-.261.546-.455,1.026a3.793,3.793,0,0,0-.247.82.088.088,0,0,1-.039.078.41.41,0,0,0-.065.052h.182a4.729,4.729,0,0,0,1.508-.858,12.987,12.987,0,0,0,1.417-1.365q.689-.766,1.326-1.638t1.209-1.678a2.506,2.506,0,0,0,.312-.363c.069-.1.138-.217.208-.339.069-.086.2-.107.39-.064a1.547,1.547,0,0,1,.546.247,1.512,1.512,0,0,1,.416.429.331.331,0,0,1,0,.428l-.754,1.04v.027q-1.119,1.533-2.327,3.029a17.916,17.916,0,0,1-2.691,2.69,6.605,6.605,0,0,1-.585.456,6.423,6.423,0,0,1-.781.467,5.089,5.089,0,0,1-.922.365,3.113,3.113,0,0,1-1.014.117,2.167,2.167,0,0,1-1.755-.884,2.9,2.9,0,0,1-.377-1.95,18.454,18.454,0,0,1-2.366,1.885,4.378,4.378,0,0,1-2.288.819,3.023,3.023,0,0,1-1.573-.56,2.872,2.872,0,0,1-.872-1.078,3.674,3.674,0,0,1-.324-1.34,7.61,7.61,0,0,1,.038-1.339,6.158,6.158,0,0,1,.235-.935,10.55,10.55,0,0,1,.858-2.107,18.506,18.506,0,0,1,1.43-2.288,23.133,23.133,0,0,1,1.833-2.21,16.125,16.125,0,0,1,2.119-1.9,11.119,11.119,0,0,1,2.274-1.326,5.831,5.831,0,0,1,2.3-.494,4.028,4.028,0,0,1,.65.051,6.362,6.362,0,0,1,.676.157,1.836,1.836,0,0,1,.949.663A2.683,2.683,0,0,1,122.3,14.4a5.353,5.353,0,0,1,.078,1.3A8.1,8.1,0,0,1,122.184,17.067Zm-3.042,0a.9.9,0,0,1,.611-.053,2.611,2.611,0,0,1,.715.287.263.263,0,0,1-.078-.287.408.408,0,0,0,.012-.181.584.584,0,0,1,.014-.208c.017-.173.026-.356.026-.546a1.73,1.73,0,0,0-.079-.533.862.862,0,0,0-.259-.4.85.85,0,0,0-.494-.181,3.283,3.283,0,0,0-1.976.689,10.726,10.726,0,0,0-1.95,1.807,18.258,18.258,0,0,0-1.7,2.34,18.606,18.606,0,0,0-1.209,2.261,6.032,6.032,0,0,0-.26.715,5.008,5.008,0,0,0-.182.846,3.026,3.026,0,0,0-.053.546.793.793,0,0,0,.118.441.535.535,0,0,0,.351.235,1.494,1.494,0,0,0,.65-.052,2.914,2.914,0,0,0,.988-.6q.6-.494,1.261-1.157t1.3-1.417q.638-.755,1.08-1.353.388-.778.714-1.52a8.1,8.1,0,0,0,.455-1.261Z" style="fill: #00d4ff"/>
        <path d="M134.015,13.817q-.312.494-.859,1.352t-1.182,1.911q-.637,1.053-1.314,2.21t-1.248,2.236q-.571,1.079-.962,1.988a6.19,6.19,0,0,0-.467,1.457.238.238,0,0,0-.052.129.107.107,0,0,1-.027.079h.182a4.965,4.965,0,0,0,1.482-.845,12.5,12.5,0,0,0,1.405-1.326,20.209,20.209,0,0,0,1.3-1.586q.624-.846,1.2-1.652h-.026c.1-.155.216-.306.337-.454s.235-.291.338-.429c.07-.1.191-.13.365-.079a1.708,1.708,0,0,1,.506.261,1.391,1.391,0,0,1,.39.429.412.412,0,0,1,.039.429l-.857,1.169q-1.067,1.484-2.3,3a19.047,19.047,0,0,1-2.613,2.665,6.141,6.141,0,0,1-1.405.911,6.493,6.493,0,0,1-.935.351,3.557,3.557,0,0,1-.989.143,1.73,1.73,0,0,1-.936-.286,1.7,1.7,0,0,1-.559-.689,2.851,2.851,0,0,1-.234-.988,5.682,5.682,0,0,1,.065-1.235c.035-.191.079-.394.13-.611a4.266,4.266,0,0,1,.182-.585,24.536,24.536,0,0,1,2.172-5.057q1.391-2.457,2.873-4.849l1.4-2.185q.6-.987,1.184-2.014t1.117-2.015q.532-.988.988-1.911t.768-1.7a1.158,1.158,0,0,1,.974.013,2.868,2.868,0,0,1,1.014.689,3.147,3.147,0,0,1,.69,1.079,1.553,1.553,0,0,1,0,1.183c-.123.259-.326.633-.612,1.118s-.615,1.031-.988,1.638-.763,1.235-1.17,1.884-.793,1.262-1.156,1.833Z" style="fill: #00d4ff"/>
      </g>
      <path d="M0,44.2s4.906-9.527,21.947-10.536c18-1.065,70.266,6.348,84.667,6.7,7.008.171,17.969-1.163,22.244-3.08-3.521,2.232-15.907,7.059-28.611,7.1-16.237.059-66.532-4.762-75.146-4.731C13.455,39.7,4.738,41.892,0,44.2Z" style="fill: #eceee3"/>
    </g>
  </g>
</svg>
