<svg xmlns="http://www.w3.org/2000/svg" viewBox="0 0 337.06 82.03">
<title>welcome to</title>
  <defs>
    
    <mask id="mask-w">
      <path class="mask" id="w-2" d="M6,41S26,6,60,9C51,27,13,71,24,75c15,6,60.5-60.5,60.5-60.5S39,75,46,76,89,50,119,6" stroke-linecap="round" stroke-linejoin="round" stroke-width="12"/>
    </mask>
      
    
  </defs>

    <path mask="url(#mask-w)" id="W" d="M79.57,12.29a2.18,2.18,0,0,1,1.67-.79,3.56,3.56,0,0,1,1.86.56,7.25,7.25,0,0,1,1.73,1.5,9.15,9.15,0,0,1,1.34,2,7.52,7.52,0,0,1,.69,2.19,3.1,3.1,0,0,1-.29,2q-2.23,3.87-5.2,8.44T75.09,37.6q-3.3,4.83-6.64,9.61t-6.28,9c-1.61,2.31-3.13,4.47-4.54,6.47s-2.65,3.78-3.7,5.3-1.87,2.78-2.48,3.76a10.21,10.21,0,0,0-1,1.74l.06.06a134.32,134.32,0,0,0,12.36-8.8q6.21-4.94,12.26-10.59t11.78-11.9Q92.64,36,97.75,29.45t9.45-13.14A136.37,136.37,0,0,0,114.82,3.2c.35-.48.87-.49,1.57,0a9.39,9.39,0,0,1,2.06,2,12.24,12.24,0,0,1,1.63,2.68,2.75,2.75,0,0,1,.3,2.12,103.11,103.11,0,0,1-6.22,9.58q-3.8,5.26-8.53,10.93T95.49,41.91q-5.38,5.82-10.95,11.25T73.49,63.4Q68,68.2,63.09,71.83a76.65,76.65,0,0,1-9,5.82,19.16,19.16,0,0,1-6.74,2.46,5.25,5.25,0,0,1-2.45-.76A6.12,6.12,0,0,1,43,77.52,8.5,8.5,0,0,1,41.83,75a6.19,6.19,0,0,1-.06-3l1.31-2.62A63.38,63.38,0,0,1,36.24,75a18.72,18.72,0,0,1-5.85,3l.06-.06a15.35,15.35,0,0,1-3.53.46A7.49,7.49,0,0,1,23,77.49,6.21,6.21,0,0,1,20.68,75a9.47,9.47,0,0,1-1-3.6,16.59,16.59,0,0,1,.2-4.35,16.78,16.78,0,0,1,.36-1.9c.15-.61.34-1.22.55-1.83.79-2,1.82-4.27,3.11-6.8s2.77-5.2,4.45-8,3.52-5.73,5.52-8.76,4.11-6.11,6.32-9.22,4.45-6.21,6.76-9.26,4.62-6,6.94-8.89a43.33,43.33,0,0,0-9.55,2.22A61.65,61.65,0,0,0,35,18.83a67.27,67.27,0,0,0-8.54,5.56,65.54,65.54,0,0,0-7.09,6.21,38.19,38.19,0,0,0-5,6.18,13.23,13.23,0,0,0-2.19,5.52l-.46.92c-.3.35-.89.42-1.76.2A6.87,6.87,0,0,1,7.3,42a7.54,7.54,0,0,1-2.09-2.65,4.84,4.84,0,0,1-.13-3.69A37.66,37.66,0,0,1,10.83,26a54.31,54.31,0,0,1,8-7.88A62.15,62.15,0,0,1,28,12a73.15,73.15,0,0,1,9.61-4.38A64,64,0,0,1,46.7,5a39.91,39.91,0,0,1,7.69-.88H56a7.86,7.86,0,0,1,1.44.13,5.35,5.35,0,0,1,2.39,1,9.13,9.13,0,0,1,2,2,9.54,9.54,0,0,1,1.31,2.45,4.38,4.38,0,0,1,.26,2.32,11.84,11.84,0,0,1-1.08,2.29c-.58,1-1.36,2.3-2.32,3.76S58,21.21,56.78,23,54.32,26.57,53,28.44q-2.43,3.47-5.11,7.33t-5.29,7.78c-1.75,2.61-3.41,5.2-5,7.75s-3,5-4.31,7.22-2.36,4.35-3.21,6.25a20.63,20.63,0,0,0-1.6,4.81,2.27,2.27,0,0,0,.36,1.89c.37.44,1.06.55,2.06.33a16.62,16.62,0,0,0,5.4-3,60.92,60.92,0,0,0,6.31-5.72q3.27-3.37,6.64-7.33t6.4-7.84q3-3.9,5.6-7.33c1.7-2.29,3.09-4.19,4.18-5.72l.26-.26q3.15-4.52,6.18-9.16t6.05-9.68a2,2,0,0,1,.2-.42c.13-.24.26-.5.39-.79s.26-.54.39-.78a1.38,1.38,0,0,0,.2-.49Z"/>

</svg>
