<svg xmlns="http://www.w3.org/2000/svg" viewBox="0 0 874.85 668.67"><defs><style>.cls-1{fill:#fffdfd;}.cls-2{fill:#fff;}</style></defs><title>Asset 9</title><g id="Layer_2" data-name="Layer 2"><g id="Layer_2-2" data-name="Layer 2"><path class="cls-1" d="M162.92,9.46a2.23,2.23,0,0,1,1.67-.79,3.56,3.56,0,0,1,1.86.56,7.48,7.48,0,0,1,1.74,1.5,9.77,9.77,0,0,1,1.34,2,7.81,7.81,0,0,1,.68,2.19,3.1,3.1,0,0,1-.29,2q-2.22,3.87-5.2,8.44t-6.28,9.42q-3.3,4.84-6.64,9.61t-6.27,9c-1.62,2.31-3.13,4.47-4.55,6.48s-2.65,3.77-3.7,5.29-1.87,2.78-2.48,3.76a11.08,11.08,0,0,0-1,1.74l.06.06a136.1,136.1,0,0,0,12.36-8.79q6.22-5,12.27-10.6t11.77-11.9Q176,33.14,181.1,26.63t9.45-13.15A135.16,135.16,0,0,0,198.17.37c.35-.48.87-.49,1.57,0a8.89,8.89,0,0,1,2.06,2A12.29,12.29,0,0,1,203.44,5a2.73,2.73,0,0,1,.29,2.12,100.85,100.85,0,0,1-6.21,9.59Q193.73,22,189,27.61T178.85,39.08q-5.4,5.84-11,11.25t-11,10.24q-5.49,4.8-10.4,8.43a78.18,78.18,0,0,1-9,5.83,19.07,19.07,0,0,1-6.73,2.45,5.36,5.36,0,0,1-2.46-.75,6.26,6.26,0,0,1-1.93-1.84,8.48,8.48,0,0,1-1.17-2.55,6.06,6.06,0,0,1-.07-3l1.31-2.62a61.3,61.3,0,0,1-6.84,5.66,18.51,18.51,0,0,1-5.85,3l.07-.06a15.5,15.5,0,0,1-3.54.46,7.54,7.54,0,0,1-3.89-.92A6.21,6.21,0,0,1,104,72.21a9.42,9.42,0,0,1-1-3.6,16.15,16.15,0,0,1,.19-4.35,18.59,18.59,0,0,1,.36-1.89,18.25,18.25,0,0,1,.56-1.83c.78-2,1.82-4.28,3.1-6.81s2.77-5.2,4.45-8S115.2,40,117.21,37s4.11-6.1,6.31-9.22,4.46-6.2,6.77-9.26,4.62-6,6.93-8.89a43.46,43.46,0,0,0-9.55,2.22A62.1,62.1,0,0,0,118.32,16a69.13,69.13,0,0,0-8.54,5.56,66.51,66.51,0,0,0-7.09,6.21,37.57,37.57,0,0,0-5,6.18,13.25,13.25,0,0,0-2.2,5.53l-.45.91c-.31.35-.9.42-1.77.2a7,7,0,0,1-2.61-1.37,7.65,7.65,0,0,1-2.1-2.65,4.92,4.92,0,0,1-.13-3.7,37.41,37.41,0,0,1,5.76-9.68,53.76,53.76,0,0,1,7.94-7.88,62.68,62.68,0,0,1,9.22-6.15A73.26,73.26,0,0,1,121,4.78a63.93,63.93,0,0,1,9.09-2.61,39.13,39.13,0,0,1,7.68-.89h1.64a8,8,0,0,1,1.44.13,5.47,5.47,0,0,1,2.38,1.05,9.17,9.17,0,0,1,2,2,10.2,10.2,0,0,1,1.31,2.45,4.49,4.49,0,0,1,.26,2.32,11.84,11.84,0,0,1-1.08,2.29q-.88,1.57-2.32,3.76c-1,1.46-2,3.08-3.24,4.84s-2.45,3.59-3.76,5.46l-5.1,7.33q-2.69,3.86-5.3,7.78t-5,7.75q-2.39,3.83-4.32,7.23c-1.29,2.26-2.35,4.34-3.2,6.24a20.72,20.72,0,0,0-1.61,4.81,2.26,2.26,0,0,0,.36,1.89c.37.44,1.06.55,2.06.33a16.43,16.43,0,0,0,5.4-3A59.91,59.91,0,0,0,126,60.24c2.18-2.24,4.39-4.69,6.64-7.32S137,47.66,139,45.07s3.89-5,5.59-7.33,3.09-4.19,4.18-5.72l.27-.26q3.13-4.52,6.18-9.16t6-9.68a1.69,1.69,0,0,1,.19-.42c.13-.24.26-.5.39-.79s.27-.54.4-.78a1.29,1.29,0,0,0,.19-.49Z"/><path class="cls-1" d="M201.11,40.33A38.5,38.5,0,0,1,180.45,56a8.75,8.75,0,0,0,.23,3.33,2.42,2.42,0,0,0,1.93,1.9l-.13-.07a5.72,5.72,0,0,0,3-.19,15.64,15.64,0,0,0,3.92-1.87,31.54,31.54,0,0,0,4.48-3.5,43.84,43.84,0,0,0,4.71-5.1c.83-1,1.62-2.12,2.39-3.23s1.49-2.17,2.19-3.18a2.32,2.32,0,0,1,1.6-.91,2.12,2.12,0,0,1,1.5.42,2.19,2.19,0,0,1,.79,1.38,2.67,2.67,0,0,1-.62,2l-1.64,2.36q-2.09,2.94-5.07,6.5a61.79,61.79,0,0,1-6.77,6.9,22.22,22.22,0,0,1-4.31,2.85,23.15,23.15,0,0,1-3.86,1.5,15.62,15.62,0,0,1-3.17.59c-.94.07-1.67.1-2.19.1-3.4,0-5.86-1-7.36-2.94s-2-4.65-1.6-8.05a25.75,25.75,0,0,1,2.84-8.7,56.39,56.39,0,0,1,6.38-9.22,38.08,38.08,0,0,1,3.6-3.5,36.15,36.15,0,0,1,4.7-3.43,27.42,27.42,0,0,1,5.33-2.55,15,15,0,0,1,5.33-.92,5.08,5.08,0,0,1,4.06,1.8,5.67,5.67,0,0,1,.85,4.68,9.61,9.61,0,0,1-.82,2.65,16.4,16.4,0,0,1-1.73,2.84ZM197.71,35a12,12,0,0,0-4.64,2.1,26.82,26.82,0,0,0-4.32,3.86A40.87,40.87,0,0,0,185,45.66a43.47,43.47,0,0,0-2.82,4.74,34.22,34.22,0,0,0,8.64-5.14,30.93,30.93,0,0,0,6.8-7.75v.07a3.54,3.54,0,0,0,.55-1c.11-.34.21-.65.3-.91C198.59,35,198.32,34.79,197.71,35Z"/><path class="cls-1" d="M220.6,31.56c-.52.83-1.24,2-2.16,3.4s-1.9,3-3,4.81-2.17,3.62-3.3,5.56S210,49.15,209,51s-1.77,3.48-2.42,5a15.14,15.14,0,0,0-1.18,3.66.61.61,0,0,0-.13.33.24.24,0,0,1-.07.19h.46A12.28,12.28,0,0,0,209.42,58,31.44,31.44,0,0,0,213,54.68a50.44,50.44,0,0,0,3.27-4c1.05-1.41,2.05-2.8,3-4.15h-.07c.27-.39.55-.77.85-1.14s.59-.73.85-1.08.48-.33.92-.2a4.3,4.3,0,0,1,1.28.65,3.71,3.71,0,0,1,1,1.08,1,1,0,0,1,.09,1.08l-2.15,3q-2.68,3.72-5.79,7.55a48,48,0,0,1-6.57,6.7,16.68,16.68,0,0,1-1.51,1.15,15,15,0,0,1-2,1.14,15.62,15.62,0,0,1-2.35.88,8.93,8.93,0,0,1-2.49.36,4,4,0,0,1-3.76-2.45,7.23,7.23,0,0,1-.58-2.48,14.07,14.07,0,0,1,.16-3.11c.09-.48.2-1,.33-1.54a11.66,11.66,0,0,1,.45-1.47,62.08,62.08,0,0,1,5.46-12.72q3.51-6.18,7.23-12.2l3.53-5.49q1.51-2.49,3-5.07t2.81-5.07q1.34-2.47,2.49-4.8T224.27,7a2.91,2.91,0,0,1,2.45,0,7.31,7.31,0,0,1,2.55,1.73A7.9,7.9,0,0,1,231,11.45a3.94,3.94,0,0,1,0,3c-.3.65-.82,1.59-1.54,2.81s-1.54,2.6-2.48,4.12-1.92,3.11-2.94,4.74l-2.91,4.61Z"/><path class="cls-1" d="M249.44,49.29q-2.08,2.94-5.06,6.5a63.59,63.59,0,0,1-6.77,6.9,22.57,22.57,0,0,1-4.32,2.85,23.15,23.15,0,0,1-3.86,1.5,15.62,15.62,0,0,1-3.17.59c-.94.07-1.67.1-2.19.1q-5.1,0-7.36-2.94c-1.5-2-2-4.65-1.6-8.05A25.75,25.75,0,0,1,218,48a56.39,56.39,0,0,1,6.38-9.22,38.08,38.08,0,0,1,3.6-3.5,37,37,0,0,1,4.71-3.43A27.15,27.15,0,0,1,238,29.34a15,15,0,0,1,5.33-.92,5,5,0,0,1,4,1.8,5.54,5.54,0,0,1,.82,4.55A11.72,11.72,0,0,1,245.78,40a3,3,0,0,1-1.6,1,1.66,1.66,0,0,1-1.37-.23,2.06,2.06,0,0,1-.79-1.24,3.33,3.33,0,0,1,.16-2,4.38,4.38,0,0,0,.92-2.09A.52.52,0,0,0,243,35c-.11-.11-.34-.12-.68,0a12.41,12.41,0,0,0-5.2,2.55,32.93,32.93,0,0,0-4.81,4.65,40,40,0,0,0-3.92,5.46,35.1,35.1,0,0,0-2.56,5l-.71,2.62a14.15,14.15,0,0,0-.14,1.93,6.57,6.57,0,0,0,.23,1.76,4.24,4.24,0,0,0,.72,1.44,2.25,2.25,0,0,0,1.28.82l-.13-.07a5.72,5.72,0,0,0,3-.19A15.64,15.64,0,0,0,234,59.06a31.54,31.54,0,0,0,4.48-3.5,43.84,43.84,0,0,0,4.71-5.1c.83-1,1.62-2.12,2.39-3.23s1.49-2.17,2.19-3.18a2.34,2.34,0,0,1,1.63-.91,2.4,2.4,0,0,1,1.57.39,1.9,1.9,0,0,1,.79,1.34,3,3,0,0,1-.72,2.06Z"/><path class="cls-1" d="M270,28.23a5.44,5.44,0,0,1,3.82,2.55,9.77,9.77,0,0,1,1.35,4.58,5.71,5.71,0,0,1,.91,2.22,15.38,15.38,0,0,1,.26,2.94,5.45,5.45,0,0,0-.16,1,12.08,12.08,0,0,1-.16,1.24,26,26,0,0,1-1.67,5.72,38.48,38.48,0,0,1-2.91,5.63,40.63,40.63,0,0,1-3.86,5.17,31.89,31.89,0,0,1-4.51,4.25,22.63,22.63,0,0,1-4.81,2.84,12.05,12.05,0,0,1-4.74,1,9.73,9.73,0,0,1-7-2.81c-1.83-1.84-2.79-4.67-2.88-8.51,0-.48,0-1,.07-1.53s.11-1.13.19-1.74a22.46,22.46,0,0,1,1.84-5.78,36.65,36.65,0,0,1,3.33-5.79,37.89,37.89,0,0,1,4.48-5.3,33.62,33.62,0,0,1,5.27-4.28A23.94,23.94,0,0,1,264.39,29,14.36,14.36,0,0,1,270,28.23ZM265.4,45.49a1.15,1.15,0,0,1-.69-.91,7.23,7.23,0,0,1-.16-1.6,11.34,11.34,0,0,1,.16-1.87c.11-.65.21-1.22.3-1.7a4.4,4.4,0,0,1,.82-1.67,9.17,9.17,0,0,1,1.34-1.43,13.58,13.58,0,0,1,1.4-1.08,10.58,10.58,0,0,1,1.08-.66,1.91,1.91,0,0,0-.91-.13,9,9,0,0,0-3.34,1.15,19,19,0,0,0-3.6,2.51,28.52,28.52,0,0,0-3.27,3.63,37.52,37.52,0,0,0-2.71,4.16,32.46,32.46,0,0,0-2,4.28,19.06,19.06,0,0,0-1.08,4,7.6,7.6,0,0,0,.2,4.15,2.91,2.91,0,0,0,2.81,1.8,6.5,6.5,0,0,0,3.27-.82,15.46,15.46,0,0,0,3.34-2.39,28,28,0,0,0,3.17-3.5,36.53,36.53,0,0,0,2.78-4.18,34.43,34.43,0,0,0,2.09-4.35,17.52,17.52,0,0,0,1.11-4l.13-.33a2.34,2.34,0,0,0-1.21.43,8.13,8.13,0,0,0-1.3,1A10,10,0,0,0,268,43.2a5.14,5.14,0,0,0-.68,1.18Z"/><path class="cls-1" d="M326.55,53.28q-1.24,1.69-3.27,4.12a57,57,0,0,1-4.42,4.7,30.77,30.77,0,0,1-4.93,3.9,9.17,9.17,0,0,1-4.78,1.6,7,7,0,0,1-2.61-.49,4.58,4.58,0,0,1-2-1.54,6.37,6.37,0,0,1-1.08-2.71,10.86,10.86,0,0,1,.16-4A34.88,34.88,0,0,1,304.74,55a42.47,42.47,0,0,1,1.7-4c.67-1.39,1.45-2.91,2.32-4.54s1.87-3.48,3-5.53a19.35,19.35,0,0,0,1.31-2.42,9.49,9.49,0,0,0,.65-1.9l-.85.79c-.48.44-1.24,1.07-2.29,1.9-1.87,1.52-3.59,3-5.13,4.54s-3.11,3.17-4.68,5c-.44.75-.85,1.51-1.24,2.29s-.79,1.6-1.18,2.42v-.13c-1,2-1.81,4-2.55,6.05A50.46,50.46,0,0,0,294,65.77c-.13.52-.57.76-1.31.72a6.85,6.85,0,0,1-2.35-.62,9,9,0,0,1-2.26-1.44,2.19,2.19,0,0,1-.95-1.74A52.93,52.93,0,0,1,290.61,52q2.33-5.17,5.07-10.34c.57-1.13,1.08-2.13,1.54-3a10.32,10.32,0,0,1,1-1.7,25.12,25.12,0,0,0-3.47,2.42c-1.83,1.52-3.52,3-5.06,4.57s-3.13,3.21-4.75,5a85.92,85.92,0,0,0-4,8.27,61.71,61.71,0,0,0-2.88,8.54c-.18.48-.63.69-1.38.65a6.43,6.43,0,0,1-2.32-.62,8.75,8.75,0,0,1-2.16-1.41,2.12,2.12,0,0,1-.88-1.7A45,45,0,0,1,272.89,57q.94-2.78,2.12-5.49t2.52-5.37q1.34-2.64,2.72-5.33c1-2.09,2.07-4.13,3.07-6.11s1.9-3.89,2.68-5.72a2.58,2.58,0,0,1,1.93,0,7.44,7.44,0,0,1,2.19,1.15A8,8,0,0,1,292,32a5.68,5.68,0,0,1,1,2.39,38.75,38.75,0,0,1,5.69-4,13.46,13.46,0,0,1,5.76-1.83,2.56,2.56,0,0,1,1.47.52,5.93,5.93,0,0,1,1.37,1.37,7.69,7.69,0,0,1,1,1.9,7,7,0,0,1,.45,2,35.6,35.6,0,0,1,5.66-4,13.74,13.74,0,0,1,5.85-1.83,2.73,2.73,0,0,1,1.77.81,7.53,7.53,0,0,1,1.57,2,7.61,7.61,0,0,1,.85,2.58A3.74,3.74,0,0,1,324,36.4v-.06q-1.71,3.6-3.24,6.34t-2.84,5c-.7,1.22-1.33,2.36-1.9,3.4s-1.09,2.07-1.57,3.08a30.56,30.56,0,0,0-1.28,3.07c-.37,1-.7,2.16-1,3.34l.33-.46a25.06,25.06,0,0,0,4.94-3.34,40.41,40.41,0,0,0,6-6.41A28.52,28.52,0,0,0,325.14,48c.55-.8,1.12-1.64,1.74-2.52l1-1.44a2.34,2.34,0,0,1,1.6-.91,2.16,2.16,0,0,1,1.51.42,2.1,2.1,0,0,1,.75,1.38,2.8,2.8,0,0,1-.65,2l-2.26,3.14c-.76,1-1.52,2.09-2.26,3.14Z"/><path class="cls-1" d="M352.77,40.33A38.5,38.5,0,0,1,332.11,56a8.75,8.75,0,0,0,.23,3.33,2.42,2.42,0,0,0,1.93,1.9l-.14-.07a5.75,5.75,0,0,0,3.05-.19,15.81,15.81,0,0,0,3.92-1.87,31.54,31.54,0,0,0,4.48-3.5,43.84,43.84,0,0,0,4.71-5.1c.83-1,1.62-2.12,2.38-3.23l2.2-3.18a2.32,2.32,0,0,1,1.6-.91,2.12,2.12,0,0,1,1.5.42,2.19,2.19,0,0,1,.79,1.38,2.67,2.67,0,0,1-.62,2l-1.64,2.36c-1.4,2-3.08,4.13-5.07,6.5a61.79,61.79,0,0,1-6.77,6.9,22.22,22.22,0,0,1-4.31,2.85,23.15,23.15,0,0,1-3.86,1.5,15.74,15.74,0,0,1-3.17.59c-.94.07-1.67.1-2.19.1-3.4,0-5.86-1-7.36-2.94s-2-4.65-1.6-8.05A25.75,25.75,0,0,1,325,48a56.39,56.39,0,0,1,6.38-9.22,39.11,39.11,0,0,1,3.59-3.5,37,37,0,0,1,4.71-3.43A27.42,27.42,0,0,1,345,29.34a15,15,0,0,1,5.33-.92,5.08,5.08,0,0,1,4.06,1.8,5.67,5.67,0,0,1,.85,4.68,10,10,0,0,1-.82,2.65,16.4,16.4,0,0,1-1.73,2.84ZM349.37,35a11.94,11.94,0,0,0-4.64,2.1,26.82,26.82,0,0,0-4.32,3.86,42.06,42.06,0,0,0-3.73,4.74,43.28,43.28,0,0,0-2.81,4.74,34.22,34.22,0,0,0,8.64-5.14,31.13,31.13,0,0,0,6.8-7.75v.07a3.54,3.54,0,0,0,.55-1c.11-.34.21-.65.3-.91C350.24,35,350,34.79,349.37,35Z"/><path class="cls-1" d="M373.9,31.56a2.37,2.37,0,0,1-1.93,0,1.73,1.73,0,0,1-1-1.14,2.42,2.42,0,0,1,.23-1.67,4,4,0,0,1,1.53-1.63C374.57,26,376.33,25,378.05,24s3.45-1.74,5.2-2.48A124.69,124.69,0,0,0,390.64,7a2.91,2.91,0,0,1,2.45,0,7.14,7.14,0,0,1,2.55,1.73,7.9,7.9,0,0,1,1.73,2.71,3.85,3.85,0,0,1,0,3l-1.89,3.33a49.18,49.18,0,0,1,8.63-.78l1.7,0c.7,0,1.26.06,1.7.1a4.9,4.9,0,0,1-.23,2.13,9,9,0,0,1-1,2.15,8.45,8.45,0,0,1-1.47,1.74,2.47,2.47,0,0,1-1.61.72c-.43-.05-.89-.08-1.37-.1s-1,0-1.44,0a38.5,38.5,0,0,0-4.51.26,43.21,43.21,0,0,0-4.64.78c-.61,1-1.24,2.07-1.87,3.08s-1.25,2-1.86,2.87l-.52.85L384.82,35c-.92,1.44-1.91,3-3,4.81s-2.17,3.62-3.3,5.56-2.18,3.82-3.14,5.62-1.77,3.48-2.42,5a15.6,15.6,0,0,0-1.18,3.66.7.7,0,0,0-.13.33.27.27,0,0,1-.06.19h.45A12.28,12.28,0,0,0,375.79,58a31.44,31.44,0,0,0,3.53-3.34,46.37,46.37,0,0,0,3.27-4c1.05-1.41,2.05-2.8,3-4.15h-.06a13,13,0,0,1,.85-1.14c.3-.37.59-.73.85-1.08s.48-.33.91-.2a4.3,4.3,0,0,1,1.28.65,3.71,3.71,0,0,1,1,1.08,1.05,1.05,0,0,1,.1,1.08l-2.16,3q-2.69,3.72-5.79,7.55a48,48,0,0,1-6.57,6.7,15.4,15.4,0,0,1-3.53,2.29,15.74,15.74,0,0,1-2.36.88,8.86,8.86,0,0,1-2.48.36,4.26,4.26,0,0,1-2.36-.72,4.12,4.12,0,0,1-1.4-1.73,7,7,0,0,1-.59-2.48,14.07,14.07,0,0,1,.16-3.11c.09-.48.2-1,.33-1.54a10.19,10.19,0,0,1,.46-1.47,56.91,56.91,0,0,1,2.55-6.67q1.5-3.33,3.27-6.6c1.17-2.18,2.41-4.34,3.69-6.48s2.59-4.23,3.89-6.28l.85-1.31-4.38,2.23Z"/><path class="cls-1" d="M409.34,28.23a5.46,5.46,0,0,1,3.83,2.55,9.88,9.88,0,0,1,1.34,4.58,5.71,5.71,0,0,1,.91,2.22,14.57,14.57,0,0,1,.27,2.94,5.47,5.47,0,0,0-.17,1,9.81,9.81,0,0,1-.16,1.24,25.47,25.47,0,0,1-1.67,5.72,38.48,38.48,0,0,1-2.91,5.63,39.7,39.7,0,0,1-3.86,5.17,31.89,31.89,0,0,1-4.51,4.25,22.38,22.38,0,0,1-4.81,2.84,12,12,0,0,1-4.74,1,9.76,9.76,0,0,1-7-2.81C384,62.82,383.07,60,383,56.15q0-.72.06-1.53c0-.55.11-1.13.2-1.74a22,22,0,0,1,1.83-5.78,37.44,37.44,0,0,1,3.33-5.79,38.58,38.58,0,0,1,4.48-5.3,34.09,34.09,0,0,1,5.27-4.28A23.94,23.94,0,0,1,403.75,29,14.39,14.39,0,0,1,409.34,28.23Zm-4.58,17.26a1.14,1.14,0,0,1-.68-.91,7.2,7.2,0,0,1-.17-1.6,11.39,11.39,0,0,1,.17-1.87c.11-.65.2-1.22.29-1.7a4.4,4.4,0,0,1,.82-1.67,9.17,9.17,0,0,1,1.34-1.43,12.65,12.65,0,0,1,1.41-1.08,8.76,8.76,0,0,1,1.08-.66,2,2,0,0,0-.92-.13,9.09,9.09,0,0,0-3.34,1.15,18.6,18.6,0,0,0-3.59,2.51,27.08,27.08,0,0,0-3.27,3.63,36.22,36.22,0,0,0-2.72,4.16,32.37,32.37,0,0,0-2,4.28,17.89,17.89,0,0,0-1.08,4,7.61,7.61,0,0,0,.19,4.15,2.92,2.92,0,0,0,2.82,1.8,6.49,6.49,0,0,0,3.26-.82,15.22,15.22,0,0,0,3.34-2.39,27.21,27.21,0,0,0,3.17-3.5,35.26,35.26,0,0,0,2.78-4.18,33.11,33.11,0,0,0,2.09-4.35,18.11,18.11,0,0,0,1.12-4l.13-.33a2.34,2.34,0,0,0-1.21.43,7.77,7.77,0,0,0-1.31,1,9.14,9.14,0,0,0-1.11,1.24,4.87,4.87,0,0,0-.69,1.18Z"/><path class="cls-1" d="M130.87,237q-4,5-7.69,5.8a8.94,8.94,0,0,1-6.8-1.1,14.64,14.64,0,0,1-5.19-5.9,31.15,31.15,0,0,1-3-8.59,27.83,27.83,0,0,1-.3-9.09,15,15,0,0,1,3.2-7.69,168.35,168.35,0,0,1,18.78-27.28,252.72,252.72,0,0,1,23.78-24.68,315.61,315.61,0,0,1,26.58-21.58q13.78-10,27.18-17.79t25.47-13.29a171.61,171.61,0,0,1,21.49-8.29,25.3,25.3,0,0,1,8-1.4,17,17,0,0,1,9.89,2.7,15.72,15.72,0,0,1,5.7,7.09,23.53,23.53,0,0,1,1.59,9.9,40.84,40.84,0,0,1-2,11.09l.2-.2q-5,15.78-13.09,34.87t-18.59,39.86q-10.48,20.79-23.18,42.47t-26.77,42.56q-14.1,20.88-29.38,40.07a456.78,456.78,0,0,1-31,35.17,274.78,274.78,0,0,1-31.48,27.77,135.37,135.37,0,0,1-31,17.79A64.45,64.45,0,0,1,62.43,410q-6.49,1.1-12.29,1.5-15.8,1-26.18-4.2A39.58,39.58,0,0,1,7.88,393.17a49,49,0,0,1-7.2-20.38A82.64,82.64,0,0,1,1,349.51a126.82,126.82,0,0,1,11.59-35,131.42,131.42,0,0,1,21.48-31.28,107.58,107.58,0,0,1,29.48-22.48,76.7,76.7,0,0,1,35.77-8.59,47,47,0,0,1,12.19,1.6,29,29,0,0,1,10.39,5,21.73,21.73,0,0,1,6.69,8.59,23.29,23.29,0,0,1,1.5,12.19,27.79,27.79,0,0,1-3.2,6.39,61.09,61.09,0,0,1-5.59,7.7,23.84,23.84,0,0,1-5.7,5.09c-1.79,1.07-3,.54-3.49-1.6a18.67,18.67,0,0,0-.9-8.09,14.74,14.74,0,0,0-3.8-5.8,16.81,16.81,0,0,0-6-3.49,22.39,22.39,0,0,0-7.3-1.2,60.68,60.68,0,0,0-18.18,2.8,76.31,76.31,0,0,0-17.19,7.79A88.81,88.81,0,0,0,43.45,301,102.73,102.73,0,0,0,21.26,332,66.93,66.93,0,0,0,16,348.91a46.9,46.9,0,0,0,.2,15.59,34.39,34.39,0,0,0,5.89,14.08,32.93,32.93,0,0,0,12.19,10.2q7.7,3.89,18.89,3.89,12.58-1.6,26.47-10.59a171.31,171.31,0,0,0,28.08-23.28,340.77,340.77,0,0,0,28.48-33q14.28-18.69,27.87-39.57t26.28-43Q203,221.22,213.9,200t19.68-40.47q8.79-19.29,14.79-34.47c.13-.27.27-.57.4-.9s.27-.63.4-.9a8,8,0,0,1,.4-1,154.5,154.5,0,0,0-19.08,11q-11.3,7.4-23.88,17.19t-25.38,21.28q-12.79,11.49-23.38,23.08A188.13,188.13,0,0,0,140,217.42q-7.29,11-9.09,19.78Z"/><path class="cls-1" d="M308.72,232.61a117.83,117.83,0,0,1-63.15,47.76,27.11,27.11,0,0,0,.7,10.19,7.42,7.42,0,0,0,5.9,5.79l-.4-.2c2.53.67,5.62.47,9.29-.6a48,48,0,0,0,12-5.69,98.51,98.51,0,0,0,13.69-10.69,138.19,138.19,0,0,0,14.38-15.59q3.79-4.8,7.3-9.89t6.69-9.69a7.1,7.1,0,0,1,4.9-2.8,6.37,6.37,0,0,1,4.59,1.3,6.65,6.65,0,0,1,2.4,4.2c.33,1.79-.3,3.83-1.9,6.09l-5,7.19q-6.41,9-15.49,19.89A192.18,192.18,0,0,1,283.94,301a66.78,66.78,0,0,1-13.19,8.69,70.76,70.76,0,0,1-11.79,4.6,49.61,49.61,0,0,1-9.69,1.8q-4.31.3-6.7.3-15.58,0-22.48-9t-4.89-24.58a78.3,78.3,0,0,1,8.69-26.57q6.9-13,19.48-28.18a114.65,114.65,0,0,1,11-10.69,111.4,111.4,0,0,1,14.39-10.49A84.21,84.21,0,0,1,285,199a45.36,45.36,0,0,1,16.28-2.8c5.47.13,9.6,2,12.39,5.49s3.67,8.3,2.6,14.29a29.4,29.4,0,0,1-2.5,8.09,50.55,50.55,0,0,1-5.29,8.7Zm-10.39-16.39a36.48,36.48,0,0,0-14.19,6.4A83.37,83.37,0,0,0,271,234.41a127.09,127.09,0,0,0-11.39,14.48A128.52,128.52,0,0,0,251,263.38a104,104,0,0,0,26.37-15.69A94.54,94.54,0,0,0,298.13,224v.2a10.66,10.66,0,0,0,1.7-3.19c.33-1.07.63-2,.89-2.8Q301.13,215.43,298.33,216.22Z"/><path class="cls-1" d="M370.46,203.23Q355.28,227.82,343,246.8T320.51,281l-5.2,8a31,31,0,0,0,10.59-5.2,91.35,91.35,0,0,0,10.19-8.69,136.24,136.24,0,0,0,9.7-10.59q4.68-5.7,9.29-11.09l-.2.2,7.39-9c.53-.53,1.5-.57,2.9-.1a13,13,0,0,1,3.9,2.1,10.28,10.28,0,0,1,2.79,3.29,2.72,2.72,0,0,1-.2,3.3c-.8,1.07-1.6,2.2-2.39,3.4s-1.54,2.26-2.2,3.19v-.4c-1.74,2.4-3.33,4.64-4.8,6.7s-3,4.13-4.59,6.19-3.3,4.17-5.1,6.3-3.9,4.46-6.3,7-5,4.8-7.69,7.2a73,73,0,0,1-8.59,6.49,61.81,61.81,0,0,1-9.19,4.9,36,36,0,0,1-9.5,2.6l.2,2.39-.2.8a35.87,35.87,0,0,1,.2,6.6q-.19,3.19-.8,7a100.52,100.52,0,0,1-6.59,22.28,124.9,124.9,0,0,1-11.09,21,73.26,73.26,0,0,1-13.49,15.59q-7.19,6.09-13.79,6.1-7.38-.41-10.09-6t-2.1-13.79a.85.85,0,0,0-.1-.4,1.48,1.48,0,0,1-.1-.6,153.74,153.74,0,0,1,7.6-25,270.35,270.35,0,0,1,11.49-25.07q6.49-12.5,13.89-25t15-24.68l7.6-12,23.58-39.77,16.38-26.78q4.61-7.78,9.19-15.68t8.7-15.49q4.1-7.59,7.59-14.59t5.9-13q3-1.59,7.49.1a23.51,23.51,0,0,1,8.09,5.2,22.32,22.32,0,0,1,5.4,8.29,10.58,10.58,0,0,1-.6,9.19l.2-.2a84.73,84.73,0,0,1-4.4,8.3Q393.25,167.06,389,174t-9.09,14.58Q375.06,196.24,370.46,203.23Zm-75.73,125.3q.4-2.2.6-4.2c.13-1.33.27-2.73.4-4.2q-7.59,13-13,24.78a171.87,171.87,0,0,0-9.19,25.38,32.24,32.24,0,0,0,7.29-7.19A61.61,61.61,0,0,0,287,353a87.91,87.91,0,0,0,7.69-24.48Z"/><path class="cls-1" d="M417.42,203.23Q402.24,227.82,390,246.8T367.46,281l-5.19,8a31.12,31.12,0,0,0,10.59-5.2,91.35,91.35,0,0,0,10.19-8.69,134.19,134.19,0,0,0,9.69-10.59q4.69-5.7,9.29-11.09l-.2.2,7.4-9c.53-.53,1.5-.57,2.9-.1a13,13,0,0,1,3.89,2.1,10.19,10.19,0,0,1,2.8,3.29,2.72,2.72,0,0,1-.2,3.3c-.8,1.07-1.6,2.2-2.4,3.4s-1.53,2.26-2.2,3.19v-.4c-1.73,2.4-3.33,4.64-4.79,6.7s-3,4.13-4.6,6.19-3.29,4.17-5.09,6.3-3.9,4.46-6.3,7-5,4.8-7.69,7.2a73.86,73.86,0,0,1-8.59,6.49,61.42,61.42,0,0,1-9.2,4.9,35.79,35.79,0,0,1-9.49,2.6l.2,2.39-.2.8a36.78,36.78,0,0,1,.2,6.6q-.2,3.19-.8,7a101.06,101.06,0,0,1-6.59,22.28,125.63,125.63,0,0,1-11.09,21,73.54,73.54,0,0,1-13.49,15.59q-7.2,6.09-13.79,6.1-7.4-.41-10.09-6t-2.1-13.79a.85.85,0,0,0-.1-.4,1.48,1.48,0,0,1-.1-.6,153.68,153.68,0,0,1,7.59-25,275.68,275.68,0,0,1,11.49-25.07q6.51-12.5,13.89-25t15-24.68l7.59-12,23.58-39.77,16.39-26.78q4.59-7.78,9.19-15.68t8.7-15.49q4.08-7.59,7.59-14.59t5.89-13q3-1.59,7.5.1a23.51,23.51,0,0,1,8.09,5.2,22.32,22.32,0,0,1,5.4,8.29,10.61,10.61,0,0,1-.6,9.19l.2-.2a84.73,84.73,0,0,1-4.4,8.3q-3.19,5.49-7.49,12.39l-9.1,14.58Q422,196.24,417.42,203.23Zm-75.73,125.3q.39-2.2.6-4.2t.39-4.2q-7.59,13-13,24.78a173,173,0,0,0-9.2,25.38,32.06,32.06,0,0,0,7.3-7.19A61.57,61.57,0,0,0,334,353a85.44,85.44,0,0,0,4.7-11.79A86.51,86.51,0,0,0,341.69,328.53Z"/><path class="cls-1" d="M438,331.72a7,7,0,0,1-1.6-4.49,9.1,9.1,0,0,1,1.2-4.6,8.72,8.72,0,0,1,3.3-3.3,8.09,8.09,0,0,1,4.69-1l1.4-.59a.18.18,0,0,1,.2-.2q11-13,24.68-30.58t28-37.17q14.28-19.57,28-39.76t24.38-38.37a355.43,355.43,0,0,0,17.39-33q6.69-14.79,7.09-23.58l.2-1.4c.27-.93,1.07-1.27,2.4-1a18.12,18.12,0,0,1,4.9,2,42.93,42.93,0,0,1,6,4.09c2.06,1.67,4,3.37,5.8,5.1a35.92,35.92,0,0,1,4.39,5c1.13,1.59,1.63,2.93,1.5,4q-2,7.2-8.79,19.79t-17,28.57q-10.19,16-23.08,34t-27,36q-14.1,18-28.58,34.57t-27.88,29.78a148.05,148.05,0,0,1,19.69,1.8l21.88,3.39q15,2.59,30.67,4.7a238.54,238.54,0,0,0,31.68,2.1,166.37,166.37,0,0,0,28.17-2.4,112.45,112.45,0,0,0,27.58-8.59c1.46-.14,2.16,1,2.1,3.39a34.58,34.58,0,0,1-1.4,8.2,50.45,50.45,0,0,1-3.4,8.79q-2.1,4.2-3.9,5.19l.8-.2a60.05,60.05,0,0,1-21.08,10.2,96.2,96.2,0,0,1-24.28,3,172.44,172.44,0,0,1-35.47-3.79q-18.09-3.81-35.87-8.4-16.19-4-31.07-7.09a132.93,132.93,0,0,0-26.88-3.1c-1.47,0-2.8,0-4,.1s-2.46.17-3.79.3Z"/><path class="cls-1" d="M654,197q3-1.39,7.1.4A21,21,0,0,1,668.5,203a23.78,23.78,0,0,1,4.8,8.6,13.07,13.07,0,0,1-.5,9.39q-.81,1.6-2.8,5t-4.4,7.6l.2-.4q-3.79,6.58-8.59,15T648,264.78q-4.39,8.19-7.59,15.29a52.31,52.31,0,0,0-4,11.49l-.8,1.6h2a38.25,38.25,0,0,0,11.49-6.6,90.68,90.68,0,0,0,11-10.59q5.29-6,10.29-12.69t9.39-12.89l4-5.79a6.39,6.39,0,0,1,4.59-2.8,6.24,6.24,0,0,1,4.5,1.3,6.71,6.71,0,0,1,2.4,4.3q.5,2.79-1.9,6.39l-5.59,7.59q-8.4,11.4-17.79,23.18a137.1,137.1,0,0,1-20.38,20.79,48,48,0,0,1-10.79,7,50.48,50.48,0,0,1-7.2,2.7,27.27,27.27,0,0,1-7.59,1.1q-8.79-.4-11.79-7.4t-1.4-17.18v-.2q-3.6,4-7.19,7.49a97,97,0,0,1-7.4,6.5,45.85,45.85,0,0,1-4.59,3.49,44.56,44.56,0,0,1-6.2,3.5,49.91,49.91,0,0,1-7.19,2.7,27.34,27.34,0,0,1-7.6,1.1q-8.58-.4-11.49-7.4t-1.29-17c.26-1.47.56-3.07.89-4.8a32.33,32.33,0,0,1,1.3-4.79q1.6-4.4,4-10.1t5.4-11.79q3-6.09,6.19-12.59t6.19-12.88q5-10.2,9.4-19.49t7-15.48l2.4-2.8q3-1.39,7.09.4a21,21,0,0,1,7.4,5.59,23.76,23.76,0,0,1,4.79,8.6,13.07,13.07,0,0,1-.5,9.39c-.66,1.2-1.66,3-3,5.39s-2.94,5.13-4.8,8.2l.2-.2q-4,6.59-8.69,14.68t-8.9,16.09q-4.18,8-7.29,15.09a46.86,46.86,0,0,0-3.7,11.29l-.8,1.6h1.8a37.94,37.94,0,0,0,11.39-6.5,95.84,95.84,0,0,0,10.79-10.19,152.16,152.16,0,0,0,10-12.19q4.78-6.5,9.19-12.69h-.2a18.24,18.24,0,0,1,1.4-2l1.6-2L634.23,236q5.4-10.59,10.09-20.18t7.1-16Z"/><path class="cls-1" d="M782.3,272.17q-3.79,5.2-10,12.59a170.37,170.37,0,0,1-13.59,14.39A100.51,100.51,0,0,1,743.64,311q-7.7,4.89-14.49,4.9a21.53,21.53,0,0,1-8-1.5,14,14,0,0,1-6.2-4.7,19.15,19.15,0,0,1-3.3-8.29,33.33,33.33,0,0,1,.5-12.09,102.9,102.9,0,0,1,3.5-11.79,127.38,127.38,0,0,1,5.2-12.19q3.09-6.39,7.09-13.89t9.19-16.88a63.34,63.34,0,0,0,3.9-7.5,28.35,28.35,0,0,0,1.9-5.69l-9.59,8.19q-8.4,7-15.49,14T703.37,259a267.65,267.65,0,0,0-12.19,25.27,190,190,0,0,0-8.79,26.08c-.53,1.47-1.93,2.13-4.2,2a19.78,19.78,0,0,1-7.09-1.9,26,26,0,0,1-6.6-4.29q-2.88-2.61-2.69-5.2a138.85,138.85,0,0,1,4.69-17.49q2.89-8.49,6.5-16.78t7.69-16.39q4.09-8.08,8.29-16.28,4.8-9.6,9.4-18.69t8.19-17.48a7.73,7.73,0,0,1,5.89-.1,22.4,22.4,0,0,1,6.7,3.49,24.79,24.79,0,0,1,5.59,5.9,17.68,17.68,0,0,1,3,7.29,118,118,0,0,1,17.39-12.19,41.1,41.1,0,0,1,17.58-5.59,8.1,8.1,0,0,1,5.5,2.5,24,24,0,0,1,4.69,6.09,22.54,22.54,0,0,1,2.6,7.79,13.47,13.47,0,0,1-.8,7.4q-5.19,10.19-10.19,19.08t-8.59,15.29L750,265.08q-2.7,4.69-4.79,9.29t-3.8,9.39q-1.7,4.8-3.1,10.4a4.44,4.44,0,0,1,1.4-1.2h-.2q6-3,14.79-10.2a120.48,120.48,0,0,0,18.38-19.58c1.73-2.13,3.37-4.19,4.9-6.19s3-4,4.5-6l3.79-5.79c.53-.67,1.53-.83,3-.5a11.3,11.3,0,0,1,7.09,5.19,2.64,2.64,0,0,1-.1,3.3l.2-.4L782.5,272Z"/><path class="cls-1" d="M817.27,337.52l5.8,4q6.2,4,12.59,7.89a116.48,116.48,0,0,0,14.18,7.29h-.2q1.8.6.7,4.1a26.69,26.69,0,0,1-4.09,7.59,31.33,31.33,0,0,1-7.7,7.3,17.59,17.59,0,0,1-10.09,3.19,13.65,13.65,0,0,1-8.19-2.59l-11-8.6q-2.4-2.19-4.8-4c-1.6-1.2-3.13-2.34-4.59-3.4a206.59,206.59,0,0,1-14.59,16.09,100.27,100.27,0,0,1-15.69,12.69A76.84,76.84,0,0,1,752,397.57a67.52,67.52,0,0,1-20.09,3.3,61.53,61.53,0,0,1-12.58-1.3,28.45,28.45,0,0,1-10.9-4.7,21.66,21.66,0,0,1-7.19-9.29q-2.49-5.9-1.3-14.89a45.1,45.1,0,0,1,7.19-19.78,61.82,61.82,0,0,1,15-15.89,71.29,71.29,0,0,1,20-10.39,68.39,68.39,0,0,1,22-3.7c3.73,0,7.12.13,10.19.4s5.89.63,8.49,1.1a50.69,50.69,0,0,1,7.4,1.9c2.32.8,4.62,1.66,6.89,2.6l10.39-17.59.8-1.4a57.15,57.15,0,0,1-9.79,5.1,29.22,29.22,0,0,1-9.39,2.1q-7.61-.81-12.09-4.3a22.12,22.12,0,0,1-6.7-8.29,28.09,28.09,0,0,1-2.5-10.29,57.61,57.61,0,0,1,.3-10.29,46.33,46.33,0,0,1,1.8-7.2,80.69,80.69,0,0,1,6.6-16.18,139.14,139.14,0,0,1,11-17.59,178.31,178.31,0,0,1,14.08-17,123.31,123.31,0,0,1,16.29-14.58,85.39,85.39,0,0,1,17.49-10.19,44.73,44.73,0,0,1,17.68-3.8,30,30,0,0,1,5,.4,48.51,48.51,0,0,1,5.19,1.2,14.16,14.16,0,0,1,7.3,5.09,20.71,20.71,0,0,1,3.39,8.2,40.72,40.72,0,0,1,.6,10,62.1,62.1,0,0,1-1.5,10.49,2.59,2.59,0,0,1-1.39,1.7,10.76,10.76,0,0,1-2.8,1.1,14.33,14.33,0,0,1-3.4.4,11.91,11.91,0,0,1-3.2-.4,27.26,27.26,0,0,1,5.7,4.09,27.55,27.55,0,0,1,4.5,5.3,15.45,15.45,0,0,1,2.29,5.89,9.55,9.55,0,0,1-.9,5.9Zm-72.74,45.76a65.81,65.81,0,0,0,19.59-13.49,176,176,0,0,0,18-20.48,67.69,67.69,0,0,0-10.59-3.5,55.37,55.37,0,0,0-11.19-1.5,64.87,64.87,0,0,0-14.29,1.3,59.65,59.65,0,0,0-14.39,4.7,41.14,41.14,0,0,0-11.49,8,18.94,18.94,0,0,0-5.59,11.39,14.54,14.54,0,0,0,.6,7.39,11.29,11.29,0,0,0,3.7,4.9,16.58,16.58,0,0,0,5.89,2.8,27.24,27.24,0,0,0,7,.9,33.08,33.08,0,0,0,6.6-.7A45.55,45.55,0,0,0,744.53,383.28Zm61-93.12q2.6-.6,6.6-3.8t8.49-7.59q4.5-4.39,9.09-9.49c3.06-3.4,5.8-6.63,8.19-9.7q4-7,7.6-14.18a65.3,65.3,0,0,0,5.19-13.79q3.6-1.4,9,.8a2.71,2.71,0,0,1-.4-2,3.33,3.33,0,0,0,.1-1.4,4.14,4.14,0,0,1,.1-1.6c.13-1.33.2-2.73.2-4.19a13.55,13.55,0,0,0-.6-4.1,6.11,6.11,0,0,0-5.8-4.5q-7.4-.19-15.19,5.3a82.3,82.3,0,0,0-15,13.89,140.63,140.63,0,0,0-13.09,18,142.24,142.24,0,0,0-9.29,17.39,43,43,0,0,0-2,5.49,38.23,38.23,0,0,0-1.4,6.5,23.06,23.06,0,0,0-.4,4.19,6.13,6.13,0,0,0,.9,3.4,4.14,4.14,0,0,0,2.7,1.8A11.44,11.44,0,0,0,805.48,290.16Z"/><path class="cls-1" d="M225.33,416a53.47,53.47,0,0,1,7.1-.84q3.42-.17,6.77-.17,13.88,0,22.81,4.1A33.78,33.78,0,0,1,275.8,430a34.61,34.61,0,0,1,6.1,15.38,55.65,55.65,0,0,1-.25,17.46,78.94,78.94,0,0,1-9.61,27A112.26,112.26,0,0,1,254.32,513a147.19,147.19,0,0,1-23,18.89A171.82,171.82,0,0,1,205.86,546a160.6,160.6,0,0,1-25.32,8.94,90.3,90.3,0,0,1-22.23,3.18,40.89,40.89,0,0,1-11-1.84q-8.53,15.71-14.46,29.41A177.06,177.06,0,0,0,124,610.06q-1.17,4.34-3.76,4.59c-1.72.17-3.4-.61-5-2.34a18.16,18.16,0,0,1-3.84-7.35,23.12,23.12,0,0,1-.42-10.62,120.41,120.41,0,0,1,6.85-22.14q5-12.45,12.2-26.66a27.59,27.59,0,0,1-6.18-19.38l.16.33q-.33-3.35,2.68-6.35a28,28,0,0,1,8.86-5.52q.66,9.38,3,15,6.69-12.2,14.21-24.48t15.21-24q7.68-11.7,15.21-22.31t14.37-19.31a134,134,0,0,0-20.05,13.71,230.15,230.15,0,0,0-19.39,17.8q-9.36,9.6-17.55,19.8a233.21,233.21,0,0,0-14.37,19.81,145.76,145.76,0,0,0-10,18q-3.85,8.37-4.35,14.21c-.22,2-1.33,2.9-3.34,2.67a12.9,12.9,0,0,1-6.35-2.92,22,22,0,0,1-5.77-7.11,14.92,14.92,0,0,1-1.58-9.69c.22-1,.44-2,.67-3.09a10.79,10.79,0,0,1,1.17-3.09v.16a161.08,161.08,0,0,1,13-25.15,195.56,195.56,0,0,1,38.94-44.79,166,166,0,0,1,24.07-17.05,139,139,0,0,1,25.91-11.7A101.25,101.25,0,0,1,225.66,416ZM224,430.56a53.07,53.07,0,0,0-7.94,1.33,55.59,55.59,0,0,0-8.44,2.85,23.12,23.12,0,0,1,8.86,8.27,17.62,17.62,0,0,1,2.25,5.76,9.23,9.23,0,0,1-.91,6Q209.44,464,201,474.68t-16.55,22.06q-8.1,11.37-15.71,23.23t-14.29,23.4a11.46,11.46,0,0,0,2.76.33h2.92a64.69,64.69,0,0,0,18.64-3,115.4,115.4,0,0,0,20.14-8.36,134.7,134.7,0,0,0,19.89-12.87,130.62,130.62,0,0,0,17.71-16.55,109.55,109.55,0,0,0,13.79-19.3,75.44,75.44,0,0,0,8.11-21.14,40.12,40.12,0,0,0,0-10.28,21.57,21.57,0,0,0-4.18-10.36q-3.51-4.77-10.61-8T224,430.56Z"/><path class="cls-1" d="M306.05,488.89a14,14,0,0,1,9.78,6.51,25,25,0,0,1,3.42,11.7,14.72,14.72,0,0,1,2.34,5.69,38.15,38.15,0,0,1,.67,7.52,15.44,15.44,0,0,0-.42,2.67,27.48,27.48,0,0,1-.42,3.18,65.61,65.61,0,0,1-4.26,14.62,96.91,96.91,0,0,1-7.44,14.37,100.55,100.55,0,0,1-9.86,13.21,80.47,80.47,0,0,1-11.53,10.86,56.91,56.91,0,0,1-12.28,7.27,30.86,30.86,0,0,1-12.12,2.67Q253.07,589,246.05,582t-7.36-21.73c0-1.22.06-2.53.17-3.93s.28-2.86.5-4.43A57.37,57.37,0,0,1,244,537.1a95.93,95.93,0,0,1,8.53-14.79A97.12,97.12,0,0,1,264,508.77a87.09,87.09,0,0,1,13.46-10.94,61.22,61.22,0,0,1,14.29-7A36.41,36.41,0,0,1,306.05,488.89ZM294.35,533a3,3,0,0,1-1.76-2.34,18.49,18.49,0,0,1-.41-4.1,28.8,28.8,0,0,1,.41-4.76c.28-1.67.53-3.12.76-4.35a11.23,11.23,0,0,1,2.08-4.26,24.12,24.12,0,0,1,3.43-3.67,36.85,36.85,0,0,1,3.59-2.76,26.87,26.87,0,0,1,2.76-1.67,4.91,4.91,0,0,0-2.34-.34,23.21,23.21,0,0,0-8.52,2.93,48.08,48.08,0,0,0-9.19,6.43,70.16,70.16,0,0,0-8.36,9.28A93.82,93.82,0,0,0,269.86,534a84.4,84.4,0,0,0-5.18,11,46.61,46.61,0,0,0-2.75,10.11q-1.19,6.34.5,10.61c1.11,2.84,3.51,4.38,7.18,4.6a16.65,16.65,0,0,0,8.36-2.09,39.75,39.75,0,0,0,8.52-6.1,70.41,70.41,0,0,0,8.11-8.94,91,91,0,0,0,7.1-10.7,87.82,87.82,0,0,0,5.35-11.11,45.42,45.42,0,0,0,2.84-10.2l.34-.83a6.11,6.11,0,0,0-3.1,1.08,21.26,21.26,0,0,0-3.34,2.59,26.3,26.3,0,0,0-2.84,3.18,12.18,12.18,0,0,0-1.75,3Z"/><path class="cls-1" d="M387.44,556.41q-4.68,5.69-10.36,11.61a103.3,103.3,0,0,1-12,10.78,64.13,64.13,0,0,1-13.2,7.86,29.82,29.82,0,0,1-13.54,2.67,13.07,13.07,0,0,1-6.51-1.84,11.13,11.13,0,0,1-4.1-4.43,16.9,16.9,0,0,1-1.75-6.26,27.15,27.15,0,0,1,.33-7.36,51.25,51.25,0,0,1,3.34-10.36,61.76,61.76,0,0,1,5.1-9.19q2.93-4.35,6.27-8.53c2.23-2.78,4.56-5.62,7-8.52l4-4.68v.17l4.84-5.68a14.06,14.06,0,0,1,3.6-3.35,26,26,0,0,1,7.1-2.84q-2.34.51-3.84.75a25.47,25.47,0,0,0-2.68.59l-4.34,1a17.63,17.63,0,0,1-5,.34H350q-4.51,5.68-8.52,11.11T334,540.53v-.17c-.45.67-1.23.84-2.34.5a9,9,0,0,1-3.18-1.75,10.64,10.64,0,0,1-2.42-2.84,2.21,2.21,0,0,1,.08-2.76v.17q4.84-6.36,8.19-11.12t6-8.44a10.24,10.24,0,0,1-.5-6.68,21.51,21.51,0,0,1,3.67-9.19c1.9-2.68,4.12-5.8,6.69-9.36q1.5-2.17,3.26-4.85a56.82,56.82,0,0,0,3.59-6.52q2.34,1.34,4.68,2.76a18.65,18.65,0,0,1,4.1,3.34,12.27,12.27,0,0,1,2.59,4.43,12,12,0,0,1,.33,5.68c-.22,1-.5,2.09-.83,3.26a19.56,19.56,0,0,1-1.84,4.1l-7,7.52c-.56.67-.28.75.83.25s2.73-1.37,4.85-2.59,4.51-2.68,7.19-4.35,5.29-3.34,7.85-5,4.82-3.23,6.77-4.68a42.23,42.23,0,0,0,4.1-3.34,4.85,4.85,0,0,1,2.5,1,28.94,28.94,0,0,1,2.93,2.25c.94.84,1.78,1.62,2.5,2.34a8.17,8.17,0,0,1,1.26,1.43,8.84,8.84,0,0,1,0,6.76,38.86,38.86,0,0,1-4.43,8.61,109,109,0,0,1-7.52,10q-4.44,5.26-9.28,10.77-2.83,3-5.51,6t-5.35,6.19q-2,2.34-4.51,5.34c-1.68,2-3.29,4-4.85,6.1a52.63,52.63,0,0,0-4,6.1,16.44,16.44,0,0,0-2,5c-.22.67.34,1,1.67,1a10,10,0,0,0,4.85-1.25,39.65,39.65,0,0,0,6.52-4,75.13,75.13,0,0,0,7.18-6.1,65.75,65.75,0,0,0,6.86-7.69h-.17q4.35-5.36,8.19-10.53t6.18-8.86a2.3,2.3,0,0,1,2.51-.25,9.67,9.67,0,0,1,3.18,1.92,9.84,9.84,0,0,1,2.34,3.09,2.53,2.53,0,0,1-.17,2.93l.17-.34-6,8.36-7.86,11.2Z"/><path class="cls-1" d="M404.32,497.41a6.23,6.23,0,0,1-4.93,0,4.48,4.48,0,0,1-2.42-2.93,6.19,6.19,0,0,1,.58-4.26,10.26,10.26,0,0,1,3.93-4.18q6.86-4.34,13.45-7.85t13.29-6.35q12.54-21.72,18.89-37.27a7.47,7.47,0,0,1,6.26.08,18.67,18.67,0,0,1,6.52,4.43,20.23,20.23,0,0,1,4.43,6.94,10,10,0,0,1,0,7.6l-4.85,8.52a125.67,125.67,0,0,1,22.06-2c1.12,0,2.57,0,4.35.08s3.23.14,4.34.25a12.5,12.5,0,0,1-.58,5.44,22.73,22.73,0,0,1-2.59,5.51,21.34,21.34,0,0,1-3.76,4.43,6.29,6.29,0,0,1-4.1,1.84c-1.11-.11-2.28-.2-3.51-.25s-2.45-.09-3.67-.09a102.65,102.65,0,0,0-11.53.67,115.89,115.89,0,0,0-11.87,2q-2.34,4-4.76,7.85t-4.77,7.36l-1.33,2.17q-2,3.18-5.52,8.69t-7.6,12.28q-4.11,6.78-8.44,14.21t-8,14.37q-3.68,6.94-6.18,12.79a40.17,40.17,0,0,0-3,9.36,1.62,1.62,0,0,0-.33.83.7.7,0,0,1-.17.51h1.17a32,32,0,0,0,9.53-5.44,81.38,81.38,0,0,0,9-8.52,127.37,127.37,0,0,0,8.36-10.2q4-5.41,7.69-10.61h-.17c.67-1,1.39-2,2.17-2.92s1.51-1.87,2.17-2.76c.45-.67,1.23-.84,2.34-.5a10.52,10.52,0,0,1,3.26,1.67,9,9,0,0,1,2.51,2.76,2.66,2.66,0,0,1,.25,2.75l-5.51,7.53q-6.86,9.52-14.8,19.3a122.41,122.41,0,0,1-16.79,17.13,39.21,39.21,0,0,1-3.85,2.93,38.5,38.5,0,0,1-5.18,2.92,41.68,41.68,0,0,1-6,2.26,22.9,22.9,0,0,1-6.36.91,10.26,10.26,0,0,1-9.61-6.26,18.57,18.57,0,0,1-1.5-6.35,35.58,35.58,0,0,1,.42-7.94c.22-1.23.5-2.53.83-3.93a29.4,29.4,0,0,1,1.17-3.76,155.32,155.32,0,0,1,6.52-17q3.84-8.52,8.36-16.88T403.9,511q4.94-8.19,10-16.05l2.17-3.34-11.2,5.68Z"/><path class="cls-1" d="M484.54,495.24q-12.71,20.55-23,36.43t-18.8,28.58l-4.35,6.69a26.15,26.15,0,0,0,8.86-4.35,77.23,77.23,0,0,0,8.52-7.27,112.1,112.1,0,0,0,8.11-8.86c2.62-3.17,5.21-6.27,7.77-9.27l-.16.16,6.18-7.52c.44-.44,1.25-.47,2.42-.08a11.07,11.07,0,0,1,3.26,1.75,8.54,8.54,0,0,1,2.34,2.76,2.28,2.28,0,0,1-.17,2.76c-.66.89-1.33,1.84-2,2.84s-1.28,1.9-1.84,2.67v-.33c-1.45,2-2.79,3.87-4,5.6s-2.51,3.45-3.84,5.18-2.76,3.48-4.27,5.27-3.26,3.73-5.26,5.84-4.15,4-6.44,6a59.09,59.09,0,0,1-7.18,5.43,50.54,50.54,0,0,1-7.69,4.1,29.54,29.54,0,0,1-7.94,2.17l.17,2-.17.66a31.22,31.22,0,0,1,.17,5.52c-.11,1.78-.34,3.73-.67,5.85a83.94,83.94,0,0,1-5.52,18.63A103.92,103.92,0,0,1,419.78,632a61.54,61.54,0,0,1-11.28,13q-6,5.1-11.53,5.1-6.2-.34-8.44-5a22.52,22.52,0,0,1-1.76-11.53.8.8,0,0,0-.08-.33,1.12,1.12,0,0,1-.09-.5,128.1,128.1,0,0,1,6.35-20.9,227.65,227.65,0,0,1,9.61-21Q408,580.48,414.18,570t12.53-20.64l6.36-10,19.72-33.26,13.7-22.4q3.84-6.51,7.69-13.12t7.27-12.95q3.42-6.35,6.35-12.2t4.93-10.86q2.5-1.33,6.27.08a19.62,19.62,0,0,1,6.77,4.35,18.74,18.74,0,0,1,4.51,6.93,8.86,8.86,0,0,1-.5,7.69l.17-.17a70.59,70.59,0,0,1-3.68,6.94Q503.6,465,500,470.75T492.4,483Q488.38,489.39,484.54,495.24ZM421.2,600c.22-1.23.39-2.4.5-3.51s.23-2.29.34-3.51q-6.36,10.86-10.87,20.72A144.5,144.5,0,0,0,403.48,635a26.8,26.8,0,0,0,6.1-6,51.5,51.5,0,0,0,5.19-8.44A73.69,73.69,0,0,0,421.2,600Z"/><path class="cls-1" d="M534.18,488.89A13.93,13.93,0,0,1,544,495.4a25,25,0,0,1,3.43,11.7,14.72,14.72,0,0,1,2.34,5.69,38.93,38.93,0,0,1,.67,7.52A14.53,14.53,0,0,0,550,523a27.48,27.48,0,0,1-.42,3.18,65.61,65.61,0,0,1-4.26,14.62,96.91,96.91,0,0,1-7.44,14.37A100.55,100.55,0,0,1,528,568.36a80.47,80.47,0,0,1-11.53,10.86,56.91,56.91,0,0,1-12.28,7.27,30.86,30.86,0,0,1-12.12,2.67Q481.2,589,474.18,582t-7.36-21.73c0-1.22.06-2.53.17-3.93s.28-2.86.5-4.43a57.37,57.37,0,0,1,4.68-14.79,95.93,95.93,0,0,1,8.53-14.79,97.12,97.12,0,0,1,11.44-13.54,87.09,87.09,0,0,1,13.46-10.94,61.22,61.22,0,0,1,14.29-7A36.41,36.41,0,0,1,534.18,488.89ZM522.48,533a3,3,0,0,1-1.76-2.34,18.49,18.49,0,0,1-.41-4.1,28.8,28.8,0,0,1,.41-4.76c.28-1.67.53-3.12.76-4.35a11.23,11.23,0,0,1,2.08-4.26,24.12,24.12,0,0,1,3.43-3.67,36.85,36.85,0,0,1,3.59-2.76,26.87,26.87,0,0,1,2.76-1.67,4.91,4.91,0,0,0-2.34-.34,23.21,23.21,0,0,0-8.52,2.93,48.08,48.08,0,0,0-9.19,6.43,70.16,70.16,0,0,0-8.36,9.28A93.82,93.82,0,0,0,498,534a84.4,84.4,0,0,0-5.18,11,47.25,47.25,0,0,0-2.76,10.11q-1.17,6.34.51,10.61c1.11,2.84,3.51,4.38,7.18,4.6a16.65,16.65,0,0,0,8.36-2.09,39.75,39.75,0,0,0,8.52-6.1,70.41,70.41,0,0,0,8.11-8.94,91,91,0,0,0,7.1-10.7,87.82,87.82,0,0,0,5.35-11.11,45.42,45.42,0,0,0,2.84-10.2l.34-.83a6.11,6.11,0,0,0-3.1,1.08,21.26,21.26,0,0,0-3.34,2.59,25.48,25.48,0,0,0-2.84,3.18,12.18,12.18,0,0,0-1.75,3Z"/><path class="cls-1" d="M600.69,497.41q-2,3.18-5.51,8.69t-7.6,12.28q-4.11,6.78-8.45,14.21t-8,14.37q-3.68,6.94-6.18,12.79a39.69,39.69,0,0,0-3,9.36,1.62,1.62,0,0,0-.33.83.7.7,0,0,1-.17.51h1.17a32.12,32.12,0,0,0,9.53-5.44,81.38,81.38,0,0,0,9-8.52,127.37,127.37,0,0,0,8.36-10.2q4-5.41,7.68-10.61H597c.67-1,1.39-2,2.17-2.92s1.5-1.87,2.17-2.76c.45-.67,1.23-.84,2.34-.5a10.52,10.52,0,0,1,3.26,1.67,9,9,0,0,1,2.51,2.76,2.66,2.66,0,0,1,.25,2.75l-5.52,7.53q-6.86,9.52-14.79,19.3a122.41,122.41,0,0,1-16.79,17.13,39.33,39.33,0,0,1-9,5.85,41.68,41.68,0,0,1-6,2.26,22.9,22.9,0,0,1-6.36.91,10.26,10.26,0,0,1-9.61-6.26,18.57,18.57,0,0,1-1.5-6.35,35.58,35.58,0,0,1,.42-7.94c.22-1.23.5-2.53.83-3.93a29.4,29.4,0,0,1,1.17-3.76,158.6,158.6,0,0,1,14-32.51q8.94-15.79,18.47-31.17l9-14q3.84-6.34,7.61-12.95t7.18-12.95q3.42-6.35,6.35-12.29t4.93-10.94a7.5,7.5,0,0,1,6.27.08,18.67,18.67,0,0,1,6.52,4.43,20.23,20.23,0,0,1,4.43,6.94,10,10,0,0,1,0,7.6q-1.17,2.5-3.93,7.19T617,471.34q-3.6,5.85-7.52,12.11T602,495.24Z"/><path class="cls-1" d="M624.43,490.06q2.51-1.17,5.85.41a16.84,16.84,0,0,1,5.85,4.68,18.18,18.18,0,0,1,3.51,7.19,10.61,10.61,0,0,1-1.17,7.94c.22-.22.11,0-.34.67s-1.06,1.56-1.84,2.67l-2.67,3.84c-1,1.45-1.9,2.79-2.67,4q-3,4.34-6.61,9.61t-7.18,10.69q-3.6,5.43-6.86,10.62t-5.51,9.19a65.18,65.18,0,0,0-3.26,6.43q-1,2.43,0,2.43h1.17A36.75,36.75,0,0,0,613.23,565a78.44,78.44,0,0,0,9.94-8.6q4.77-4.85,9.28-10.28t8.69-10.45l3-4a2.38,2.38,0,0,1,2.67-.42,8.15,8.15,0,0,1,3.09,2,8.89,8.89,0,0,1,2.09,3.17,2.71,2.71,0,0,1-.33,2.93l.17-.34q-8.37,10.88-18.72,22.07a202,202,0,0,1-20.89,19.72c-1.12.78-2.48,1.7-4.1,2.76a44.56,44.56,0,0,1-5.26,2.92,41.81,41.81,0,0,1-6,2.26,22.29,22.29,0,0,1-6.18.91q-6.52-.17-8.78-5.09t-1.08-12.29a56.44,56.44,0,0,1,3.67-11.36l-.16.17a160.66,160.66,0,0,1,9.61-19.39q6.26-11,13-22.06,4.33-7.53,8.44-14.63t6.93-12.95Zm25.4-51.15q2-.33,4.76,2.26a39.64,39.64,0,0,1,5.19,6,44.3,44.3,0,0,1,4,6.85c1.05,2.28,1.47,3.93,1.25,4.93a51.25,51.25,0,0,1-4.09,8.52q-2.26,3.67-4.6,7.52c-1.56,2.57-3.15,5.18-4.76,7.86a79.45,79.45,0,0,0-4.77,9.36,10.87,10.87,0,0,1-4.26-2.43,25.42,25.42,0,0,1-4.09-4.42,23.85,23.85,0,0,1-2.93-5.19,8.28,8.28,0,0,1-.75-4.51q.84-3.35,2.25-7.35c1-2.68,2-5.46,3.26-8.36s2.4-5.85,3.51-8.86a74.89,74.89,0,0,0,2.68-8.69Z"/><path class="cls-1" d="M701.81,488.89a13.93,13.93,0,0,1,9.77,6.51A25,25,0,0,1,715,507.1a14.72,14.72,0,0,1,2.34,5.69,38.93,38.93,0,0,1,.67,7.52,14.53,14.53,0,0,0-.42,2.67,29.87,29.87,0,0,1-.42,3.18,65.61,65.61,0,0,1-4.26,14.62,96.91,96.91,0,0,1-7.44,14.37,101.45,101.45,0,0,1-9.86,13.21,80.47,80.47,0,0,1-11.53,10.86,57.15,57.15,0,0,1-12.28,7.27,30.86,30.86,0,0,1-12.12,2.67Q648.83,589,641.81,582t-7.36-21.73c0-1.22.06-2.53.17-3.93s.28-2.86.5-4.43a57.37,57.37,0,0,1,4.68-14.79,96.68,96.68,0,0,1,8.52-14.79,97.88,97.88,0,0,1,11.45-13.54,87.09,87.09,0,0,1,13.46-10.94,61.22,61.22,0,0,1,14.29-7A36.41,36.41,0,0,1,701.81,488.89ZM690.11,533a3,3,0,0,1-1.76-2.34,18.46,18.46,0,0,1-.42-4.1,28.86,28.86,0,0,1,.42-4.76q.42-2.5.75-4.35a11.41,11.41,0,0,1,2.09-4.26,24.12,24.12,0,0,1,3.43-3.67,35.68,35.68,0,0,1,3.59-2.76A26.87,26.87,0,0,1,701,505.1a4.91,4.91,0,0,0-2.34-.34,23.21,23.21,0,0,0-8.52,2.93,48.15,48.15,0,0,0-9.2,6.43,70.8,70.8,0,0,0-8.35,9.28A92.47,92.47,0,0,0,665.62,534a84.4,84.4,0,0,0-5.18,11,47.25,47.25,0,0,0-2.76,10.11q-1.17,6.34.5,10.61c1.12,2.84,3.51,4.38,7.19,4.6a16.65,16.65,0,0,0,8.36-2.09,40,40,0,0,0,8.52-6.1,70.41,70.41,0,0,0,8.11-8.94,92.29,92.29,0,0,0,7.1-10.7,87.82,87.82,0,0,0,5.35-11.11,46,46,0,0,0,2.84-10.2l.33-.83a6.11,6.11,0,0,0-3.09,1.08,21.26,21.26,0,0,0-3.34,2.59,25.48,25.48,0,0,0-2.84,3.18,12.59,12.59,0,0,0-1.76,3Z"/><path class="cls-1" d="M530.52,642.18a14.47,14.47,0,0,1,3-1.42,5.85,5.85,0,0,1,2.7-.34,4.12,4.12,0,0,1,1.77.67,3.24,3.24,0,0,1,1,1.23,4.11,4.11,0,0,1,.38,1.63,8.18,8.18,0,0,1-.14,1.88,12.81,12.81,0,0,1-1,3.16,23.39,23.39,0,0,1-2.51,4.26,26.41,26.41,0,0,1-3.33,3.78,19.45,19.45,0,0,1-3.81,2.79,10.54,10.54,0,0,1-3.93,1.31,5,5,0,0,1-2.09-.45,3.69,3.69,0,0,1-1.35-1.09l-.18.7c-.09.26-.34.37-.73.35a3.37,3.37,0,0,1-1.25-.33,4.56,4.56,0,0,1-1.16-.76,1.1,1.1,0,0,1-.47-.91,26.93,26.93,0,0,1,1.31-4.32q.87-2.18,2-4.35c.75-1.45,1.55-2.9,2.42-4.35s1.73-2.89,2.6-4.32l1.4-2.25c.54-.89,1.07-1.79,1.6-2.72s1-1.83,1.51-2.72.92-1.75,1.33-2.58.76-1.6,1-2.3a1.58,1.58,0,0,1,1.31,0,3.88,3.88,0,0,1,1.37.93,4.23,4.23,0,0,1,.93,1.46,2.08,2.08,0,0,1,0,1.59c-.16.36-.44.86-.82,1.51l-1.32,2.2c-.49.81-1,1.65-1.56,2.53s-1.08,1.71-1.6,2.51Zm-4.08,6.39c-.53.86-1.05,1.75-1.54,2.65s-1,1.8-1.4,2.72a1.71,1.71,0,0,0-.07.42,3.53,3.53,0,0,0,.05,1.56,1.07,1.07,0,0,0,1.07.79,3.22,3.22,0,0,0,1.79-.49,12,12,0,0,0,2.11-1.53,22,22,0,0,0,2.17-2.23,32,32,0,0,0,2-2.54,19.87,19.87,0,0,0,1.49-2.51,8.92,8.92,0,0,0,.77-2.14c.12-.73-.11-1.1-.67-1.13a5.41,5.41,0,0,0-1.81.28,10.32,10.32,0,0,0-2,.92,14.53,14.53,0,0,0-2.06,1.44A17.52,17.52,0,0,0,526.44,648.57Z"/><path class="cls-1" d="M554.53,640.39a1.44,1.44,0,0,1,1.24.07,3.67,3.67,0,0,1,1.3,1,4,4,0,0,1,.84,1.51,2.29,2.29,0,0,1-.08,1.65c-.1.19-.26.48-.49.88s-.5.84-.78,1.33l0-.07c-.45.77-1,1.65-1.51,2.63s-1.1,2-1.62,2.92-1,1.85-1.33,2.68a9.38,9.38,0,0,0-.7,2l-.14.28h.35a6.64,6.64,0,0,0,2-1.16,15.24,15.24,0,0,0,1.93-1.86c.62-.7,1.22-1.44,1.81-2.23s1.13-1.53,1.65-2.26l.7-1a1.1,1.1,0,0,1,1.6-.26,1.19,1.19,0,0,1,.42.75,1.63,1.63,0,0,1-.34,1.13l-1,1.33q-1.47,2-3.12,4.07a24.29,24.29,0,0,1-3.58,3.65,8,8,0,0,1-.81.62,7.54,7.54,0,0,1-1.09.61,8.63,8.63,0,0,1-1.26.48,5.16,5.16,0,0,1-1.34.19,2.15,2.15,0,0,1-2.07-1.3,5.46,5.46,0,0,1-.24-3v0c-.43.46-.85.9-1.27,1.31a15.37,15.37,0,0,1-1.3,1.14,7.78,7.78,0,0,1-.8.62,8.11,8.11,0,0,1-1.09.61,8.34,8.34,0,0,1-1.27.48,5.09,5.09,0,0,1-1.33.19,2.09,2.09,0,0,1-2-1.3,5.53,5.53,0,0,1-.23-3l.16-.85a6.4,6.4,0,0,1,.23-.84c.19-.51.42-1.1.7-1.77s.6-1.36.95-2.07.71-1.45,1.09-2.21.73-1.52,1.09-2.27c.58-1.19,1.13-2.33,1.64-3.42s.93-2,1.23-2.72l.43-.49a1.44,1.44,0,0,1,1.24.07,3.76,3.76,0,0,1,1.3,1,4,4,0,0,1,.84,1.51,2.29,2.29,0,0,1-.08,1.65l-.53.95-.84,1.44,0,0q-.71,1.15-1.53,2.58c-.55,1-1.07,1.89-1.56,2.83s-.92,1.82-1.28,2.65a8.39,8.39,0,0,0-.65,2l-.14.28h.32a6.57,6.57,0,0,0,2-1.14,17.51,17.51,0,0,0,1.89-1.79,26.73,26.73,0,0,0,1.76-2.14c.56-.76,1.1-1.5,1.61-2.23h0a3.64,3.64,0,0,1,.24-.35l.28-.35,1-2c.63-1.24,1.23-2.42,1.78-3.54s1-2.06,1.24-2.81Z"/><path class="cls-1" d="M566.43,640.39a1.39,1.39,0,0,1,1.23.08,3.7,3.7,0,0,1,1.22,1,3.62,3.62,0,0,1,.74,1.51,2.21,2.21,0,0,1-.24,1.66s0,0-.07.15-.23.32-.39.56l-.56.8c-.21.31-.4.59-.56.85-.43.61-.89,1.28-1.39,2s-1,1.49-1.51,2.25-1,1.51-1.44,2.23-.84,1.37-1.16,1.93a14.15,14.15,0,0,0-.68,1.35q-.21.51,0,.51h.24a7.56,7.56,0,0,0,2.22-1.14,16.64,16.64,0,0,0,2.08-1.81q1-1,2-2.16l1.83-2.19.63-.84a.5.5,0,0,1,.56-.09,1.65,1.65,0,0,1,.65.42,1.82,1.82,0,0,1,.44.67.57.57,0,0,1-.07.61l0-.07q-1.75,2.28-3.93,4.64a43,43,0,0,1-4.39,4.14L563,660a8.24,8.24,0,0,1-1.1.61,8.34,8.34,0,0,1-1.27.48,4.91,4.91,0,0,1-1.29.19,1.89,1.89,0,0,1-1.85-1.07,4.55,4.55,0,0,1-.23-2.58,12.34,12.34,0,0,1,.78-2.39l0,0a34.53,34.53,0,0,1,2-4.08c.88-1.54,1.78-3.08,2.72-4.63l1.77-3.07c.58-1,1.06-1.9,1.46-2.72Zm5.33-10.74a1.26,1.26,0,0,1,1,.47,8,8,0,0,1,1.09,1.26,9,9,0,0,1,.84,1.44,1.92,1.92,0,0,1,.27,1,11.49,11.49,0,0,1-.86,1.79c-.32.51-.64,1-1,1.58l-1,1.65a16.91,16.91,0,0,0-1,2,2.22,2.22,0,0,1-.89-.51,4.77,4.77,0,0,1-.86-.93,4.92,4.92,0,0,1-.62-1.08,1.85,1.85,0,0,1-.16-1c.12-.47.28-1,.48-1.55s.42-1.14.68-1.75.51-1.23.74-1.86a16.42,16.42,0,0,0,.56-1.83Z"/><path class="cls-1" d="M581.87,641.93c-.28.45-.66,1.06-1.16,1.83s-1,1.63-1.59,2.58-1.17,1.94-1.78,3-1.17,2-1.68,3-.95,1.87-1.3,2.69a8.24,8.24,0,0,0-.63,2,.32.32,0,0,0-.07.18.12.12,0,0,1,0,.1h.25a6.57,6.57,0,0,0,2-1.14,16.7,16.7,0,0,0,1.9-1.79c.6-.67,1.19-1.38,1.75-2.14s1.1-1.5,1.62-2.23h0a6.5,6.5,0,0,1,.46-.61l.45-.58a.4.4,0,0,1,.49-.11,2.25,2.25,0,0,1,.69.35,2.07,2.07,0,0,1,.53.58.59.59,0,0,1,0,.58l-1.16,1.58c-1,1.33-2,2.69-3.11,4.06a26.07,26.07,0,0,1-3.52,3.59,8,8,0,0,1-.81.62,7.54,7.54,0,0,1-1.09.61,8.63,8.63,0,0,1-1.26.48,5.16,5.16,0,0,1-1.34.19,2.18,2.18,0,0,1-2-1.32,3.82,3.82,0,0,1-.31-1.33,7,7,0,0,1,.09-1.67c0-.26.1-.53.17-.82a4.6,4.6,0,0,1,.25-.79,33.17,33.17,0,0,1,2.93-6.83q1.88-3.31,3.88-6.55l1.89-3c.54-.89,1.07-1.79,1.6-2.72s1-1.83,1.51-2.72.92-1.75,1.33-2.58.76-1.6,1-2.3a1.6,1.6,0,0,1,1.32,0,3.94,3.94,0,0,1,1.36.93,4.23,4.23,0,0,1,.93,1.46,2.08,2.08,0,0,1,0,1.59,15.07,15.07,0,0,1-.82,1.51c-.39.66-.83,1.4-1.33,2.22L583.72,639c-.55.88-1.07,1.7-1.57,2.48Z"/><path class="cls-1" d="M586.05,641.93a1.33,1.33,0,0,1-1,0,1,1,0,0,1-.5-.61,1.34,1.34,0,0,1,.12-.9,2.19,2.19,0,0,1,.82-.88c1-.6,1.9-1.15,2.83-1.65s1.85-.93,2.79-1.33a65.8,65.8,0,0,0,4-7.83,1.58,1.58,0,0,1,1.31,0,3.88,3.88,0,0,1,1.37.93,4.23,4.23,0,0,1,.93,1.46,2.08,2.08,0,0,1,0,1.59l-1,1.79a26.42,26.42,0,0,1,4.64-.42l.91,0c.38,0,.68,0,.91,0a2.55,2.55,0,0,1-.12,1.14,4.9,4.9,0,0,1-.54,1.16,4.3,4.3,0,0,1-.79.93,1.33,1.33,0,0,1-.86.39l-.74,0-.77,0a22,22,0,0,0-2.42.14,22.89,22.89,0,0,0-2.5.42c-.33.56-.66,1.11-1,1.65s-.67,1.05-1,1.55l-.28.45-1.16,1.83q-.74,1.15-1.59,2.58c-.58.95-1.17,1.94-1.78,3s-1.17,2-1.68,3-1,1.87-1.3,2.69a8.24,8.24,0,0,0-.63,2,.32.32,0,0,0-.07.18.15.15,0,0,1,0,.1h.25a6.57,6.57,0,0,0,2-1.14,16.63,16.63,0,0,0,1.89-1.79,26.73,26.73,0,0,0,1.76-2.14c.56-.76,1.1-1.5,1.61-2.23h0c.14-.21.29-.41.45-.61s.32-.4.46-.58.26-.18.49-.11a2.37,2.37,0,0,1,.69.35,1.89,1.89,0,0,1,.52.58.57.57,0,0,1,.06.58l-1.16,1.58c-1,1.33-2,2.69-3.11,4.06a26.12,26.12,0,0,1-3.53,3.59,7.78,7.78,0,0,1-.8.62,7.54,7.54,0,0,1-1.09.61,8.34,8.34,0,0,1-1.27.48,5.09,5.09,0,0,1-1.33.19,2.19,2.19,0,0,1-1.26-.39,2.25,2.25,0,0,1-.76-.93,3.82,3.82,0,0,1-.31-1.33,7.48,7.48,0,0,1,.08-1.67c.05-.26.11-.53.18-.82a5.74,5.74,0,0,1,.24-.79,34.12,34.12,0,0,1,1.37-3.58c.54-1.2,1.13-2.38,1.76-3.55s1.29-2.33,2-3.47,1.39-2.27,2.09-3.37l.46-.71-2.35,1.2Z"/><path class="cls-1" d="M618.56,640.39a1.44,1.44,0,0,1,1.24.07,3.67,3.67,0,0,1,1.3,1,4,4,0,0,1,.84,1.51,2.29,2.29,0,0,1-.08,1.65q-.21.39-.69,1.23c-.31.56-.68,1.2-1.1,1.93-.54.94-1.13,2-1.76,3.07S617.08,653,616.5,654s-1.06,1.79-1.47,2.45a12,12,0,0,1-.72,1.11,5.17,5.17,0,0,0,1.88-1.21c.85-.74,1.81-1.65,2.86-2.74s2.14-2.28,3.26-3.58,2.17-2.56,3.13-3.78,1.76-2.32,2.42-3.31a8.63,8.63,0,0,0,1.16-2.23c.18-.24.41-.22.66.05a3.44,3.44,0,0,1,.67,1.09,5.45,5.45,0,0,1,.37,1.44,1.64,1.64,0,0,1-.19,1.14l-2.36,2.93q-1.39,1.74-3,3.65t-3.47,3.79q-1.83,1.88-3.62,3.39a21.91,21.91,0,0,1-3.46,2.44,5.88,5.88,0,0,1-3,.89,1.88,1.88,0,0,1-1.68-.84,3.37,3.37,0,0,1-.29-2.46,1,1,0,0,1,0-.15,1,1,0,0,0,0-.16,16.58,16.58,0,0,1-1.61,1.54,9.34,9.34,0,0,1-.81.62,7.54,7.54,0,0,1-1.09.61,8.63,8.63,0,0,1-1.26.48,5.16,5.16,0,0,1-1.34.19,2.1,2.1,0,0,1-2-1.3,5.44,5.44,0,0,1-.22-3c0-.26.09-.54.15-.85a6.4,6.4,0,0,1,.23-.84c.19-.51.42-1.1.7-1.77s.6-1.36,1-2.07.72-1.45,1.09-2.21.74-1.52,1.09-2.27q.87-1.78,1.65-3.42c.51-1.09.92-2,1.23-2.72l.42-.49a1.44,1.44,0,0,1,1.24.07,3.67,3.67,0,0,1,1.3,1,4,4,0,0,1,.84,1.51,2.29,2.29,0,0,1-.08,1.65l-.53.95q-.35.63-.84,1.44l0,0c-.47.77-1,1.63-1.52,2.58s-1.07,1.89-1.57,2.83-.91,1.82-1.28,2.65a8.39,8.39,0,0,0-.65,2l-.14.28h.32a7.63,7.63,0,0,0,2.09-1.35,20.71,20.71,0,0,0,2.17-2.21c.72-.83,1.4-1.7,2.06-2.6s1.25-1.74,1.79-2.51h0a3.09,3.09,0,0,1,.35-.45,3.92,3.92,0,0,0,.36-.46l.07-.07c.72-1.33,1.38-2.6,2-3.79s1.06-2.18,1.38-3Z"/><path class="cls-1" d="M634.74,640.39a1.39,1.39,0,0,1,1.23.08,3.64,3.64,0,0,1,1.23,1,3.73,3.73,0,0,1,.73,1.51,2.16,2.16,0,0,1-.24,1.66s0,0-.07.15l-.39.56-.56.8c-.21.31-.4.59-.56.85l-1.39,2-1.51,2.25c-.5.76-1,1.51-1.44,2.23s-.84,1.37-1.15,1.93a12.51,12.51,0,0,0-.69,1.35q-.21.51,0,.51h.25a7.64,7.64,0,0,0,2.21-1.14,17.46,17.46,0,0,0,2.09-1.81c.66-.67,1.31-1.39,1.94-2.16l1.83-2.19.63-.84a.5.5,0,0,1,.56-.09,1.65,1.65,0,0,1,.65.42,1.82,1.82,0,0,1,.44.67.57.57,0,0,1-.07.61l0-.07q-1.75,2.28-3.93,4.64a45.17,45.17,0,0,1-4.39,4.14l-.86.58a8.37,8.37,0,0,1-1.11.61,8.63,8.63,0,0,1-1.26.48,5,5,0,0,1-1.3.19,1.87,1.87,0,0,1-1.84-1.07,4.38,4.38,0,0,1-.23-2.58,11.65,11.65,0,0,1,.77-2.39l0,0a36.16,36.16,0,0,1,2-4.08q1.32-2.31,2.72-4.63c.61-1.05,1.2-2.08,1.78-3.07s1.06-1.9,1.45-2.72Zm5.34-10.74c.28,0,.61.11,1,.47a7.93,7.93,0,0,1,1.08,1.26,9.85,9.85,0,0,1,.85,1.44,1.89,1.89,0,0,1,.26,1,10.66,10.66,0,0,1-.86,1.79c-.32.51-.64,1-1,1.58s-.66,1.09-1,1.65a16.91,16.91,0,0,0-1,2,2.22,2.22,0,0,1-.89-.51,5.1,5.1,0,0,1-.86-.93,5.36,5.36,0,0,1-.62-1.08,1.74,1.74,0,0,1-.15-1,15.27,15.27,0,0,1,.47-1.55c.2-.56.43-1.14.69-1.75s.5-1.23.73-1.86a14.55,14.55,0,0,0,.56-1.83Z"/><path class="cls-1" d="M643.16,641.93a1.3,1.3,0,0,1-1,0,.93.93,0,0,1-.51-.61,1.34,1.34,0,0,1,.12-.9,2.15,2.15,0,0,1,.83-.88q1.44-.9,2.82-1.65c.93-.49,1.86-.93,2.79-1.33a65.8,65.8,0,0,0,4-7.83,1.6,1.6,0,0,1,1.32,0,4,4,0,0,1,1.37.93,4.23,4.23,0,0,1,.93,1.46,2.08,2.08,0,0,1,0,1.59l-1,1.79a26.31,26.31,0,0,1,4.63-.42l.91,0c.38,0,.68,0,.92,0a2.71,2.71,0,0,1-.13,1.14,4.54,4.54,0,0,1-.54,1.16,4,4,0,0,1-.79.93,1.31,1.31,0,0,1-.86.39l-.74,0-.77,0a22.1,22.1,0,0,0-2.42.14,22.32,22.32,0,0,0-2.49.42c-.33.56-.67,1.11-1,1.65s-.68,1.05-1,1.55l-.28.45L649,643.76c-.5.77-1,1.63-1.6,2.58s-1.17,1.94-1.77,3-1.17,2-1.69,3-1,1.87-1.3,2.69a8.24,8.24,0,0,0-.63,2,.32.32,0,0,0-.07.18.12.12,0,0,1,0,.1h.25a6.45,6.45,0,0,0,2-1.14,16.7,16.7,0,0,0,1.9-1.79,26.64,26.64,0,0,0,1.75-2.14c.56-.76,1.1-1.5,1.62-2.23h0a6.5,6.5,0,0,1,.46-.61l.46-.58c.09-.14.25-.18.49-.11a2.32,2.32,0,0,1,.68.35,2.07,2.07,0,0,1,.53.58.56.56,0,0,1,.05.58l-1.16,1.58c-1,1.33-2,2.69-3.11,4.06a26.07,26.07,0,0,1-3.52,3.59,7,7,0,0,1-.81.62,7.54,7.54,0,0,1-1.09.61,8.63,8.63,0,0,1-1.26.48,5.16,5.16,0,0,1-1.34.19,2.24,2.24,0,0,1-1.26-.39,2.16,2.16,0,0,1-.75-.93,3.61,3.61,0,0,1-.32-1.33,7,7,0,0,1,.09-1.67c0-.26.1-.53.17-.82a4.6,4.6,0,0,1,.25-.79,30.2,30.2,0,0,1,1.37-3.58c.53-1.2,1.12-2.38,1.75-3.55s1.29-2.33,2-3.47,1.38-2.27,2.08-3.37l.46-.71-2.35,1.2Z"/><path class="cls-1" d="M669.32,653.59c-.45.61-1,1.34-1.76,2.21a31.26,31.26,0,0,1-2.39,2.53,17.75,17.75,0,0,1-2.65,2.08,4.73,4.73,0,0,1-2.54.86,3.75,3.75,0,0,1-1.41-.26,2.52,2.52,0,0,1-1.08-.82,3.34,3.34,0,0,1-.58-1.46,5.74,5.74,0,0,1,.08-2.12,18.44,18.44,0,0,1,.62-2.08,22.76,22.76,0,0,1,.91-2.14c.36-.75.78-1.56,1.25-2.44s1-1.86,1.61-3a12.14,12.14,0,0,0,.69-1.32,5.44,5.44,0,0,0,.33-1l-1.68,1.44q-1.38,1.13-2.55,2.28c-.78.77-1.59,1.6-2.4,2.49q-1.28,2.32-2.32,4.65a31.41,31.41,0,0,0-1.69,4.76c-.09.26-.34.37-.73.35a3.37,3.37,0,0,1-1.25-.33,4.56,4.56,0,0,1-1.16-.76,1.1,1.1,0,0,1-.47-.91,26.93,26.93,0,0,1,1.31-4.32q.87-2.18,2-4.35c.75-1.45,1.55-2.9,2.42-4.35s1.73-2.89,2.6-4.32l1.4-2.25c.54-.89,1.07-1.79,1.6-2.72s1-1.83,1.51-2.72.92-1.75,1.33-2.58.76-1.6,1-2.3a1.58,1.58,0,0,1,1.31,0,3.88,3.88,0,0,1,1.37.93,4.23,4.23,0,0,1,.93,1.46,2.08,2.08,0,0,1,0,1.59,15.07,15.07,0,0,1-.82,1.51l-1.32,2.2c-.49.81-1,1.65-1.56,2.53s-1.08,1.71-1.6,2.51l-.59.91a15.65,15.65,0,0,1,2.4-1.41,7.31,7.31,0,0,1,2.41-.66,1.39,1.39,0,0,1,1,.44,4.3,4.3,0,0,1,.83,1.07,4,4,0,0,1,.45,1.37,2.27,2.27,0,0,1-.14,1.29c-.61,1.2-1.2,2.32-1.79,3.36s-1.09,1.93-1.51,2.68l-1,1.81c-.32.55-.6,1.09-.85,1.63s-.46,1.09-.66,1.65-.38,1.17-.55,1.83a.84.84,0,0,1,.25-.21h0a14.75,14.75,0,0,0,2.6-1.79,21.44,21.44,0,0,0,3.23-3.44c.31-.38.59-.74.86-1.09l.79-1,.67-1c.09-.12.27-.15.52-.09a2,2,0,0,1,.72.33,1.93,1.93,0,0,1,.53.58.46.46,0,0,1,0,.58l0-.07-2.39,3.37Z"/><path class="cls-2" d="M733.33,645.18c0-3.5-4.38-6.81-11.09-8.87,1.55-6.84.86-12.28-2.17-14a4.72,4.72,0,0,0-2.41-.61v2.4a2.5,2.5,0,0,1,1.22.28c1.47.84,2.1,4,1.61,8.14-.12,1-.32,2.08-.55,3.17a51.84,51.84,0,0,0-6.83-1.18,52.82,52.82,0,0,0-4.48-5.37c3.51-3.26,6.8-5,9-5v-2.4h0c-3,0-6.83,2.11-10.75,5.77-3.92-3.64-7.79-5.73-10.75-5.73v2.4c2.23,0,5.53,1.78,9,5a50,50,0,0,0-4.44,5.36,49.83,49.83,0,0,0-6.84,1.19,29.43,29.43,0,0,1-.56-3.12c-.51-4.11.11-7.31,1.57-8.16a2.41,2.41,0,0,1,1.23-.28v-2.39h0a4.79,4.79,0,0,0-2.43.6c-3,1.74-3.7,7.17-2.14,14-6.69,2.07-11.05,5.37-11.05,8.86s4.38,6.81,11.09,8.86c-1.54,6.84-.86,12.29,2.18,14a4.7,4.7,0,0,0,2.42.6c3,0,6.83-2.11,10.74-5.76,3.92,3.63,7.79,5.72,10.75,5.72a4.76,4.76,0,0,0,2.43-.6c3-1.75,3.7-7.18,2.14-14C729,652,733.33,648.66,733.33,645.18Zm-14-7.18c-.39,1.39-.89,2.82-1.45,4.25-.44-.86-.9-1.72-1.41-2.58s-1-1.7-1.55-2.52C716.44,637.38,717.91,637.66,719.32,638Zm-4.92,11.46c-.84,1.45-1.7,2.83-2.6,4.11q-2.4.21-4.86.21c-1.62,0-3.25-.07-4.84-.2-.89-1.28-1.76-2.65-2.6-4.09s-1.56-2.84-2.24-4.28c.67-1.44,1.42-2.88,2.23-4.29s1.7-2.83,2.59-4.11c1.6-.14,3.23-.22,4.86-.22s3.25.08,4.84.21q1.35,1.92,2.61,4.08c.81,1.41,1.56,2.84,2.23,4.29C716,646.61,715.2,648.05,714.4,649.46Zm3.47-1.4c.58,1.44,1.08,2.88,1.49,4.28a44.77,44.77,0,0,1-4.44.86c.53-.83,1.06-1.68,1.55-2.55S717.43,648.92,717.87,648.06ZM707,659.54c-1-1-2-2.19-3-3.44,1,0,2,.07,3,.07s2,0,3-.07A43.27,43.27,0,0,1,707,659.54Zm-8-6.34a44.73,44.73,0,0,1-4.41-.85c.4-1.39.89-2.82,1.45-4.25.44.86.91,1.72,1.41,2.59S698.43,652.38,699,653.2Zm7.95-22.38a43.7,43.7,0,0,1,3,3.44c-1,0-2-.08-3-.08s-2,0-3,.08A41.56,41.56,0,0,1,706.91,630.82Zm-8,6.33c-.53.83-1.06,1.68-1.55,2.55s-1,1.72-1.4,2.58c-.58-1.44-1.07-2.88-1.48-4.28C695.93,637.67,697.41,637.38,699,637.15Zm-9.74,13.47c-3.8-1.62-6.27-3.75-6.27-5.44s2.47-3.83,6.27-5.45c.93-.39,1.94-.75,3-1.08a52.8,52.8,0,0,0,2.42,6.55,50.46,50.46,0,0,0-2.38,6.52C691.16,651.38,690.15,651,689.21,650.62ZM695,666c-1.46-.84-2.1-4-1.6-8.14.12-1,.31-2.08.55-3.16a53.59,53.59,0,0,0,6.83,1.17,52.93,52.93,0,0,0,4.47,5.38c-3.5,3.26-6.8,5-9,5A2.47,2.47,0,0,1,695,666Zm25.52-8.19c.5,4.11-.12,7.3-1.57,8.15a2.45,2.45,0,0,1-1.24.28c-2.23,0-5.53-1.78-9-5a50.18,50.18,0,0,0,4.45-5.37,51.72,51.72,0,0,0,6.84-1.18A29.6,29.6,0,0,1,720.52,657.8Zm4.14-7.18c-.93.4-1.94.75-3,1.09a50.69,50.69,0,0,0-2.42-6.55,51.12,51.12,0,0,0,2.39-6.52c1.06.33,2.07.7,3,1.09,3.81,1.63,6.27,3.76,6.27,5.45S728.47,649,724.66,650.62Z"/><circle class="cls-2" cx="706.93" cy="645.18" r="4.92"/><path class="cls-2" d="M743.08,633a36.57,36.57,0,0,1,6.14-.52c3.43,0,5.67.67,7.18,2a6.33,6.33,0,0,1,2,4.74,6.52,6.52,0,0,1-4.64,6.3v.11c1.88.66,3,2.43,3.61,5a40,40,0,0,0,1.91,6.81h-3.31a31.06,31.06,0,0,1-1.62-5.92c-.73-3.43-2.1-4.71-5-4.82h-3v10.74h-3.2Zm3.2,11.3h3.27c3.43,0,5.6-1.88,5.6-4.71,0-3.21-2.32-4.6-5.71-4.6a14.61,14.61,0,0,0-3.16.25Z"/><path class="cls-2" d="M764.71,649.16c.08,4.37,2.84,6.18,6.11,6.18a11.63,11.63,0,0,0,4.93-.92l.59,2.32a14.56,14.56,0,0,1-6,1.14c-5.48,0-8.76-3.65-8.76-9s3.17-9.57,8.36-9.57c5.85,0,7.36,5.08,7.36,8.36a8.26,8.26,0,0,1-.11,1.51Zm9.5-2.32c0-2-.85-5.23-4.49-5.23-3.31,0-4.71,3-5,5.23Z"/><path class="cls-2" d="M793.86,653.2a29,29,0,0,0,.26,4.27h-2.91l-.26-2.24h-.11a6.63,6.63,0,0,1-5.44,2.65,5.08,5.08,0,0,1-5.45-5.12c0-4.3,3.83-6.66,10.71-6.62v-.37c0-1.44-.41-4.12-4-4.09a8.55,8.55,0,0,0-4.67,1.33l-.74-2.17a11.52,11.52,0,0,1,5.89-1.55c5.45,0,6.77,3.72,6.77,7.25Zm-3.13-4.82c-3.53-.07-7.54.55-7.54,4a2.84,2.84,0,0,0,3,3.1,4.49,4.49,0,0,0,4.37-3,3.29,3.29,0,0,0,.15-1Z"/><path class="cls-2" d="M811.78,656.85a12.61,12.61,0,0,1-5.12,1c-5.37,0-8.87-3.65-8.87-9.09s3.76-9.5,9.57-9.5a10.14,10.14,0,0,1,4.49,1l-.73,2.46a8,8,0,0,0-3.76-.84c-4.08,0-6.29,3-6.29,6.73,0,4.12,2.65,6.66,6.18,6.66a9.39,9.39,0,0,0,4-.84Z"/><path class="cls-2" d="M820,635.39v4.27h4.64v2.46H820v9.61c0,2.21.62,3.46,2.43,3.46a5.9,5.9,0,0,0,1.87-.22l.15,2.47a8.83,8.83,0,0,1-2.87.44,4.66,4.66,0,0,1-3.5-1.36c-.88-1-1.25-2.58-1.25-4.68v-9.72H814v-2.46h2.76v-3.31Z"/></g></g></svg>