<svg xmlns="http://www.w3.org/2000/svg" viewBox="0 0 874.85 705.65"><defs><style>.cls-1{font-size:65.4px;}.cls-1,.cls-5{fill:#fffdfd;font-family:VeganStylePersonalUse, Vegan Style Personal Use;}.cls-2{letter-spacing:0.05em;}.cls-3{font-size:199.83px;}.cls-4{font-size:167.13px;}.cls-5{font-size:35.1px;letter-spacing:0.05em;}.cls-6,.cls-7{fill:#fff;}.cls-7{font-size:36.8px;font-family:MyriadPro-Regular, Myriad Pro;}.cls-8{letter-spacing:0em;}.cls-9{letter-spacing:0em;}.cls-10{letter-spacing:0.01em;}</style></defs><title>Asset 3</title><g id="Layer_2" data-name="Layer 2"><g id="Layer_2-2" data-name="Layer 2"><text class="cls-1" transform="translate(12.57 66.09)"><tspan class="cls-2" xml:space="preserve">    </tspan><tspan x="71.94" y="0">Welcome to</tspan><tspan class="cls-3"><tspan x="0" y="245.25">Jeff Lung</tspan></tspan><tspan class="cls-4"><tspan x="0" y="519.56" xml:space="preserve">  Portfolio</tspan></tspan></text><text class="cls-5" transform="translate(518.05 660.47)">built with </text><path class="cls-6" d="M733.33,645.18c0-3.5-4.38-6.81-11.09-8.87,1.55-6.84.86-12.28-2.18-14a4.79,4.79,0,0,0-2.41-.6v2.4a2.51,2.51,0,0,1,1.23.28c1.46.84,2.1,4,1.6,8.14a29.72,29.72,0,0,1-.55,3.17,51.56,51.56,0,0,0-6.83-1.18,51.49,51.49,0,0,0-4.47-5.37c3.51-3.26,6.8-5,9-5v-2.4h0c-2.95,0-6.83,2.11-10.74,5.77-3.92-3.64-7.79-5.73-10.75-5.73v2.4c2.23,0,5.53,1.78,9,5a51.25,51.25,0,0,0-4.45,5.36,50.09,50.09,0,0,0-6.84,1.19c-.24-1.08-.43-2.12-.56-3.12-.5-4.11.12-7.31,1.57-8.16a2.47,2.47,0,0,1,1.24-.28v-2.39h0a4.79,4.79,0,0,0-2.43.6c-3,1.74-3.7,7.17-2.14,14-6.69,2.07-11.05,5.37-11.05,8.86s4.38,6.81,11.09,8.86c-1.55,6.84-.86,12.29,2.18,14a4.67,4.67,0,0,0,2.42.6c3,0,6.83-2.11,10.74-5.76,3.92,3.63,7.79,5.72,10.75,5.72a4.89,4.89,0,0,0,2.43-.6c3-1.75,3.7-7.18,2.14-14C729,652,733.33,648.66,733.33,645.18Zm-14-7.18c-.4,1.39-.89,2.82-1.45,4.25-.44-.86-.9-1.72-1.41-2.58s-1-1.7-1.55-2.52C716.44,637.38,717.91,637.66,719.32,638Zm-4.93,11.46c-.83,1.45-1.7,2.83-2.59,4.11-1.6.14-3.23.21-4.86.21s-3.25-.07-4.84-.2c-.89-1.28-1.77-2.65-2.6-4.09s-1.56-2.84-2.24-4.28c.66-1.44,1.42-2.88,2.22-4.29s1.7-2.83,2.6-4.11c1.6-.14,3.22-.22,4.86-.22s3.25.08,4.84.21q1.34,1.92,2.6,4.08c.82,1.41,1.56,2.84,2.24,4.29C715.94,646.61,715.2,648.05,714.39,649.46Zm3.48-1.4a43.55,43.55,0,0,1,1.48,4.28,44.56,44.56,0,0,1-4.43.86c.53-.83,1.06-1.68,1.55-2.55S717.43,648.92,717.87,648.06ZM707,659.54c-1-1-2-2.19-3-3.44,1,0,2,.07,3,.07s2,0,3-.07A43.27,43.27,0,0,1,707,659.54Zm-8-6.34a44.73,44.73,0,0,1-4.41-.85c.39-1.39.89-2.82,1.45-4.25.44.86.9,1.72,1.41,2.58S698.43,652.38,699,653.2Zm7.95-22.38a43.7,43.7,0,0,1,3,3.44c-1,0-2-.08-3-.08s-2,0-3,.08A41.56,41.56,0,0,1,706.91,630.82Zm-8,6.33c-.53.83-1.06,1.68-1.55,2.55s-1,1.72-1.4,2.58c-.58-1.44-1.08-2.88-1.49-4.28C695.92,637.67,697.41,637.38,699,637.15Zm-9.74,13.47c-3.81-1.62-6.27-3.75-6.27-5.44s2.46-3.83,6.27-5.45c.93-.39,1.94-.75,3-1.08a51.24,51.24,0,0,0,2.42,6.55,52.1,52.1,0,0,0-2.39,6.52C691.16,651.38,690.15,651,689.21,650.62ZM695,666c-1.46-.84-2.1-4-1.6-8.14.11-1,.31-2.08.54-3.16a53.75,53.75,0,0,0,6.84,1.17,51.65,51.65,0,0,0,4.47,5.38c-3.51,3.26-6.8,5-9,5A2.46,2.46,0,0,1,695,666Zm25.52-8.19c.5,4.1-.12,7.3-1.57,8.15a2.47,2.47,0,0,1-1.24.28c-2.23,0-5.53-1.78-9-5a51.15,51.15,0,0,0,4.44-5.37,50,50,0,0,0,6.85-1.19C720.2,655.75,720.4,656.79,720.52,657.8Zm4.14-7.18c-.93.4-1.94.75-3,1.09a52.21,52.21,0,0,0-2.42-6.55,52.69,52.69,0,0,0,2.39-6.52c1.06.33,2.07.7,3,1.09,3.81,1.63,6.27,3.76,6.27,5.45S728.47,649,724.66,650.62Z"/><circle class="cls-6" cx="706.93" cy="645.18" r="4.92"/><text class="cls-7" transform="translate(740.28 657.47)"><tspan class="cls-8">R</tspan><tspan class="cls-9" x="19.94" y="0">ea</tspan><tspan class="cls-10" x="56.12" y="0">c</tspan><tspan x="73.08" y="0">t</tspan></text></g></g></svg>