<svg xmlns="http://www.w3.org/2000/svg" viewBox="0 0 652.596 9.125">
  <title>Asset 3</title>
  <g id="Layer_2" data-name="Layer 2">
    <g id="Layer_1-2" data-name="Layer 1">
      <g id="Layer_1-2-2" data-name="Layer 1-2">
        <path d="M489.286,9.125c-40.773,0-61.5-2.21-81.544-4.348C387.721,2.642,367.019.435,326.3.435s-61.425,2.207-81.445,4.342C224.81,6.915,204.082,9.125,163.31,9.125s-61.5-2.21-81.543-4.348C61.743,2.642,41.041.435.32.435.143.435,0,.337,0,.217S.143,0,.32,0c40.771,0,61.5,2.21,81.542,4.348,20.021,2.135,40.722,4.343,81.444,4.343s61.425-2.208,81.445-4.343C264.8,2.21,285.524,0,326.3,0s61.5,2.21,81.545,4.348c20.02,2.135,40.722,4.343,81.445,4.343s61.424-2.208,81.445-4.343C590.776,2.21,611.5,0,652.276,0c.177,0,.32.1.32.217s-.143.218-.32.218c-40.723,0-61.425,2.207-81.446,4.342C550.785,6.915,530.058,9.125,489.286,9.125Z" style="fill: #e4f7f6"/>
      </g>
    </g>
  </g>
</svg>
