<svg xmlns="http://www.w3.org/2000/svg" viewBox="0 0 76.7 43.74"><defs><style>.cls-1{fill:#e503bb;}.cls-2{fill:#0582c9;}</style></defs><title>Asset 13</title><g id="Layer_2" data-name="Layer 2"><g id="Layer_4" data-name="Layer 4"><path class="cls-1" d="M27.25,9.12a2.71,2.71,0,0,1-1.43.44,1.55,1.55,0,0,1-1-.33,2.68,2.68,0,0,1-.68-.75,2.61,2.61,0,0,1-.34-.85.91.91,0,0,1,0-.59c.4-.19.81-.42,1.25-.67a9.38,9.38,0,0,0,1.2-.82,5,5,0,0,0,.95-1,2.42,2.42,0,0,0,.5-1A.63.63,0,0,0,27.57,3a1.25,1.25,0,0,0-.79-.31,1.51,1.51,0,0,0-.42-.05H26a11.89,11.89,0,0,0-2,.19,16.75,16.75,0,0,0-2.27.57,17.17,17.17,0,0,0-2.27.93,9.75,9.75,0,0,0-2,1.28A7,7,0,0,0,16,7.28a4.24,4.24,0,0,0-.63,2,4.36,4.36,0,0,0,.11,1.39A6.8,6.8,0,0,0,15.91,12a12.85,12.85,0,0,0,.72,1.3l.84,1.29c.35.53.69,1.07,1,1.62a9.39,9.39,0,0,1,.83,1.72,7.65,7.65,0,0,1,.44,1.86,5.82,5.82,0,0,1-.14,2,9.61,9.61,0,0,1-1.7,3.2,15.55,15.55,0,0,1-3,3A15.82,15.82,0,0,1,11,30.12a10.57,10.57,0,0,1-4.21.73,9.39,9.39,0,0,1-2.41-.56A8.34,8.34,0,0,1,2.09,29,5.81,5.81,0,0,1,.46,27.09,4.33,4.33,0,0,1,.05,24.4a8,8,0,0,1,1.23-3.21,10.69,10.69,0,0,1,3.14-3l-.1,0c.14-.13.4-.1.79.07A7.67,7.67,0,0,1,6.29,19a7.1,7.1,0,0,1,1,.89c.29.3.39.53.33.68L6.92,21l-1.19.65a7.64,7.64,0,0,0-1.09.77,4.64,4.64,0,0,0-.87,1,3,3,0,0,0-.47,1.21,2.91,2.91,0,0,0,.17,1.69,2.4,2.4,0,0,0,1,1,4.26,4.26,0,0,0,1.47.5,11.91,11.91,0,0,0,1.69.13,9.17,9.17,0,0,0,2.8-.43,8.17,8.17,0,0,0,2.35-1.21,6.65,6.65,0,0,0,1.72-1.9,7.15,7.15,0,0,0,.91-2.52,4,4,0,0,0,0-1.38,5.67,5.67,0,0,0-.46-1.31,8.91,8.91,0,0,0-.74-1.25c-.28-.41-.57-.81-.87-1.21s-.68-1-1-1.47a8.16,8.16,0,0,1-.82-1.54A6.52,6.52,0,0,1,11,12a4.92,4.92,0,0,1,.15-1.84A8.75,8.75,0,0,1,12.47,7.4a13.85,13.85,0,0,1,2.21-2.48,18,18,0,0,1,2.86-2.1,22,22,0,0,1,3.24-1.58,18.67,18.67,0,0,1,3.34-1A13.57,13.57,0,0,1,27.3,0a3.82,3.82,0,0,1,1.52.41,2.45,2.45,0,0,1,.91.83,2.54,2.54,0,0,1,.39,1.18,5.81,5.81,0,0,1-.06,1.43,9.05,9.05,0,0,1-1,2.88A10.6,10.6,0,0,1,27.38,9Z"/><path class="cls-1" d="M38,19.88c-.59.8-1.24,1.65-2,2.57A23.26,23.26,0,0,1,33.76,25a12.53,12.53,0,0,1-2.56,1.94,5.64,5.64,0,0,1-2.81.77,3.1,3.1,0,0,1-2.27-1A4.74,4.74,0,0,1,25,24.38c-.17.43-.33.86-.48,1.28s-.27.86-.38,1.29c-.06.19-.25.28-.54.26a2.54,2.54,0,0,1-.92-.25,3.16,3.16,0,0,1-.86-.55.86.86,0,0,1-.35-.68,20.11,20.11,0,0,1,1-3.2c.43-1.07.92-2.15,1.47-3.22s1.15-2.15,1.79-3.23l1.93-3.19,1-1.67c.4-.66.79-1.33,1.18-2s.76-1.36,1.12-2,.68-1.29,1-1.91.56-1.18.76-1.7a1.16,1.16,0,0,1,1,0,3.13,3.13,0,0,1,1.7,1.77,1.51,1.51,0,0,1,0,1.18c-.12.26-.32.63-.61,1.12s-.61,1-1,1.62-.75,1.23-1.16,1.88-.8,1.27-1.18,1.85l-.45.68a12.18,12.18,0,0,1,1.79-1,5.16,5.16,0,0,1,1.78-.49,1.18,1.18,0,0,1,.74.32,2.79,2.79,0,0,1,.63.8,2.75,2.75,0,0,1,.34,1,1.54,1.54,0,0,1-.15,1,14.16,14.16,0,0,1-1,1.78L34,18.71c-.34.5-.67,1-1,1.49a7.72,7.72,0,0,0-.77,1.86A5.39,5.39,0,0,1,31,21.27a4.15,4.15,0,0,1-.78-.88,2.43,2.43,0,0,1-.33-.89,2.84,2.84,0,0,1,0-.82,2.44,2.44,0,0,1,.24-.72,4.08,4.08,0,0,1,.28-.5c.42-.5.77-.94,1-1.32l.68-.94a8,8,0,0,1-1.28,1.25c-.76.62-1.46,1.25-2.1,1.87a9.52,9.52,0,0,0-1,1.7,7.66,7.66,0,0,0-.48,1.42,2.89,2.89,0,0,0,0,1.32,2.51,2.51,0,0,0,.49,1,2.07,2.07,0,0,0,.81.6,2.45,2.45,0,0,0,1,.19,4.4,4.4,0,0,0,2.14-.63,11,11,0,0,0,2-1.52,18.6,18.6,0,0,0,1.79-2c.56-.7,1.05-1.35,1.48-2a.42.42,0,0,1,.42-.05,1.54,1.54,0,0,1,.53.26,1.23,1.23,0,0,1,.39.43.33.33,0,0,1,0,.42l0-.05Z"/><path class="cls-1" d="M41.83,12.21a1.06,1.06,0,0,1,.91.06,2.56,2.56,0,0,1,.91.73,2.8,2.8,0,0,1,.55,1.12A1.64,1.64,0,0,1,44,15.36s0,0-.05.1l-.29.42-.41.59q-.24.34-.42.63l-1,1.49L40.7,20.26c-.37.56-.72,1.11-1.06,1.65s-.63,1-.86,1.43-.4.75-.51,1-.1.38,0,.38h.18a5.71,5.71,0,0,0,1.64-.85,12.09,12.09,0,0,0,1.55-1.34c.49-.5,1-1,1.44-1.6l1.36-1.62.46-.63a.39.39,0,0,1,.42-.06,1.39,1.39,0,0,1,.8.8.42.42,0,0,1,0,.46l0-.05c-.87,1.12-1.84,2.27-2.91,3.43a32.81,32.81,0,0,1-3.25,3.07l-.64.43a7,7,0,0,1-.82.45,5.52,5.52,0,0,1-.94.35,3.2,3.2,0,0,1-1,.15,1.4,1.4,0,0,1-1.36-.8A3.27,3.27,0,0,1,35.05,25a8.67,8.67,0,0,1,.57-1.77l0,0a24.37,24.37,0,0,1,1.49-3c.65-1.14,1.32-2.28,2-3.43.45-.78.88-1.54,1.31-2.27s.78-1.41,1.08-2Zm4-8a1,1,0,0,1,.74.35,6.27,6.27,0,0,1,.8.94A7.46,7.46,0,0,1,48,6.61a1.36,1.36,0,0,1,.19.76,7.86,7.86,0,0,1-.63,1.33L46.8,9.87l-.74,1.22a12.34,12.34,0,0,0-.74,1.46,1.62,1.62,0,0,1-.66-.38,3.83,3.83,0,0,1-.64-.69,4.33,4.33,0,0,1-.46-.8,1.29,1.29,0,0,1-.11-.71,10.88,10.88,0,0,1,.35-1.14c.14-.42.31-.85.51-1.3s.37-.91.54-1.38.31-.92.42-1.35Z"/><path class="cls-1" d="M53.28,13.35c-.21.33-.5.78-.86,1.36s-.76,1.2-1.19,1.91-.86,1.43-1.31,2.21-.87,1.51-1.25,2.23-.7,1.38-1,2a6.1,6.1,0,0,0-.47,1.46.27.27,0,0,0-.05.13.11.11,0,0,1,0,.08h.19a5.22,5.22,0,0,0,1.48-.85,12.39,12.39,0,0,0,1.4-1.33A18.53,18.53,0,0,0,51.53,21c.42-.57.82-1.11,1.2-1.65h0c.11-.16.22-.31.34-.46s.24-.29.34-.43.19-.13.36-.07a1.45,1.45,0,0,1,.51.26,1.55,1.55,0,0,1,.39.42.43.43,0,0,1,0,.43l-.86,1.17c-.71,1-1.48,2-2.3,3a19.38,19.38,0,0,1-2.61,2.66c-.16.14-.36.29-.6.46a6.14,6.14,0,0,1-.81.45,5.42,5.42,0,0,1-.93.35,3.4,3.4,0,0,1-1,.15,1.8,1.8,0,0,1-.94-.29,1.66,1.66,0,0,1-.56-.69,2.94,2.94,0,0,1-.23-1,5.88,5.88,0,0,1,.06-1.23c0-.19.08-.4.13-.61a5.14,5.14,0,0,1,.19-.59,24.58,24.58,0,0,1,2.17-5.06c.92-1.63,1.88-3.25,2.87-4.84l1.4-2.19c.4-.66.8-1.33,1.19-2s.76-1.36,1.12-2,.68-1.29,1-1.91.56-1.18.77-1.7a1.16,1.16,0,0,1,1,0,2.94,2.94,0,0,1,1,.69,3.22,3.22,0,0,1,.69,1.08,1.51,1.51,0,0,1,0,1.18c-.12.26-.33.63-.61,1.12l-1,1.64-1.17,1.88c-.41.65-.79,1.26-1.16,1.83Z"/><path class="cls-1" d="M61.57,13.35c-.21.33-.5.78-.86,1.36s-.76,1.2-1.18,1.91-.87,1.43-1.32,2.21-.86,1.51-1.24,2.23-.71,1.38-1,2a6,6,0,0,0-.46,1.46.22.22,0,0,0-.06.13.11.11,0,0,1,0,.08h.18a5.08,5.08,0,0,0,1.48-.85,11.67,11.67,0,0,0,1.41-1.33c.45-.49.88-1,1.3-1.58s.81-1.11,1.19-1.65h0a4.84,4.84,0,0,1,.33-.46,4.26,4.26,0,0,0,.34-.43c.07-.1.19-.13.37-.07a1.41,1.41,0,0,1,.5.26,1.29,1.29,0,0,1,.39.42.4.4,0,0,1,0,.43l-.86,1.17c-.71,1-1.47,2-2.3,3A18.82,18.82,0,0,1,57.2,26.3a6.11,6.11,0,0,1-.6.46,6.7,6.7,0,0,1-.8.45,5.86,5.86,0,0,1-.94.35,3.4,3.4,0,0,1-1,.15,1.74,1.74,0,0,1-.93-.29,1.59,1.59,0,0,1-.56-.69,2.94,2.94,0,0,1-.24-1,5.93,5.93,0,0,1,.07-1.23c0-.19.08-.4.13-.61a3.76,3.76,0,0,1,.18-.59,24.58,24.58,0,0,1,2.17-5.06c.93-1.63,1.89-3.25,2.88-4.84L59,11.22c.4-.66.79-1.33,1.18-2s.76-1.36,1.12-2,.68-1.29,1-1.91.56-1.18.77-1.7a1.13,1.13,0,0,1,1,0,3.13,3.13,0,0,1,1.7,1.77,1.51,1.51,0,0,1,0,1.18c-.12.26-.32.63-.61,1.12s-.61,1-1,1.64l-1.17,1.88c-.4.65-.79,1.26-1.15,1.83Z"/><path class="cls-1" d="M59.41,23.78a6.59,6.59,0,0,1,.83-2.13A5.62,5.62,0,0,1,61.72,20l.73-.93c.59-.83,1.19-1.66,1.81-2.47s1.25-1.61,1.91-2.37a4.23,4.23,0,0,0,.36-.41l.34-.42c.37-.47.79-1,1.26-1.51a17.83,17.83,0,0,1,2-1.87,10,10,0,0,1,.88.58,4.1,4.1,0,0,1,.87.84,1.86,1.86,0,0,1,.41.95,1,1,0,0,1-.5.88l.08,0a9.72,9.72,0,0,0-.74.69c-.15.17-.31.36-.48.59l-.42.52a6.84,6.84,0,0,0-1,1.92,13,13,0,0,0-.54,2,10.56,10.56,0,0,0-.15,1.11c0,.37-.07.75-.11,1.13l-.18,1.56a6.51,6.51,0,0,1-.65,2.14,5.79,5.79,0,0,1-1.23,1.66,5.15,5.15,0,0,1-1.67,1,4.52,4.52,0,0,1-1.94.3,4.47,4.47,0,0,1-1.71-.44,3.16,3.16,0,0,1-1.11-.91,3.12,3.12,0,0,1-.53-1.25A4.09,4.09,0,0,1,59.41,23.78ZM65.21,19a3.58,3.58,0,0,1,.08-.43c0-.15.07-.29.1-.43L64.3,19.57l0,0a5.62,5.62,0,0,1,.11.72,7.42,7.42,0,0,1,0,1.06,5.22,5.22,0,0,1-.14,1.07,1.33,1.33,0,0,1-.38.74.65.65,0,0,0-.52-.48,1.27,1.27,0,0,0-.75.12,2.3,2.3,0,0,0-.7.5,1.42,1.42,0,0,0-.39.67.85.85,0,0,0,0,.32,2.32,2.32,0,0,0,.07.38,1.27,1.27,0,0,0,.55.61,2.35,2.35,0,0,0,.73.25,1.11,1.11,0,0,0,.7-.13,2,2,0,0,0,.56-.5,3.33,3.33,0,0,0,.42-.72,4.32,4.32,0,0,0,.24-.89c.07-.62.12-1.28.16-2,0-.37.06-.75.09-1.15A8.93,8.93,0,0,1,65.21,19Z"/><path class="cls-2" d="M1,43.74s.61-7.41,16.7-8.45c10.82-.71,29.39,3.6,43,4a35.06,35.06,0,0,0,16-3c-3.32,2.22-9,5.55-16,6-7.86.5-31.25-1.8-41-2C12.7,40.14,5.47,41.45,1,43.74Z"/></g></g></svg>