<svg xmlns="http://www.w3.org/2000/svg" viewBox="0 0 213.88 38.76"><defs><style>.cls-1{fill:#00D4FF;}</style></defs><title>Asset 12</title><g id="Layer_2" data-name="Layer 2"><g id="Layer_4" data-name="Layer 4"><path class="cls-1" d="M27.25,9.12a2.71,2.71,0,0,1-1.43.44,1.55,1.55,0,0,1-1-.33,2.68,2.68,0,0,1-.68-.75,2.61,2.61,0,0,1-.34-.85.91.91,0,0,1,0-.59c.4-.19.81-.42,1.25-.67a9.38,9.38,0,0,0,1.2-.82,5,5,0,0,0,.95-1,2.42,2.42,0,0,0,.5-1A.63.63,0,0,0,27.57,3a1.25,1.25,0,0,0-.79-.31,1.51,1.51,0,0,0-.42-.05H26a11.89,11.89,0,0,0-2,.19,16.75,16.75,0,0,0-2.27.57,17.17,17.17,0,0,0-2.27.93,9.75,9.75,0,0,0-2,1.28A7,7,0,0,0,16,7.28a4.24,4.24,0,0,0-.63,2,4.36,4.36,0,0,0,.11,1.39A6.8,6.8,0,0,0,15.91,12a12.85,12.85,0,0,0,.72,1.3l.84,1.29c.35.53.69,1.07,1,1.62a9.39,9.39,0,0,1,.83,1.72,7.65,7.65,0,0,1,.44,1.86,5.82,5.82,0,0,1-.14,2,9.61,9.61,0,0,1-1.7,3.2,15.55,15.55,0,0,1-3,3A15.82,15.82,0,0,1,11,30.12a10.57,10.57,0,0,1-4.21.73,9.39,9.39,0,0,1-2.41-.56A8.34,8.34,0,0,1,2.09,29,5.81,5.81,0,0,1,.46,27.09,4.33,4.33,0,0,1,.05,24.4a8,8,0,0,1,1.23-3.21,10.69,10.69,0,0,1,3.14-3l-.1,0c.14-.13.4-.1.79.07A7.67,7.67,0,0,1,6.29,19a7.1,7.1,0,0,1,1,.89c.29.3.39.53.33.68L6.92,21l-1.19.65a7.64,7.64,0,0,0-1.09.77,4.64,4.64,0,0,0-.87,1,3,3,0,0,0-.47,1.21,2.91,2.91,0,0,0,.17,1.69,2.4,2.4,0,0,0,1,1,4.26,4.26,0,0,0,1.47.5,11.91,11.91,0,0,0,1.69.13,9.17,9.17,0,0,0,2.8-.43,8.17,8.17,0,0,0,2.35-1.21,6.65,6.65,0,0,0,1.72-1.9,7.15,7.15,0,0,0,.91-2.52,4,4,0,0,0,0-1.38,5.67,5.67,0,0,0-.46-1.31,8.91,8.91,0,0,0-.74-1.25c-.28-.41-.57-.81-.87-1.21s-.68-1-1-1.47a8.16,8.16,0,0,1-.82-1.54A6.52,6.52,0,0,1,11,12a4.92,4.92,0,0,1,.15-1.84A8.75,8.75,0,0,1,12.47,7.4a13.85,13.85,0,0,1,2.21-2.48,18,18,0,0,1,2.86-2.1,22,22,0,0,1,3.24-1.58,18.67,18.67,0,0,1,3.34-1A13.57,13.57,0,0,1,27.3,0a3.82,3.82,0,0,1,1.52.41,2.45,2.45,0,0,1,.91.83,2.54,2.54,0,0,1,.39,1.18,5.81,5.81,0,0,1-.06,1.43,9.05,9.05,0,0,1-1,2.88A10.6,10.6,0,0,1,27.38,9Z"/><path class="cls-1" d="M33.18,12a2.16,2.16,0,0,1,1.52,1,3.83,3.83,0,0,1,.53,1.82,2.17,2.17,0,0,1,.36.89,5.82,5.82,0,0,1,.11,1.17,1.85,1.85,0,0,0-.07.41c0,.14,0,.31-.06.5a10.17,10.17,0,0,1-.66,2.27,16.4,16.4,0,0,1-1.16,2.24,15,15,0,0,1-1.54,2.05,12.81,12.81,0,0,1-1.79,1.69,8.79,8.79,0,0,1-1.91,1.13,4.76,4.76,0,0,1-1.89.42,3.87,3.87,0,0,1-2.78-1.12,4.75,4.75,0,0,1-1.14-3.38c0-.19,0-.39,0-.61s.05-.45.08-.69a9,9,0,0,1,.73-2.3,14.42,14.42,0,0,1,1.33-2.3,14.74,14.74,0,0,1,1.78-2.11,12.66,12.66,0,0,1,2.09-1.7A9.51,9.51,0,0,1,31,12.33,5.62,5.62,0,0,1,33.18,12Zm-1.82,6.86a.47.47,0,0,1-.28-.36,3.16,3.16,0,0,1-.06-.64,4.91,4.91,0,0,1,.06-.74c.05-.26.09-.49.12-.68a1.71,1.71,0,0,1,.33-.66,3.22,3.22,0,0,1,.53-.57,5,5,0,0,1,.56-.43,3.49,3.49,0,0,1,.43-.26.78.78,0,0,0-.37-.05,3.44,3.44,0,0,0-1.32.45,7.23,7.23,0,0,0-1.43,1,11.29,11.29,0,0,0-1.3,1.45,14.3,14.3,0,0,0-1.89,3.35,7.76,7.76,0,0,0-.43,1.57A3.06,3.06,0,0,0,26.39,24a1.15,1.15,0,0,0,1.12.72,2.51,2.51,0,0,0,1.3-.33,6.19,6.19,0,0,0,1.32-.94A10.88,10.88,0,0,0,31.4,22a14.46,14.46,0,0,0,1.1-1.66,13,13,0,0,0,.83-1.73,7.52,7.52,0,0,0,.45-1.58l0-.13a.94.94,0,0,0-.48.16,2.93,2.93,0,0,0-.52.41,3.44,3.44,0,0,0-.45.49,1.79,1.79,0,0,0-.27.47Z"/><path class="cls-1" d="M57,22c-.33.45-.77,1-1.3,1.63a25.66,25.66,0,0,1-1.76,1.88A12.48,12.48,0,0,1,52,27a3.58,3.58,0,0,1-1.9.64,2.83,2.83,0,0,1-1-.2,1.82,1.82,0,0,1-.81-.61,2.42,2.42,0,0,1-.42-1.08,4.26,4.26,0,0,1,.06-1.57,11.7,11.7,0,0,1,.46-1.53A15.61,15.61,0,0,1,49,21.1c.27-.55.58-1.16.92-1.81s.75-1.38,1.2-2.19a7.64,7.64,0,0,0,.52-1,3.4,3.4,0,0,0,.26-.76s-.15.14-.34.31-.49.43-.91.76c-.74.6-1.42,1.21-2,1.8s-1.23,1.26-1.86,2c-.17.3-.34.6-.49.91s-.31.64-.47,1v-.06c-.38.8-.72,1.6-1,2.41A18.64,18.64,0,0,0,44,27c-.05.21-.23.3-.52.29a2.69,2.69,0,0,1-.94-.25,3.56,3.56,0,0,1-.89-.57.88.88,0,0,1-.38-.69,20.61,20.61,0,0,1,1.39-4.26c.61-1.37,1.29-2.74,2-4.11.23-.45.43-.85.62-1.2a3.75,3.75,0,0,1,.4-.67,8.83,8.83,0,0,0-1.38,1c-.73.6-1.4,1.21-2,1.82s-1.25,1.27-1.89,2a34.31,34.31,0,0,0-1.59,3.29A25.48,25.48,0,0,0,37.7,27c-.07.19-.25.28-.55.26a2.59,2.59,0,0,1-.92-.25,3.32,3.32,0,0,1-.86-.55.89.89,0,0,1-.35-.68,19.11,19.11,0,0,1,.61-2.28c.25-.73.54-1.46.85-2.18s.64-1.43,1-2.13.71-1.41,1.08-2.12.82-1.64,1.22-2.43.75-1.55,1.07-2.28a1,1,0,0,1,.76,0,2.81,2.81,0,0,1,.87.46,3.11,3.11,0,0,1,.73.76,2.29,2.29,0,0,1,.39,1,15.72,15.72,0,0,1,2.26-1.58,5.29,5.29,0,0,1,2.29-.73,1,1,0,0,1,.59.21,2.13,2.13,0,0,1,.54.54,3.26,3.26,0,0,1,.41.76,3,3,0,0,1,.18.8,14.14,14.14,0,0,1,2.25-1.58,5.32,5.32,0,0,1,2.32-.73,1.13,1.13,0,0,1,.71.32,3,3,0,0,1,.62.81,3,3,0,0,1,.34,1,1.47,1.47,0,0,1-.16,1v0c-.45.95-.88,1.8-1.28,2.52s-.79,1.39-1.14,2l-.75,1.35c-.22.42-.43.83-.62,1.22a13.26,13.26,0,0,0-.51,1.23,13.75,13.75,0,0,0-.4,1.32l.13-.18a9.55,9.55,0,0,0,2-1.33,16.14,16.14,0,0,0,2.38-2.54q.36-.45.69-.93c.21-.32.44-.65.69-1l.41-.57a.89.89,0,0,1,.64-.36.83.83,0,0,1,.6.16.88.88,0,0,1,.3.55,1.18,1.18,0,0,1-.26.79l-.9,1.25L57,22Z"/><path class="cls-1" d="M68.69,16.84a15.31,15.31,0,0,1-8.21,6.21,3.27,3.27,0,0,0,.09,1.33,1,1,0,0,0,.76.75l0,0A2.35,2.35,0,0,0,62.49,25a6.39,6.39,0,0,0,1.56-.74,13.2,13.2,0,0,0,1.78-1.39,17.78,17.78,0,0,0,1.87-2c.33-.42.65-.85,1-1.29l.87-1.26a.89.89,0,0,1,.64-.36.82.82,0,0,1,.6.16.89.89,0,0,1,.31.55,1.07,1.07,0,0,1-.25.79l-.65.94c-.55.78-1.22,1.64-2,2.59a25.64,25.64,0,0,1-2.69,2.74,8.44,8.44,0,0,1-1.72,1.13,8.89,8.89,0,0,1-1.53.6,6,6,0,0,1-1.26.23c-.38,0-.67,0-.87,0a3.46,3.46,0,0,1-2.93-1.17,4.21,4.21,0,0,1-.64-3.2,10.16,10.16,0,0,1,1.14-3.45,21.74,21.74,0,0,1,2.53-3.67,14.78,14.78,0,0,1,1.43-1.39,14.51,14.51,0,0,1,1.87-1.37,11.43,11.43,0,0,1,2.12-1,5.84,5.84,0,0,1,2.12-.36,2,2,0,0,1,1.61.71,2.22,2.22,0,0,1,.34,1.86,3.83,3.83,0,0,1-.32,1.05,6.73,6.73,0,0,1-.69,1.13Zm-1.35-2.13a4.68,4.68,0,0,0-1.85.83,11,11,0,0,0-1.71,1.53A16,16,0,0,0,62.3,19a15.69,15.69,0,0,0-1.12,1.88,13.47,13.47,0,0,0,3.43-2,12.12,12.12,0,0,0,2.7-3.08v0a1.46,1.46,0,0,0,.23-.42l.11-.36C67.69,14.72,67.58,14.64,67.34,14.71Z"/><path class="cls-1" d="M86.79,12a2.16,2.16,0,0,1,1.52,1,3.83,3.83,0,0,1,.53,1.82,2.18,2.18,0,0,1,.37.89,5.87,5.87,0,0,1,.1,1.17,2.7,2.7,0,0,0-.07.41,3.53,3.53,0,0,1-.06.5,10.17,10.17,0,0,1-.66,2.27,15.35,15.35,0,0,1-1.16,2.24,15.83,15.83,0,0,1-1.53,2.05A12.87,12.87,0,0,1,84,26.08a8.79,8.79,0,0,1-1.91,1.13,4.76,4.76,0,0,1-1.88.42,3.88,3.88,0,0,1-2.79-1.12,4.8,4.8,0,0,1-1.14-3.38c0-.19,0-.39,0-.61s0-.45.07-.69a9,9,0,0,1,.73-2.3,15.22,15.22,0,0,1,1.33-2.3,14.74,14.74,0,0,1,1.78-2.11,13.09,13.09,0,0,1,2.09-1.7,9.38,9.38,0,0,1,2.23-1.09A5.55,5.55,0,0,1,86.79,12ZM85,18.89a.47.47,0,0,1-.28-.36,3.16,3.16,0,0,1-.06-.64,4.91,4.91,0,0,1,.06-.74c0-.26.09-.49.12-.68a1.71,1.71,0,0,1,.33-.66,3.22,3.22,0,0,1,.53-.57,5,5,0,0,1,.56-.43,3.49,3.49,0,0,1,.43-.26.75.75,0,0,0-.37-.05A3.44,3.44,0,0,0,85,15a7.53,7.53,0,0,0-1.43,1,11.29,11.29,0,0,0-1.3,1.45,14.3,14.3,0,0,0-1.89,3.35,7.76,7.76,0,0,0-.43,1.57A3.06,3.06,0,0,0,80,24a1.16,1.16,0,0,0,1.12.72,2.49,2.49,0,0,0,1.3-.33,6.5,6.5,0,0,0,1.33-.94A11.62,11.62,0,0,0,85,22a14.46,14.46,0,0,0,1.1-1.66,13,13,0,0,0,.83-1.73,7,7,0,0,0,.45-1.58l0-.13a.94.94,0,0,0-.48.16,3.35,3.35,0,0,0-.52.41A3.44,3.44,0,0,0,86,18a1.79,1.79,0,0,0-.27.47Z"/><path class="cls-1" d="M98.72,13q-2,3.21-3.57,5.67c-1.07,1.65-2,3.13-2.93,4.45l-.67,1a4.08,4.08,0,0,0,1.37-.68,11.4,11.4,0,0,0,1.33-1.13A17,17,0,0,0,95.51,21l1.21-1.44,0,0,1-1.17c.07-.07.19-.08.37,0a2.12,2.12,0,0,1,.51.28,1.14,1.14,0,0,1,.36.43.34.34,0,0,1,0,.42,5.09,5.09,0,0,0-.31.45l-.29.41v-.05c-.23.31-.43.6-.62.87s-.39.54-.6.81l-.66.82c-.24.28-.51.58-.82.91s-.65.62-1,.93a9.07,9.07,0,0,1-1.11.85,8.67,8.67,0,0,1-1.2.64,4.68,4.68,0,0,1-1.23.33l0,.32,0,.1a5,5,0,0,1,0,.86c0,.27,0,.58-.1.91a13.32,13.32,0,0,1-.86,2.9,17.59,17.59,0,0,1-1.44,2.73,9.32,9.32,0,0,1-1.76,2,2.83,2.83,0,0,1-1.79.8,1.45,1.45,0,0,1-1.32-.78,3.61,3.61,0,0,1-.27-1.8.11.11,0,0,0,0,0,.17.17,0,0,1,0-.08,20,20,0,0,1,1-3.25c.44-1.09.94-2.18,1.5-3.26s1.16-2.17,1.81-3.25,1.29-2.15,2-3.21l1-1.56,3.07-5.17,2.13-3.49q.6-1,1.2-2c.4-.68.78-1.36,1.13-2s.69-1.3,1-1.9.56-1.17.77-1.69a1.13,1.13,0,0,1,1,0,3,3,0,0,1,1,.68,2.83,2.83,0,0,1,.71,1.08,1.38,1.38,0,0,1-.08,1.19l0,0a8.55,8.55,0,0,1-.57,1.08c-.28.48-.6,1-1,1.62s-.77,1.23-1.19,1.89S99.12,12.41,98.72,13ZM88.87,29.32c0-.19.06-.38.08-.55s0-.35,0-.55c-.66,1.13-1.22,2.21-1.69,3.23a22.09,22.09,0,0,0-1.2,3.3,4.15,4.15,0,0,0,1-.93,8.61,8.61,0,0,0,.81-1.32A12.5,12.5,0,0,0,88.48,31,12.32,12.32,0,0,0,88.87,29.32Z"/><path class="cls-1" d="M125.14,22c-.33.45-.77,1-1.3,1.63a25.66,25.66,0,0,1-1.76,1.88,12,12,0,0,1-2,1.54,3.58,3.58,0,0,1-1.9.64,2.83,2.83,0,0,1-1-.2,1.74,1.74,0,0,1-.8-.61,2.32,2.32,0,0,1-.43-1.08,4.26,4.26,0,0,1,.06-1.57,11.7,11.7,0,0,1,.46-1.53,15.61,15.61,0,0,1,.67-1.59c.27-.55.58-1.16.93-1.81s.74-1.38,1.19-2.19a7.64,7.64,0,0,0,.52-1,3.4,3.4,0,0,0,.26-.76s-.15.14-.34.31-.49.43-.91.76c-.74.6-1.42,1.21-2,1.8s-1.23,1.26-1.86,2c-.17.3-.33.6-.49.91s-.31.64-.47,1v-.06c-.38.8-.72,1.6-1,2.41a18.64,18.64,0,0,0-.73,2.48c0,.21-.23.3-.52.29a2.69,2.69,0,0,1-.94-.25,3.75,3.75,0,0,1-.89-.57.88.88,0,0,1-.38-.69,20.61,20.61,0,0,1,1.39-4.26q.93-2.05,2-4.11c.22-.45.42-.85.61-1.2a3.75,3.75,0,0,1,.4-.67,8.83,8.83,0,0,0-1.38,1c-.73.6-1.4,1.21-2,1.82s-1.25,1.27-1.89,2A32,32,0,0,0,107,23.56,25.54,25.54,0,0,0,105.87,27c-.07.19-.25.28-.54.26a2.59,2.59,0,0,1-.93-.25,3.5,3.5,0,0,1-.86-.55.89.89,0,0,1-.35-.68,19.11,19.11,0,0,1,.61-2.28c.26-.73.54-1.46.85-2.18s.64-1.43,1-2.13L106.73,17,108,14.59c.4-.79.76-1.55,1.07-2.28a1,1,0,0,1,.76,0,2.81,2.81,0,0,1,.87.46,2.94,2.94,0,0,1,.73.76,2.29,2.29,0,0,1,.39,1A15.26,15.26,0,0,1,114,12.89a5.21,5.21,0,0,1,2.28-.73,1,1,0,0,1,.59.21,2.13,2.13,0,0,1,.54.54,3.26,3.26,0,0,1,.41.76,3,3,0,0,1,.18.8,14.14,14.14,0,0,1,2.25-1.58,5.36,5.36,0,0,1,2.33-.73,1.13,1.13,0,0,1,.7.32,3,3,0,0,1,.62.81,3,3,0,0,1,.34,1,1.47,1.47,0,0,1-.16,1v0c-.45.95-.88,1.8-1.28,2.52s-.79,1.39-1.13,2-.53.93-.76,1.35-.43.83-.62,1.22a13.26,13.26,0,0,0-.51,1.23,13.75,13.75,0,0,0-.4,1.32l.13-.18a9.55,9.55,0,0,0,2-1.33,16.14,16.14,0,0,0,2.38-2.54q.36-.45.69-.93c.21-.32.44-.65.69-1l.41-.57a.89.89,0,0,1,.64-.36.83.83,0,0,1,.6.16.88.88,0,0,1,.3.55,1.13,1.13,0,0,1-.26.79l-.9,1.25-.9,1.25Z"/><path class="cls-1" d="M130.08,12.21a1.11,1.11,0,0,1,.92,0,2.67,2.67,0,0,1,1,.73,3,3,0,0,1,.63,1.12,1.72,1.72,0,0,1-.07,1.22l-.39.7c-.17.31-.38.67-.62,1.07l0,0L130.4,19c-.41.7-.79,1.4-1.15,2.1s-.68,1.34-.95,2a5.82,5.82,0,0,0-.48,1.47l-.11.21h.23a5.13,5.13,0,0,0,1.49-.85,12.39,12.39,0,0,0,1.4-1.33,18.53,18.53,0,0,0,1.3-1.58c.42-.57.82-1.11,1.2-1.65h0l.44-.57q.73-1.44,1.5-3.06c.51-1.08,1-2.21,1.52-3.37a1.22,1.22,0,0,1,1,0,3.07,3.07,0,0,1,1,.69,2.7,2.7,0,0,1,.69,1.08,1.59,1.59,0,0,1,0,1.21L133.82,25.6c-.52,1-1,1.89-1.52,2.76s-1,1.69-1.49,2.47c.51.36,1,.74,1.5,1.15s1,.83,1.46,1.26v-.05l.16.18a.77.77,0,0,0,.18.18.44.44,0,0,1,.17.5,1.46,1.46,0,0,1-.38.57,3.2,3.2,0,0,1-.72.53,6.79,6.79,0,0,1-.85.43,3.76,3.76,0,0,1-.78.24.76.76,0,0,1-.51-.06l-1-.88-1.33-1.17a15.65,15.65,0,0,1-4.13,3.72,9.87,9.87,0,0,1-5.15,1.33,7.24,7.24,0,0,1-1.81-.23,4.26,4.26,0,0,1-1.51-.68,3,3,0,0,1-1-1.23,3.32,3.32,0,0,1-.14-1.84,6.55,6.55,0,0,1,1-2.56,8.48,8.48,0,0,1,2-2.06,9.09,9.09,0,0,1,2.56-1.35,8.76,8.76,0,0,1,2.86-.48c.53,0,1,0,1.44.06a10.81,10.81,0,0,1,1.16.19,8.19,8.19,0,0,1,1,.28c.32.11.64.24,1,.38l1-1.65,1-1.68-.46.39c-.16.14-.36.29-.6.46a6.86,6.86,0,0,1-.81.45,5.75,5.75,0,0,1-.93.35,3.4,3.4,0,0,1-1,.15,1.56,1.56,0,0,1-1.5-1,4.05,4.05,0,0,1-.17-2.21c0-.19.08-.39.12-.62a3.49,3.49,0,0,1,.17-.62c.14-.39.31-.82.52-1.32s.44-1,.7-1.53l.81-1.64c.27-.56.54-1.12.8-1.68.44-.88.84-1.73,1.23-2.53s.68-1.48.91-2ZM119.39,36.68a4.81,4.81,0,0,0,1.74-.34,7.38,7.38,0,0,0,1.69-1,12.48,12.48,0,0,0,1.65-1.49,20.36,20.36,0,0,0,1.6-1.89,7.73,7.73,0,0,0-3.09-.63,9.94,9.94,0,0,0-1.87.2,7.61,7.61,0,0,0-1.89.61,5.41,5.41,0,0,0-1.51,1A2.45,2.45,0,0,0,117,34.7a1.44,1.44,0,0,0,.11,1,1.5,1.5,0,0,0,.57.6,2.42,2.42,0,0,0,.83.31A4.87,4.87,0,0,0,119.39,36.68Z"/><path class="cls-1" d="M157.3,12.21a1.11,1.11,0,0,1,.92,0,2.67,2.67,0,0,1,1,.73,3,3,0,0,1,.63,1.12,1.66,1.66,0,0,1-.07,1.22c-.1.19-.27.49-.51.91s-.5.89-.81,1.43-.84,1.45-1.3,2.27-.92,1.6-1.34,2.32l-1.09,1.82c-.31.49-.49.77-.54.82a3.62,3.62,0,0,0,1.39-.9c.64-.55,1.34-1.22,2.12-2s1.59-1.69,2.42-2.65,1.6-1.89,2.31-2.79,1.31-1.73,1.8-2.46a6.52,6.52,0,0,0,.86-1.65c.14-.18.3-.16.49,0a2.37,2.37,0,0,1,.49.8,4.33,4.33,0,0,1,.28,1.07,1.18,1.18,0,0,1-.15.84c-.46.59-1,1.32-1.74,2.17s-1.44,1.76-2.26,2.71-1.67,1.88-2.57,2.81-1.8,1.76-2.68,2.51a17.28,17.28,0,0,1-2.56,1.8,4.54,4.54,0,0,1-2.23.67,1.38,1.38,0,0,1-1.24-.63,2.47,2.47,0,0,1-.21-1.82.57.57,0,0,1,0-.12.45.45,0,0,0,0-.11,14.14,14.14,0,0,1-1.19,1.14c-.16.14-.36.29-.6.46a6.14,6.14,0,0,1-.81.45,5.42,5.42,0,0,1-.93.35,3.4,3.4,0,0,1-1,.15,1.55,1.55,0,0,1-1.49-1,4,4,0,0,1-.17-2.21c0-.19.07-.39.11-.62a4.61,4.61,0,0,1,.17-.62c.14-.39.31-.82.52-1.32s.44-1,.7-1.53l.81-1.64q.42-.84.81-1.68c.43-.88.84-1.73,1.22-2.53s.68-1.48.91-2l.31-.36a1.11,1.11,0,0,1,.92,0,2.79,2.79,0,0,1,1,.73,3.16,3.16,0,0,1,.62,1.12,1.66,1.66,0,0,1-.07,1.22c-.08.16-.21.39-.39.7s-.38.67-.62,1.07l0,0c-.35.57-.73,1.21-1.13,1.91s-.8,1.4-1.16,2.1-.68,1.34-1,2a5.82,5.82,0,0,0-.48,1.47l-.11.21h.24a5.62,5.62,0,0,0,1.54-1,15.61,15.61,0,0,0,1.62-1.63c.53-.62,1-1.26,1.52-1.93s.93-1.28,1.32-1.86h0a1.79,1.79,0,0,1,.26-.33,3.55,3.55,0,0,0,.26-.34l.05-.05c.54-1,1-1.93,1.47-2.81s.78-1.61,1-2.19Z"/><path class="cls-1" d="M174.48,12A2.18,2.18,0,0,1,176,13a4,4,0,0,1,.53,1.82,2.31,2.31,0,0,1,.36.89,5.82,5.82,0,0,1,.11,1.17,1.85,1.85,0,0,0-.07.41c0,.14,0,.31-.06.5a10.77,10.77,0,0,1-.67,2.27,15.29,15.29,0,0,1-1.15,2.24,15.91,15.91,0,0,1-1.54,2.05,12.81,12.81,0,0,1-1.79,1.69,9,9,0,0,1-1.91,1.13,4.76,4.76,0,0,1-1.89.42,3.87,3.87,0,0,1-2.78-1.12A4.75,4.75,0,0,1,164,23.13c0-.19,0-.39,0-.61s0-.45.08-.69a8.61,8.61,0,0,1,.73-2.3,14.35,14.35,0,0,1,1.32-2.3,15.42,15.42,0,0,1,1.78-2.11,13.15,13.15,0,0,1,2.1-1.7,9.51,9.51,0,0,1,2.22-1.09A5.59,5.59,0,0,1,174.48,12Zm-1.82,6.86a.46.46,0,0,1-.27-.36,3.16,3.16,0,0,1-.06-.64,4.91,4.91,0,0,1,.06-.74c0-.26.08-.49.12-.68a1.83,1.83,0,0,1,.32-.66,3.69,3.69,0,0,1,.54-.57,4.19,4.19,0,0,1,.56-.43,4.56,4.56,0,0,1,.42-.26.7.7,0,0,0-.36-.05,3.53,3.53,0,0,0-1.33.45,7.86,7.86,0,0,0-1.43,1,12.09,12.09,0,0,0-1.3,1.45,13.68,13.68,0,0,0-1.07,1.65,12.45,12.45,0,0,0-.81,1.7,7.15,7.15,0,0,0-.43,1.57A3.06,3.06,0,0,0,167.7,24a1.15,1.15,0,0,0,1.12.72,2.51,2.51,0,0,0,1.3-.33,6.19,6.19,0,0,0,1.32-.94A10.15,10.15,0,0,0,172.7,22a13.33,13.33,0,0,0,1.11-1.66,14.31,14.31,0,0,0,.83-1.73,7.45,7.45,0,0,0,.44-1.58l0-.13a1,1,0,0,0-.48.16,3.89,3.89,0,0,0-.52.41,4.06,4.06,0,0,0-.44.49,1.79,1.79,0,0,0-.27.47Z"/><path class="cls-1" d="M188.45,22.53c-.49.59-1,1.19-1.62,1.81A16.31,16.31,0,0,1,185,26a9.69,9.69,0,0,1-2.05,1.23,4.59,4.59,0,0,1-2.11.41,2,2,0,0,1-1-.28,1.84,1.84,0,0,1-.64-.69,2.54,2.54,0,0,1-.27-1,4,4,0,0,1,.05-1.14,7.58,7.58,0,0,1,.52-1.61,9.87,9.87,0,0,1,.79-1.43c.31-.45.63-.89,1-1.33s.71-.87,1.09-1.32l.62-.73v0l.76-.88a2.17,2.17,0,0,1,.56-.52,3.87,3.87,0,0,1,1.1-.44l-.6.11a3.52,3.52,0,0,0-.41.1l-.68.15a2.72,2.72,0,0,1-.78.05h-.26c-.47.59-.91,1.17-1.32,1.73l-1.17,1.6v0c-.07.1-.19.13-.37.07a1.32,1.32,0,0,1-.49-.27,1.74,1.74,0,0,1-.38-.44.36.36,0,0,1,0-.43v0c.51-.66.93-1.24,1.28-1.73l.93-1.32a1.63,1.63,0,0,1-.07-1,3.27,3.27,0,0,1,.57-1.43l1-1.45.5-.76a7,7,0,0,0,.56-1l.73.43a3,3,0,0,1,.64.52,1.84,1.84,0,0,1,.4.69,1.71,1.71,0,0,1,.05.88,3.83,3.83,0,0,1-.13.51,3,3,0,0,1-.28.64L184,15.1c-.09.1-.05.11.13,0a7.64,7.64,0,0,0,.75-.4c.33-.19.7-.41,1.12-.68l1.22-.77c.4-.27.75-.51,1.05-.73a6.33,6.33,0,0,0,.64-.52.8.8,0,0,1,.39.15,3.87,3.87,0,0,1,.45.35l.4.37a1.61,1.61,0,0,1,.19.22,1.36,1.36,0,0,1,0,1.05,5.91,5.91,0,0,1-.69,1.34,16.6,16.6,0,0,1-1.17,1.55l-1.44,1.68c-.3.31-.58.62-.86.93s-.56.63-.83,1l-.7.84c-.26.31-.52.62-.76.94a9,9,0,0,0-.62.95,2.35,2.35,0,0,0-.31.78c0,.11,0,.16.26.16a1.5,1.5,0,0,0,.75-.2,5.52,5.52,0,0,0,1-.62,10.3,10.3,0,0,0,1.12-.95,10.18,10.18,0,0,0,1.07-1.19h0c.45-.56.88-1.11,1.28-1.64s.71-1,1-1.38c.08-.09.21-.1.39,0a1.41,1.41,0,0,1,.49.3,1.55,1.55,0,0,1,.37.48.4.4,0,0,1,0,.45l0-.05-.94,1.3-1.22,1.75Z"/><path class="cls-1" d="M204.28,19.88c-.59.8-1.24,1.65-1.95,2.57A24.26,24.26,0,0,1,200.06,25a12.58,12.58,0,0,1-2.57,1.94,5.6,5.6,0,0,1-2.8.77,3.1,3.1,0,0,1-2.28-1,4.72,4.72,0,0,1-1.1-2.34c-.18.43-.34.86-.48,1.28a12.58,12.58,0,0,0-.38,1.29c-.07.19-.25.28-.55.26A2.59,2.59,0,0,1,189,27a3.32,3.32,0,0,1-.86-.55.86.86,0,0,1-.35-.68,20.17,20.17,0,0,1,1-3.2,35.21,35.21,0,0,1,1.46-3.22c.56-1.08,1.16-2.15,1.8-3.23s1.28-2.14,1.92-3.19l1-1.67c.4-.66.8-1.33,1.19-2s.76-1.36,1.11-2,.69-1.29,1-1.91.56-1.18.77-1.7a1.13,1.13,0,0,1,1,0,3,3,0,0,1,1,.69,3.22,3.22,0,0,1,.69,1.08,1.6,1.6,0,0,1,0,1.18c-.13.26-.33.63-.61,1.12l-1,1.62c-.36.6-.75,1.23-1.16,1.88s-.8,1.27-1.18,1.85l-.44.68a12.1,12.1,0,0,1,1.78-1,5.22,5.22,0,0,1,1.78-.49,1.18,1.18,0,0,1,.74.32,2.82,2.82,0,0,1,.64.8,3.17,3.17,0,0,1,.34,1,1.47,1.47,0,0,1-.16,1,14.05,14.05,0,0,1-1,1.78l-1.12,1.68c-.35.5-.67,1-1,1.49a7.34,7.34,0,0,0-.76,1.86,5.21,5.21,0,0,1-1.34-.79,3.66,3.66,0,0,1-.78-.88,2.46,2.46,0,0,1-.34-.89,2.82,2.82,0,0,1,0-.82,2.77,2.77,0,0,1,.23-.72,3,3,0,0,1,.29-.5c.41-.5.76-.94,1-1.32s.5-.7.67-.94a7.94,7.94,0,0,1-1.27,1.25c-.76.62-1.47,1.25-2.11,1.87a8.87,8.87,0,0,0-1,1.7,7.08,7.08,0,0,0-.49,1.42,3.2,3.2,0,0,0,0,1.32,2.51,2.51,0,0,0,.49,1,2.14,2.14,0,0,0,.81.6,2.45,2.45,0,0,0,1,.19,4.44,4.44,0,0,0,2.15-.63,11.31,11.31,0,0,0,2-1.52,19.84,19.84,0,0,0,1.8-2c.55-.7,1-1.35,1.48-2,.09-.09.22-.1.41-.05a1.59,1.59,0,0,1,.54.26,1.45,1.45,0,0,1,.39.43.33.33,0,0,1,0,.42l0-.05Z"/><path class="cls-1" d="M201,23.78a6.37,6.37,0,0,1,.83-2.13A5.62,5.62,0,0,1,203.29,20l.73-.93c.59-.83,1.19-1.66,1.81-2.47s1.25-1.61,1.91-2.37a4.23,4.23,0,0,0,.36-.41l.34-.42c.36-.47.78-1,1.26-1.51a17.83,17.83,0,0,1,2-1.87c.24.14.53.33.88.58a4.1,4.1,0,0,1,.87.84,1.84,1.84,0,0,1,.4.95,1,1,0,0,1-.49.88l.08,0a8.08,8.08,0,0,0-.74.69c-.15.17-.31.36-.48.59l-.42.52a7.14,7.14,0,0,0-1,1.92,14.11,14.11,0,0,0-.53,2c-.07.37-.12.74-.16,1.11s-.07.75-.1,1.13l-.18,1.56a6.76,6.76,0,0,1-.65,2.14,5.64,5.64,0,0,1-1.24,1.66,5.1,5.1,0,0,1-1.66,1,4.55,4.55,0,0,1-1.94.3,4.42,4.42,0,0,1-1.71-.44,3.16,3.16,0,0,1-1.11-.91,3,3,0,0,1-.53-1.25A4.09,4.09,0,0,1,201,23.78Zm5.8-4.81a3.49,3.49,0,0,1,.07-.43c0-.15.07-.29.11-.43l-1.09,1.46,0,0a6.14,6.14,0,0,1,.1.72,6.17,6.17,0,0,1,0,1.06,7.09,7.09,0,0,1-.14,1.07,1.4,1.4,0,0,1-.38.74.66.66,0,0,0-.52-.48,1.27,1.27,0,0,0-.75.12,2.47,2.47,0,0,0-.71.5,1.61,1.61,0,0,0-.39.67,1.69,1.69,0,0,0,0,.32c0,.13,0,.26.08.38a1.22,1.22,0,0,0,.55.61,2.26,2.26,0,0,0,.73.25,1.11,1.11,0,0,0,.7-.13,2,2,0,0,0,.56-.5,2.94,2.94,0,0,0,.41-.72,3.79,3.79,0,0,0,.25-.89c.07-.62.12-1.28.16-2,0-.37.06-.75.09-1.15A7.61,7.61,0,0,1,206.78,19Z"/></g></g></svg>