<svg xmlns="http://www.w3.org/2000/svg" viewBox="0 0 75.69 42.94"><defs><style>.cls-1{fill:#e503bb;}.cls-2{fill:#0582c9;}</style></defs><title>Asset 10</title><g id="Layer_2" data-name="Layer 2"><g id="Layer_4" data-name="Layer 4"><path class="cls-1" d="M30.07,3.76a.86.86,0,0,1,.66-.31,1.38,1.38,0,0,1,.74.22,3.16,3.16,0,0,1,.69.6,3.37,3.37,0,0,1,.53.8,3.26,3.26,0,0,1,.28.87,1.25,1.25,0,0,1-.12.78Q32,8.27,30.78,10.08t-2.49,3.74Q27,15.76,25.65,17.64l-2.5,3.57-1.8,2.57c-.57.8-1.06,1.5-1.47,2.11s-.75,1.1-1,1.49a5.33,5.33,0,0,0-.39.69l0,0a56.13,56.13,0,0,0,4.92-3.5q2.47-2,4.87-4.21T33,15.66c1.52-1.66,2.95-3.35,4.31-5.08s2.6-3.46,3.75-5.22a51.72,51.72,0,0,0,3-5.21c.14-.19.35-.2.63,0a4.21,4.21,0,0,1,.82.78A5.67,5.67,0,0,1,46.18,2a1.07,1.07,0,0,1,.11.84,38.06,38.06,0,0,1-2.47,3.81q-1.5,2.1-3.39,4.35c-1.26,1.49-2.6,3-4,4.56s-2.88,3-4.35,4.47-2.94,2.8-4.4,4.07-2.83,2.39-4.13,3.35A29.07,29.07,0,0,1,20,29.75a7.48,7.48,0,0,1-2.67,1,2,2,0,0,1-1-.3,2.51,2.51,0,0,1-.77-.72,3.62,3.62,0,0,1-.46-1,2.35,2.35,0,0,1,0-1.18l.52-1a24.64,24.64,0,0,1-2.72,2.25,7.46,7.46,0,0,1-2.32,1.18l0,0a5.58,5.58,0,0,1-1.4.19,3,3,0,0,1-1.55-.37,2.41,2.41,0,0,1-.93-1,3.73,3.73,0,0,1-.41-1.43,6.82,6.82,0,0,1,.08-1.73c0-.26.08-.51.14-.76s.14-.48.22-.72c.32-.8.73-1.7,1.24-2.71S9,19.29,9.7,18.18s1.4-2.28,2.19-3.49S13.53,12.27,14.4,11s1.78-2.47,2.69-3.68S18.93,5,19.85,3.81a17.39,17.39,0,0,0-3.8.89,24.15,24.15,0,0,0-3.71,1.66,27.91,27.91,0,0,0-3.4,2.21A28.28,28.28,0,0,0,6.12,11a15.13,15.13,0,0,0-2,2.46,5.25,5.25,0,0,0-.87,2.19l-.18.37c-.12.14-.36.16-.7.08a2.77,2.77,0,0,1-1-.55,3,3,0,0,1-.83-1.05,1.94,1.94,0,0,1-.06-1.47A15.09,15.09,0,0,1,2.74,9.22,21.73,21.73,0,0,1,5.9,6.09,24.94,24.94,0,0,1,9.57,3.64,28.54,28.54,0,0,1,13.39,1.9,26,26,0,0,1,17,.86,15.94,15.94,0,0,1,20.06.51h.65a3.27,3.27,0,0,1,.57.05,2.07,2.07,0,0,1,.95.42,3.53,3.53,0,0,1,.79.8,3.87,3.87,0,0,1,.52,1,1.8,1.8,0,0,1,.11.92,5.44,5.44,0,0,1-.43.91c-.24.42-.54.92-.92,1.5L21,8c-.48.7-1,1.43-1.5,2.17-.64.92-1.31,1.89-2,2.91s-1.41,2.06-2.1,3.1-1.36,2.06-2,3.08-1.21,2-1.72,2.87-.93,1.73-1.27,2.48a8.39,8.39,0,0,0-.64,1.92.89.89,0,0,0,.15.75c.14.17.42.22.81.13a6.41,6.41,0,0,0,2.15-1.2A23.83,23.83,0,0,0,15.38,24Q16.68,22.62,18,21t2.55-3.12c.8-1,1.54-2,2.22-2.92s1.23-1.66,1.66-2.27l.11-.1Q25.81,10.83,27,9c.81-1.23,1.61-2.52,2.41-3.85A.43.43,0,0,1,29.5,5l.15-.31a2.94,2.94,0,0,1,.16-.31.6.6,0,0,0,.08-.2Z"/><path class="cls-1" d="M45.46,11.22a2.17,2.17,0,0,1,1.52,1,3.8,3.8,0,0,1,.53,1.82,2.13,2.13,0,0,1,.37.88,6,6,0,0,1,.1,1.17,3,3,0,0,0-.06.42,3.82,3.82,0,0,1-.07.49,10,10,0,0,1-.66,2.27A14.86,14.86,0,0,1,46,21.53a15.17,15.17,0,0,1-1.53,2,11.9,11.9,0,0,1-1.8,1.7,9.21,9.21,0,0,1-1.91,1.13,4.91,4.91,0,0,1-1.88.41,3.84,3.84,0,0,1-2.78-1.12A4.76,4.76,0,0,1,35,22.32c0-.19,0-.39,0-.61s0-.44.08-.69a9.07,9.07,0,0,1,.72-2.3,15.73,15.73,0,0,1,1.33-2.3,15.23,15.23,0,0,1,1.78-2.1A14.24,14.24,0,0,1,41,12.61a9.78,9.78,0,0,1,2.23-1.09A5.73,5.73,0,0,1,45.46,11.22Zm-1.82,6.87a.47.47,0,0,1-.27-.37,2.51,2.51,0,0,1-.07-.64,3.93,3.93,0,0,1,.07-.74c0-.26.08-.48.11-.67a1.82,1.82,0,0,1,.33-.67,4.11,4.11,0,0,1,.53-.57c.19-.16.38-.3.56-.43s.33-.2.43-.26a.84.84,0,0,0-.36-.05,3.7,3.7,0,0,0-1.33.46,7.53,7.53,0,0,0-1.43,1,10.57,10.57,0,0,0-1.3,1.44,14.61,14.61,0,0,0-1.08,1.65A11.94,11.94,0,0,0,39,20a7,7,0,0,0-.43,1.57,3,3,0,0,0,.07,1.65,1.16,1.16,0,0,0,1.12.71,2.57,2.57,0,0,0,1.3-.32,6.19,6.19,0,0,0,1.33-.95,11.49,11.49,0,0,0,1.26-1.39,12.9,12.9,0,0,0,1.1-1.66,15.19,15.19,0,0,0,.84-1.73,7.52,7.52,0,0,0,.44-1.59l0-.13a1,1,0,0,0-.48.17,3.28,3.28,0,0,0-.52.4,3.43,3.43,0,0,0-.44.5,2.46,2.46,0,0,0-.28.46Z"/><path class="cls-1" d="M59.42,21.73c-.48.59-1,1.19-1.61,1.8a15.51,15.51,0,0,1-1.87,1.68,10.14,10.14,0,0,1-2.06,1.22,4.7,4.7,0,0,1-2.1.42,2,2,0,0,1-1-.29,1.68,1.68,0,0,1-.63-.69,2.68,2.68,0,0,1-.28-1,4.51,4.51,0,0,1,.06-1.15,7.77,7.77,0,0,1,.52-1.61,9.46,9.46,0,0,1,.79-1.43c.3-.45.63-.89,1-1.32s.71-.88,1.1-1.33l.62-.73v0l.75-.89a2.35,2.35,0,0,1,.56-.52,4.44,4.44,0,0,1,1.11-.44l-.6.12-.42.09-.67.16a2.77,2.77,0,0,1-.78,0H53.6c-.47.59-.91,1.16-1.33,1.73l-1.17,1.6v0c-.07.1-.19.13-.36.08a1.39,1.39,0,0,1-.5-.28,1.43,1.43,0,0,1-.37-.44.34.34,0,0,1,0-.43v0c.5-.66.93-1.24,1.27-1.73s.66-.93.94-1.31a1.57,1.57,0,0,1-.08-1,3.42,3.42,0,0,1,.57-1.43c.3-.42.65-.9,1-1.46q.24-.33.51-.75a9.18,9.18,0,0,0,.56-1l.73.43a2.91,2.91,0,0,1,.63.52A1.78,1.78,0,0,1,56.51,12c0,.15-.08.32-.13.5a2.86,2.86,0,0,1-.29.64L55,14.29c-.08.1,0,.12.13,0s.43-.21.76-.4L57,13.25l1.23-.78c.4-.26.75-.5,1.05-.73a6.11,6.11,0,0,0,.64-.52.74.74,0,0,1,.39.16,4.58,4.58,0,0,1,.45.35l.39.36.2.22a1.48,1.48,0,0,1,0,1.06,6.35,6.35,0,0,1-.69,1.34,16.56,16.56,0,0,1-1.17,1.54c-.46.55-.94,1.11-1.45,1.68-.29.31-.58.62-.85.94s-.56.63-.84,1l-.7.83c-.26.31-.51.63-.75.95a9.74,9.74,0,0,0-.63.95,2.77,2.77,0,0,0-.31.78c0,.1,0,.15.26.15A1.52,1.52,0,0,0,55,23.3a6.91,6.91,0,0,0,1-.62,12.9,12.9,0,0,0,1.12-.95,11.08,11.08,0,0,0,1.06-1.2h0c.45-.55.87-1.1,1.27-1.64s.72-1,1-1.38a.35.35,0,0,1,.39,0,1.59,1.59,0,0,1,.5.29,1.51,1.51,0,0,1,.36.48.4.4,0,0,1,0,.46l0-.05L60.7,20,59.47,21.7Z"/><path class="cls-1" d="M75.26,19.07q-.89,1.2-2,2.58A23.26,23.26,0,0,1,71,24.2a12.47,12.47,0,0,1-2.56,1.93,5.64,5.64,0,0,1-2.81.77,3,3,0,0,1-2.27-1,4.65,4.65,0,0,1-1.11-2.34c-.17.44-.33.86-.48,1.29s-.27.85-.38,1.29c-.06.19-.25.27-.54.26a2.54,2.54,0,0,1-.92-.25,3.19,3.19,0,0,1-.86-.56.85.85,0,0,1-.35-.68,20,20,0,0,1,1-3.19c.43-1.08.92-2.15,1.47-3.23s1.15-2.15,1.79-3.22l1.93-3.2,1-1.66c.4-.66.79-1.33,1.18-2s.76-1.36,1.12-2,.68-1.3,1-1.91.56-1.19.77-1.71a1.17,1.17,0,0,1,1,0,2.94,2.94,0,0,1,1,.69,3.11,3.11,0,0,1,.69,1.08,1.53,1.53,0,0,1,0,1.19,12.11,12.11,0,0,1-.61,1.11c-.28.49-.61,1-1,1.63s-.75,1.22-1.16,1.87l-1.18,1.86-.45.68a10.62,10.62,0,0,1,1.79-1,5.18,5.18,0,0,1,1.78-.5,1.14,1.14,0,0,1,.74.33,2.86,2.86,0,0,1,1,1.8,1.56,1.56,0,0,1-.15,1,14.16,14.16,0,0,1-1,1.78L71.3,17.9c-.34.51-.67,1-1,1.5a7.39,7.39,0,0,0-.77,1.86,5.71,5.71,0,0,1-1.34-.79,4.18,4.18,0,0,1-.78-.89,2.39,2.39,0,0,1-.33-.88,2.84,2.84,0,0,1,0-.82,2.51,2.51,0,0,1,.24-.73,3.84,3.84,0,0,1,.28-.49c.42-.51.77-.95,1-1.33s.51-.69.68-.94a7.63,7.63,0,0,1-1.28,1.25c-.76.63-1.46,1.25-2.1,1.87a9.57,9.57,0,0,0-1,1.71,7.85,7.85,0,0,0-.48,1.41,2.93,2.93,0,0,0,0,1.33,2.58,2.58,0,0,0,.49,1,2.15,2.15,0,0,0,.81.59,2.46,2.46,0,0,0,1,.2,4.42,4.42,0,0,0,2.14-.64,10.59,10.59,0,0,0,2-1.52,18.49,18.49,0,0,0,1.79-2c.56-.7,1-1.36,1.48-2a.44.44,0,0,1,.42-.05,1.54,1.54,0,0,1,.53.26,1.32,1.32,0,0,1,.39.43.34.34,0,0,1,0,.43l0-.05Z"/><path class="cls-2" d="M0,42.94s.61-7.41,16.69-8.46c10.83-.7,29.4,3.6,43,4a34.9,34.9,0,0,0,16-3c-3.31,2.22-9,5.55-16,6-7.85.51-31.24-1.79-41-2C11.7,39.33,4.47,40.64,0,42.94Z"/></g></g></svg>